<svg xmlns="http://www.w3.org/2000/svg" xmlns:xlink="http://www.w3.org/1999/xlink" width="1000" zoomAndPan="magnify" viewBox="0 0 750 749.999995" height="1000" preserveAspectRatio="xMidYMid meet" version="1.0"><defs><g/><clipPath id="1ce1936ad5"><path d="M 93.511719 40 L 633 40 L 633 579.316406 L 93.511719 579.316406 Z M 93.511719 40 " clip-rule="nonzero"/></clipPath><clipPath id="f89b29f405"><path d="M 282.777344 371.78125 C 287.042969 371.78125 290.496094 368.316406 290.496094 364.050781 C 290.496094 359.785156 287.042969 356.332031 282.777344 356.332031 C 278.511719 356.332031 275.03125 359.785156 275.03125 364.050781 C 275.03125 368.316406 278.511719 371.78125 282.777344 371.78125 Z M 437.253906 309.984375 L 452.710938 309.984375 C 456.980469 309.984375 460.429688 313.445312 460.429688 317.703125 C 460.429688 321.96875 456.980469 325.429688 452.710938 325.429688 L 437.253906 325.429688 C 433 325.429688 429.539062 328.894531 429.539062 333.160156 C 429.539062 337.425781 433 340.875 437.253906 340.875 L 452.710938 340.875 C 456.980469 340.875 460.429688 344.355469 460.429688 348.605469 C 460.429688 352.871094 456.980469 356.332031 452.710938 356.332031 L 437.253906 356.332031 C 433 356.332031 429.539062 359.796875 429.539062 364.050781 C 429.539062 368.316406 433 371.78125 437.253906 371.78125 C 441.523438 371.78125 445 375.242188 445 379.507812 C 445 383.765625 441.523438 387.226562 437.253906 387.226562 L 372.546875 387.226562 C 365.066406 387.226562 357.667969 386.027344 350.558594 383.65625 L 321.382812 373.9375 L 321.382812 278.359375 C 333.511719 276.054688 345.371094 268.375 356.078125 255.816406 C 366.527344 243.546875 374.996094 227.28125 378.75 212.308594 L 381.5 201.3125 L 383.183594 201.3125 C 391.703125 201.3125 398.640625 208.253906 398.640625 216.773438 L 398.640625 224.492188 C 398.640625 234.867188 395.386719 254.761719 391.242188 263.636719 L 375.472656 263.636719 C 371.203125 263.636719 367.726562 267.097656 367.726562 271.351562 C 367.726562 275.617188 371.203125 279.082031 375.472656 279.082031 L 452.710938 279.082031 C 456.980469 279.082031 460.429688 282.542969 460.429688 286.808594 C 460.429688 291.066406 456.980469 294.527344 452.710938 294.527344 L 437.253906 294.527344 C 433 294.527344 429.539062 297.988281 429.539062 302.257812 C 429.539062 306.523438 433 309.984375 437.253906 309.984375 Z M 305.953125 379.507812 C 305.953125 383.765625 302.472656 387.226562 298.207031 387.226562 L 259.597656 387.226562 L 259.597656 263.636719 L 298.207031 263.636719 C 302.472656 263.636719 305.953125 267.097656 305.953125 271.351562 Z M 469.960938 302.257812 C 473.648438 298.144531 475.886719 292.738281 475.886719 286.808594 C 475.886719 274.023438 465.484375 263.636719 452.710938 263.636719 L 407.734375 263.636719 C 412.183594 250.113281 414.082031 232.175781 414.082031 224.492188 L 414.082031 216.773438 C 414.082031 199.730469 400.230469 185.871094 383.1875 185.871094 L 375.472656 185.871094 C 371.917969 185.871094 368.835938 188.28125 367.964844 191.714844 L 363.75 208.558594 C 357.867188 232.132812 339.140625 258.148438 319.773438 262.875 C 316.378906 254.289062 308 248.179688 298.207031 248.179688 L 251.859375 248.179688 C 247.601562 248.179688 244.140625 251.640625 244.140625 255.90625 L 244.140625 394.953125 C 244.140625 399.222656 247.601562 402.683594 251.859375 402.683594 L 298.207031 402.683594 C 307.425781 402.683594 315.402344 397.285156 319.144531 389.476562 L 345.671875 398.324219 C 354.351562 401.210938 363.394531 402.683594 372.546875 402.683594 L 437.253906 402.683594 C 450.042969 402.683594 460.429688 392.28125 460.429688 379.507812 C 460.429688 376.492188 459.863281 373.609375 458.8125 370.964844 C 468.648438 368.289062 475.894531 359.285156 475.894531 348.605469 C 475.894531 342.679688 473.65625 337.269531 469.964844 333.160156 C 473.65625 329.050781 475.894531 323.640625 475.894531 317.703125 C 475.886719 311.773438 473.648438 306.367188 469.960938 302.257812 Z M 468.988281 467.332031 C 466.011719 462.34375 459.550781 460.699219 454.558594 463.660156 C 426.140625 480.550781 394.589844 488.78125 363.265625 488.78125 C 316.980469 488.769531 271.132812 470.804688 236.566406 436.246094 C 184.746094 384.421875 169.707031 307.308594 198.265625 239.800781 C 200.53125 234.441406 198.027344 228.265625 192.65625 226 C 187.3125 223.734375 181.121094 226.238281 178.855469 231.597656 C 163.527344 267.863281 159.234375 307.558594 166.449219 346.40625 C 173.851562 386.195312 192.941406 422.421875 221.671875 451.136719 C 260.304688 489.769531 311.527344 509.851562 363.261719 509.851562 C 398.285156 509.851562 433.550781 500.644531 465.296875 481.773438 C 470.304688 478.804688 471.949219 472.335938 468.988281 467.332031 Z M 504.699219 436.28125 C 500.617188 432.148438 493.953125 432.109375 489.816406 436.203125 L 489.660156 436.359375 C 485.523438 440.453125 485.503906 447.117188 489.582031 451.25 C 491.636719 453.332031 494.347656 454.371094 497.0625 454.371094 C 499.746094 454.371094 502.433594 453.359375 504.488281 451.332031 L 504.632812 451.171875 C 508.765625 447.082031 508.800781 440.417969 504.699219 436.28125 Z M 559.890625 272.878906 C 552.492188 233.085938 533.402344 196.878906 504.671875 168.148438 C 439.886719 103.363281 339.707031 90.777344 261.046875 137.519531 C 256.042969 140.496094 254.398438 146.945312 257.359375 151.953125 C 260.335938 156.957031 266.796875 158.601562 271.792969 155.625 C 342.183594 113.804688 431.804688 125.078125 489.773438 183.050781 C 541.597656 234.878906 556.636719 311.984375 528.078125 379.480469 C 525.8125 384.84375 528.316406 391.019531 533.6875 393.28125 C 535.019531 393.847656 536.398438 394.125 537.769531 394.125 C 541.878906 394.125 545.773438 391.703125 547.488281 387.683594 C 562.832031 351.421875 567.109375 311.722656 559.890625 272.878906 Z M 236.769531 168.027344 C 232.675781 163.910156 225.996094 163.871094 221.859375 167.964844 L 221.714844 168.109375 C 217.578125 172.203125 217.539062 178.878906 221.652344 183.015625 C 223.707031 185.097656 226.417969 186.140625 229.132812 186.140625 C 231.804688 186.140625 234.476562 185.125 236.53125 183.085938 L 236.6875 182.941406 C 240.824219 178.835938 240.851562 172.160156 236.769531 168.027344 Z M 592.785156 322.546875 C 586.042969 333.488281 584.4375 346.789062 588.390625 359.003906 L 597.476562 387.300781 C 600.769531 397.503906 596.609375 408.476562 587.390625 413.949219 L 562.183594 428.910156 C 551.097656 435.496094 543.484375 446.566406 541.3125 459.285156 L 536.351562 488.386719 C 534.535156 499.027344 525.738281 506.832031 514.96875 507.375 L 486.089844 508.8125 C 473.121094 509.457031 461.164062 515.753906 453.304688 526.101562 L 435.714844 549.25 C 429.246094 557.753906 417.527344 560.652344 407.835938 556.121094 L 381.753906 543.941406 C 369.941406 538.425781 356.40625 538.425781 344.582031 543.941406 L 318.503906 556.121094 C 308.828125 560.652344 297.105469 557.753906 290.640625 549.25 L 273.03125 526.101562 C 265.183594 515.753906 253.226562 509.457031 240.246094 508.8125 L 211.382812 507.375 C 200.613281 506.832031 191.816406 499.027344 189.996094 488.386719 L 185.035156 459.285156 C 182.863281 446.566406 175.253906 435.492188 164.164062 428.910156 L 138.960938 413.957031 C 129.746094 408.476562 125.582031 397.523438 128.871094 387.308594 L 137.957031 359.007812 C 141.894531 346.789062 140.289062 333.492188 133.5625 322.550781 L 118.007812 297.292969 C 112.398438 288.167969 113.808594 276.542969 121.445312 269.023438 L 142.460938 248.3125 C 151.625 239.296875 156.367188 226.746094 155.445312 213.910156 L 153.335938 184.332031 C 152.570312 173.589844 159.234375 163.925781 169.542969 160.820312 L 197.375 152.433594 C 209.765625 148.695312 219.839844 139.738281 224.988281 127.851562 L 236.65625 100.964844 C 240.316406 92.539062 248.742188 87.207031 257.695312 87.207031 C 259.117188 87.207031 260.5625 87.351562 262.011719 87.644531 L 290.273438 93.1875 C 303.046875 95.691406 316.1875 92.4375 326.328125 84.261719 L 348.816406 66.101562 C 357.128906 59.386719 369.199219 59.386719 377.519531 66.101562 L 400.011719 84.25 C 410.148438 92.441406 423.292969 95.695312 436.0625 93.175781 L 464.308594 87.632812 C 474.777344 85.578125 485.4375 91.1875 489.683594 100.96875 L 501.339844 127.855469 C 506.488281 139.730469 516.558594 148.699219 528.953125 152.4375 L 556.800781 160.824219 C 567.113281 163.929688 573.773438 173.59375 573.015625 184.328125 L 570.90625 213.914062 C 569.984375 226.75 574.722656 239.289062 583.886719 248.316406 L 604.898438 269.027344 C 612.535156 276.546875 613.945312 288.175781 608.335938 297.300781 Z M 626.273438 308.324219 C 637.058594 290.796875 634.347656 268.46875 619.6875 254.023438 L 598.660156 233.3125 C 593.890625 228.613281 591.433594 222.082031 591.90625 215.410156 L 594.015625 185.820312 C 595.476562 165.203125 582.679688 146.625 562.886719 140.660156 L 535.035156 132.273438 C 528.585938 130.324219 523.34375 125.660156 520.667969 119.472656 L 509.019531 92.578125 C 500.867188 73.789062 480.371094 63 460.257812 66.953125 L 432.011719 72.5 C 425.363281 73.804688 418.53125 72.105469 413.25 67.851562 L 390.777344 49.691406 C 374.78125 36.785156 351.578125 36.785156 335.582031 49.691406 L 313.109375 67.851562 C 307.828125 72.105469 300.996094 73.804688 294.347656 72.5 L 266.085938 66.953125 C 245.992188 63.007812 225.492188 73.792969 217.339844 92.578125 L 205.675781 119.464844 C 203 125.648438 197.765625 130.316406 191.308594 132.261719 L 163.472656 140.648438 C 143.6875 146.613281 130.886719 165.191406 132.347656 185.8125 L 134.457031 215.398438 C 134.933594 222.074219 132.46875 228.605469 127.699219 233.304688 L 106.660156 254.011719 C 92.019531 268.457031 89.304688 290.789062 100.09375 308.3125 L 115.640625 333.578125 C 119.140625 339.269531 119.972656 346.195312 117.933594 352.554688 L 108.835938 380.839844 C 102.53125 400.472656 110.496094 421.527344 128.230469 432.050781 L 153.421875 447.003906 C 159.203125 450.441406 163.148438 456.210938 164.28125 462.816406 L 169.246094 491.917969 C 172.734375 512.371094 189.640625 527.371094 210.367188 528.410156 L 239.234375 529.835938 C 245.972656 530.171875 252.1875 533.453125 256.285156 538.839844 L 273.890625 561.988281 C 282.371094 573.152344 295.566406 579.289062 308.992188 579.289062 C 315.234375 579.289062 321.527344 577.957031 327.429688 575.207031 L 353.527344 563.03125 C 359.664062 560.160156 366.71875 560.160156 372.855469 563.03125 L 398.953125 575.207031 C 417.542969 583.894531 440.078125 578.339844 452.492188 561.988281 L 470.085938 538.839844 C 474.195312 533.453125 480.40625 530.179688 487.148438 529.851562 L 516.023438 528.414062 C 536.734375 527.375 553.640625 512.375 557.148438 491.925781 L 562.097656 462.839844 C 563.230469 456.214844 567.179688 450.449219 572.964844 447.027344 L 598.152344 432.070312 C 615.890625 421.539062 623.855469 400.484375 617.546875 380.851562 L 608.449219 352.5625 C 606.410156 346.207031 607.234375 339.28125 610.738281 333.589844 Z M 626.273438 308.324219 " clip-rule="nonzero"/></clipPath><clipPath id="ae038dfae8"><rect x="0" width="461" y="0" height="137"/></clipPath><clipPath id="703c358033"><rect x="0" width="750" y="0" height="750"/></clipPath></defs><g transform="matrix(1, 0, 0, 1, 0, -0.000000000000042435)"><g clip-path="url(#703c358033)"><path fill="#00339f" d="M 282.777344 371.78125 C 287.042969 371.78125 290.496094 368.316406 290.496094 364.050781 C 290.496094 359.785156 287.042969 356.332031 282.777344 356.332031 C 278.511719 356.332031 275.03125 359.785156 275.03125 364.050781 C 275.03125 368.316406 278.511719 371.78125 282.777344 371.78125 Z M 437.253906 309.984375 L 452.710938 309.984375 C 456.980469 309.984375 460.429688 313.445312 460.429688 317.703125 C 460.429688 321.96875 456.980469 325.429688 452.710938 325.429688 L 437.253906 325.429688 C 433 325.429688 429.539062 328.894531 429.539062 333.160156 C 429.539062 337.425781 433 340.875 437.253906 340.875 L 452.710938 340.875 C 456.980469 340.875 460.429688 344.355469 460.429688 348.605469 C 460.429688 352.871094 456.980469 356.332031 452.710938 356.332031 L 437.253906 356.332031 C 433 356.332031 429.539062 359.796875 429.539062 364.050781 C 429.539062 368.316406 433 371.78125 437.253906 371.78125 C 441.523438 371.78125 445 375.242188 445 379.507812 C 445 383.765625 441.523438 387.226562 437.253906 387.226562 L 372.546875 387.226562 C 365.066406 387.226562 357.667969 386.027344 350.558594 383.65625 L 321.382812 373.9375 L 321.382812 278.359375 C 333.511719 276.054688 345.371094 268.375 356.078125 255.816406 C 366.527344 243.546875 374.996094 227.28125 378.75 212.308594 L 381.5 201.3125 L 383.183594 201.3125 C 391.703125 201.3125 398.640625 208.253906 398.640625 216.773438 L 398.640625 224.492188 C 398.640625 234.867188 395.386719 254.761719 391.242188 263.636719 L 375.472656 263.636719 C 371.203125 263.636719 367.726562 267.097656 367.726562 271.351562 C 367.726562 275.617188 371.203125 279.082031 375.472656 279.082031 L 452.710938 279.082031 C 456.980469 279.082031 460.429688 282.542969 460.429688 286.808594 C 460.429688 291.066406 456.980469 294.527344 452.710938 294.527344 L 437.253906 294.527344 C 433 294.527344 429.539062 297.988281 429.539062 302.257812 C 429.539062 306.523438 433 309.984375 437.253906 309.984375 Z M 305.953125 379.507812 C 305.953125 383.765625 302.472656 387.226562 298.207031 387.226562 L 259.597656 387.226562 L 259.597656 263.636719 L 298.207031 263.636719 C 302.472656 263.636719 305.953125 267.097656 305.953125 271.351562 Z M 469.960938 302.257812 C 473.648438 298.144531 475.886719 292.738281 475.886719 286.808594 C 475.886719 274.023438 465.484375 263.636719 452.710938 263.636719 L 407.734375 263.636719 C 412.183594 250.113281 414.082031 232.175781 414.082031 224.492188 L 414.082031 216.773438 C 414.082031 199.730469 400.230469 185.871094 383.1875 185.871094 L 375.472656 185.871094 C 371.917969 185.871094 368.835938 188.28125 367.964844 191.714844 L 363.75 208.558594 C 357.867188 232.132812 339.140625 258.148438 319.773438 262.875 C 316.378906 254.289062 308 248.179688 298.207031 248.179688 L 251.859375 248.179688 C 247.601562 248.179688 244.140625 251.640625 244.140625 255.90625 L 244.140625 394.953125 C 244.140625 399.222656 247.601562 402.683594 251.859375 402.683594 L 298.207031 402.683594 C 307.425781 402.683594 315.402344 397.285156 319.144531 389.476562 L 345.671875 398.324219 C 354.351562 401.210938 363.394531 402.683594 372.546875 402.683594 L 437.253906 402.683594 C 450.042969 402.683594 460.429688 392.28125 460.429688 379.507812 C 460.429688 376.492188 459.863281 373.609375 458.8125 370.964844 C 468.648438 368.289062 475.894531 359.285156 475.894531 348.605469 C 475.894531 342.679688 473.65625 337.269531 469.964844 333.160156 C 473.65625 329.050781 475.894531 323.640625 475.894531 317.703125 C 475.886719 311.773438 473.648438 306.367188 469.960938 302.257812 Z M 468.988281 467.332031 C 466.011719 462.34375 459.550781 460.699219 454.558594 463.660156 C 426.140625 480.550781 394.589844 488.78125 363.265625 488.78125 C 316.980469 488.769531 271.132812 470.804688 236.566406 436.246094 C 184.746094 384.421875 169.707031 307.308594 198.265625 239.800781 C 200.53125 234.441406 198.027344 228.265625 192.65625 226 C 187.3125 223.734375 181.121094 226.238281 178.855469 231.597656 C 163.527344 267.863281 159.234375 307.558594 166.449219 346.40625 C 173.851562 386.195312 192.941406 422.421875 221.671875 451.136719 C 260.304688 489.769531 311.527344 509.851562 363.261719 509.851562 C 398.285156 509.851562 433.550781 500.644531 465.296875 481.773438 C 470.304688 478.804688 471.949219 472.335938 468.988281 467.332031 Z M 504.699219 436.28125 C 500.617188 432.148438 493.953125 432.109375 489.816406 436.203125 L 489.660156 436.359375 C 485.523438 440.453125 485.503906 447.117188 489.582031 451.25 C 491.636719 453.332031 494.347656 454.371094 497.0625 454.371094 C 499.746094 454.371094 502.433594 453.359375 504.488281 451.332031 L 504.632812 451.171875 C 508.765625 447.082031 508.800781 440.417969 504.699219 436.28125 Z M 559.890625 272.878906 C 552.492188 233.085938 533.402344 196.878906 504.671875 168.148438 C 439.886719 103.363281 339.707031 90.777344 261.046875 137.519531 C 256.042969 140.496094 254.398438 146.945312 257.359375 151.953125 C 260.335938 156.957031 266.796875 158.601562 271.792969 155.625 C 342.183594 113.804688 431.804688 125.078125 489.773438 183.050781 C 541.597656 234.878906 556.636719 311.984375 528.078125 379.480469 C 525.8125 384.84375 528.316406 391.019531 533.6875 393.28125 C 535.019531 393.847656 536.398438 394.125 537.769531 394.125 C 541.878906 394.125 545.773438 391.703125 547.488281 387.683594 C 562.832031 351.421875 567.109375 311.722656 559.890625 272.878906 Z M 236.769531 168.027344 C 232.675781 163.910156 225.996094 163.871094 221.859375 167.964844 L 221.714844 168.109375 C 217.578125 172.203125 217.539062 178.878906 221.652344 183.015625 C 223.707031 185.097656 226.417969 186.140625 229.132812 186.140625 C 231.804688 186.140625 234.476562 185.125 236.53125 183.085938 L 236.6875 182.941406 C 240.824219 178.835938 240.851562 172.160156 236.769531 168.027344 Z M 592.785156 322.546875 C 586.042969 333.488281 584.4375 346.789062 588.390625 359.003906 L 597.476562 387.300781 C 600.769531 397.503906 596.609375 408.476562 587.390625 413.949219 L 562.183594 428.910156 C 551.097656 435.496094 543.484375 446.566406 541.3125 459.285156 L 536.351562 488.386719 C 534.535156 499.027344 525.738281 506.832031 514.96875 507.375 L 486.089844 508.8125 C 473.121094 509.457031 461.164062 515.753906 453.304688 526.101562 L 435.714844 549.25 C 429.246094 557.753906 417.527344 560.652344 407.835938 556.121094 L 381.753906 543.941406 C 369.941406 538.425781 356.40625 538.425781 344.582031 543.941406 L 318.503906 556.121094 C 308.828125 560.652344 297.105469 557.753906 290.640625 549.25 L 273.03125 526.101562 C 265.183594 515.753906 253.226562 509.457031 240.246094 508.8125 L 211.382812 507.375 C 200.613281 506.832031 191.816406 499.027344 189.996094 488.386719 L 185.035156 459.285156 C 182.863281 446.566406 175.253906 435.492188 164.164062 428.910156 L 138.960938 413.957031 C 129.746094 408.476562 125.582031 397.523438 128.871094 387.308594 L 137.957031 359.007812 C 141.894531 346.789062 140.289062 333.492188 133.5625 322.550781 L 118.007812 297.292969 C 112.398438 288.167969 113.808594 276.542969 121.445312 269.023438 L 142.460938 248.3125 C 151.625 239.296875 156.367188 226.746094 155.445312 213.910156 L 153.335938 184.332031 C 152.570312 173.589844 159.234375 163.925781 169.542969 160.820312 L 197.375 152.433594 C 209.765625 148.695312 219.839844 139.738281 224.988281 127.851562 L 236.65625 100.964844 C 240.316406 92.539062 248.742188 87.207031 257.695312 87.207031 C 259.117188 87.207031 260.5625 87.351562 262.011719 87.644531 L 290.273438 93.1875 C 303.046875 95.691406 316.1875 92.4375 326.328125 84.261719 L 348.816406 66.101562 C 357.128906 59.386719 369.199219 59.386719 377.519531 66.101562 L 400.011719 84.25 C 410.148438 92.441406 423.292969 95.695312 436.0625 93.175781 L 464.308594 87.632812 C 474.777344 85.578125 485.4375 91.1875 489.683594 100.96875 L 501.339844 127.855469 C 506.488281 139.730469 516.558594 148.699219 528.953125 152.4375 L 556.800781 160.824219 C 567.113281 163.929688 573.773438 173.59375 573.015625 184.328125 L 570.90625 213.914062 C 569.984375 226.75 574.722656 239.289062 583.886719 248.316406 L 604.898438 269.027344 C 612.535156 276.546875 613.945312 288.175781 608.335938 297.300781 Z M 626.273438 308.324219 C 637.058594 290.796875 634.347656 268.46875 619.6875 254.023438 L 598.660156 233.3125 C 593.890625 228.613281 591.433594 222.082031 591.90625 215.410156 L 594.015625 185.820312 C 595.476562 165.203125 582.679688 146.625 562.886719 140.660156 L 535.035156 132.273438 C 528.585938 130.324219 523.34375 125.660156 520.667969 119.472656 L 509.019531 92.578125 C 500.867188 73.789062 480.371094 63 460.257812 66.953125 L 432.011719 72.5 C 425.363281 73.804688 418.53125 72.105469 413.25 67.851562 L 390.777344 49.691406 C 374.78125 36.785156 351.578125 36.785156 335.582031 49.691406 L 313.109375 67.851562 C 307.828125 72.105469 300.996094 73.804688 294.347656 72.5 L 266.085938 66.953125 C 245.992188 63.007812 225.492188 73.792969 217.339844 92.578125 L 205.675781 119.464844 C 203 125.648438 197.765625 130.316406 191.308594 132.261719 L 163.472656 140.648438 C 143.6875 146.613281 130.886719 165.191406 132.347656 185.8125 L 134.457031 215.398438 C 134.933594 222.074219 132.46875 228.605469 127.699219 233.304688 L 106.660156 254.011719 C 92.019531 268.457031 89.304688 290.789062 100.09375 308.3125 L 115.640625 333.578125 C 119.140625 339.269531 119.972656 346.195312 117.933594 352.554688 L 108.835938 380.839844 C 102.53125 400.472656 110.496094 421.527344 128.230469 432.050781 L 153.421875 447.003906 C 159.203125 450.441406 163.148438 456.210938 164.28125 462.816406 L 169.246094 491.917969 C 172.734375 512.371094 189.640625 527.371094 210.367188 528.410156 L 239.234375 529.835938 C 245.972656 530.171875 252.1875 533.453125 256.285156 538.839844 L 273.890625 561.988281 C 282.371094 573.152344 295.566406 579.289062 308.992188 579.289062 C 315.234375 579.289062 321.527344 577.957031 327.429688 575.207031 L 353.527344 563.03125 C 359.664062 560.160156 366.71875 560.160156 372.855469 563.03125 L 398.953125 575.207031 C 417.542969 583.894531 440.078125 578.339844 452.492188 561.988281 L 470.085938 538.839844 C 474.195312 533.453125 480.40625 530.179688 487.148438 529.851562 L 516.023438 528.414062 C 536.734375 527.375 553.640625 512.375 557.148438 491.925781 L 562.097656 462.839844 C 563.230469 456.214844 567.179688 450.449219 572.964844 447.027344 L 598.152344 432.070312 C 615.890625 421.539062 623.855469 400.484375 617.546875 380.851562 L 608.449219 352.5625 C 606.410156 346.207031 607.234375 339.28125 610.738281 333.589844 Z M 626.273438 308.324219 " fill-opacity="1" fill-rule="nonzero"/><g clip-path="url(#1ce1936ad5)"><g clip-path="url(#f89b29f405)"><rect x="-165" width="1080" fill="#00339f" height="1079.999992" y="-164.999999" fill-opacity="1"/><path fill="#00339f" d="M 26.09375 -27.398438 L 700.257812 -27.398438 L 700.257812 646.710938 L 26.09375 646.710938 Z M 26.09375 -27.398438 " fill-opacity="1" fill-rule="nonzero"/></g></g><g transform="matrix(1, 0, 0, 1, 143, 613)"><g clip-path="url(#ae038dfae8)"><g fill="#00339f" fill-opacity="1"><g transform="translate(8.366175, 108.083875)"><g><path d="M 75.109375 -78.703125 L 75.109375 0 L 55.9375 0 L 55.9375 -32.40625 L 26.125 -32.40625 L 26.125 0 L 6.953125 0 L 6.953125 -78.703125 L 26.125 -78.703125 L 26.125 -47.875 L 55.9375 -47.875 L 55.9375 -78.703125 Z M 75.109375 -78.703125 "/></g></g></g><g fill="#00339f" fill-opacity="1"><g transform="translate(90.270268, 108.083875)"><g><path d="M 26.125 -78.703125 L 26.125 0 L 6.953125 0 L 6.953125 -78.703125 Z M 26.125 -78.703125 "/></g></g></g><g fill="#00339f" fill-opacity="1"><g transform="translate(123.323236, 108.083875)"><g><path d="M 59.1875 -53.8125 C 57.769531 -56.425781 55.734375 -58.425781 53.078125 -59.8125 C 50.429688 -61.195312 47.3125 -61.890625 43.71875 -61.890625 C 37.519531 -61.890625 32.550781 -59.851562 28.8125 -55.78125 C 25.070312 -51.707031 23.203125 -46.269531 23.203125 -39.46875 C 23.203125 -32.21875 25.164062 -26.554688 29.09375 -22.484375 C 33.019531 -18.410156 38.421875 -16.375 45.296875 -16.375 C 50.003906 -16.375 53.984375 -17.566406 57.234375 -19.953125 C 60.484375 -22.347656 62.851562 -25.785156 64.34375 -30.265625 L 40.015625 -30.265625 L 40.015625 -44.390625 L 81.734375 -44.390625 L 81.734375 -26.5625 C 80.304688 -21.78125 77.890625 -17.332031 74.484375 -13.21875 C 71.085938 -9.113281 66.773438 -5.789062 61.546875 -3.25 C 56.316406 -0.707031 50.410156 0.5625 43.828125 0.5625 C 36.054688 0.5625 29.125 -1.132812 23.03125 -4.53125 C 16.945312 -7.9375 12.203125 -12.664062 8.796875 -18.71875 C 5.398438 -24.769531 3.703125 -31.6875 3.703125 -39.46875 C 3.703125 -47.238281 5.398438 -54.164062 8.796875 -60.25 C 12.203125 -66.34375 16.929688 -71.085938 22.984375 -74.484375 C 29.035156 -77.890625 35.945312 -79.59375 43.71875 -79.59375 C 53.132812 -79.59375 61.078125 -77.3125 67.546875 -72.75 C 74.015625 -68.195312 78.289062 -61.882812 80.375 -53.8125 Z M 59.1875 -53.8125 "/></g></g></g><g fill="#00339f" fill-opacity="1"><g transform="translate(208.700689, 108.083875)"><g><path d="M 26.125 -63.34375 L 26.125 -47.421875 L 51.796875 -47.421875 L 51.796875 -32.625 L 26.125 -32.625 L 26.125 -15.359375 L 55.15625 -15.359375 L 55.15625 0 L 6.953125 0 L 6.953125 -78.703125 L 55.15625 -78.703125 L 55.15625 -63.34375 Z M 26.125 -63.34375 "/></g></g></g><g fill="#00339f" fill-opacity="1"><g transform="translate(269.316442, 108.083875)"><g><path d="M 77.359375 0 L 58.1875 0 L 26.125 -48.546875 L 26.125 0 L 6.953125 0 L 6.953125 -78.703125 L 26.125 -78.703125 L 58.1875 -29.9375 L 58.1875 -78.703125 L 77.359375 -78.703125 Z M 77.359375 0 "/></g></g></g><g fill="#00339f" fill-opacity="1"><g transform="translate(353.573438, 108.083875)"><g><path d="M 26.125 -78.703125 L 26.125 0 L 6.953125 0 L 6.953125 -78.703125 Z M 26.125 -78.703125 "/></g></g></g><g fill="#00339f" fill-opacity="1"><g transform="translate(386.626406, 108.083875)"><g><path d="M 35.421875 0.78125 C 29.671875 0.78125 24.515625 -0.148438 19.953125 -2.015625 C 15.390625 -3.890625 11.742188 -6.65625 9.015625 -10.3125 C 6.296875 -13.976562 4.859375 -18.390625 4.703125 -23.546875 L 25.109375 -23.546875 C 25.410156 -20.628906 26.421875 -18.40625 28.140625 -16.875 C 29.859375 -15.34375 32.097656 -14.578125 34.859375 -14.578125 C 37.703125 -14.578125 39.945312 -15.226562 41.59375 -16.53125 C 43.238281 -17.84375 44.0625 -19.65625 44.0625 -21.96875 C 44.0625 -23.914062 43.40625 -25.523438 42.09375 -26.796875 C 40.789062 -28.066406 39.1875 -29.113281 37.28125 -29.9375 C 35.375 -30.757812 32.664062 -31.691406 29.15625 -32.734375 C 24.070312 -34.304688 19.921875 -35.875 16.703125 -37.4375 C 13.492188 -39.007812 10.726562 -41.328125 8.40625 -44.390625 C 6.09375 -47.453125 4.9375 -51.453125 4.9375 -56.390625 C 4.9375 -63.710938 7.585938 -69.445312 12.890625 -73.59375 C 18.203125 -77.75 25.117188 -79.828125 33.640625 -79.828125 C 42.304688 -79.828125 49.289062 -77.75 54.59375 -73.59375 C 59.90625 -69.445312 62.75 -63.675781 63.125 -56.28125 L 42.375 -56.28125 C 42.226562 -58.820312 41.296875 -60.820312 39.578125 -62.28125 C 37.859375 -63.738281 35.648438 -64.46875 32.953125 -64.46875 C 30.640625 -64.46875 28.769531 -63.847656 27.34375 -62.609375 C 25.925781 -61.378906 25.21875 -59.601562 25.21875 -57.28125 C 25.21875 -54.738281 26.414062 -52.757812 28.8125 -51.34375 C 31.207031 -49.925781 34.941406 -48.394531 40.015625 -46.75 C 45.097656 -45.03125 49.226562 -43.382812 52.40625 -41.8125 C 55.582031 -40.25 58.328125 -37.972656 60.640625 -34.984375 C 62.960938 -31.992188 64.125 -28.144531 64.125 -23.4375 C 64.125 -18.945312 62.984375 -14.867188 60.703125 -11.203125 C 58.421875 -7.546875 55.113281 -4.632812 50.78125 -2.46875 C 46.445312 -0.300781 41.328125 0.78125 35.421875 0.78125 Z M 35.421875 0.78125 "/></g></g></g></g></g></g></g></svg>