<svg xmlns="http://www.w3.org/2000/svg" xmlns:xlink="http://www.w3.org/1999/xlink" width="1000" zoomAndPan="magnify" viewBox="0 0 750 749.999995" height="1000" preserveAspectRatio="xMidYMid meet" version="1.0"><defs><clipPath id="47cd051fd3"><path d="M 58.875 58.875 L 691.125 58.875 L 691.125 691.125 L 58.875 691.125 Z M 58.875 58.875 " clip-rule="nonzero"/></clipPath></defs><path fill="#00339f" d="M 169.046875 414.722656 C 163.347656 414.722656 158.371094 413.539062 154.117188 411.171875 C 149.859375 408.804688 146.558594 405.464844 144.207031 401.15625 C 141.855469 396.847656 140.679688 391.828125 140.679688 386.09375 L 140.679688 364.082031 C 140.679688 358.316406 141.855469 353.28125 144.207031 348.992188 C 146.558594 344.703125 149.859375 341.371094 154.117188 339.003906 C 158.371094 336.636719 163.347656 335.453125 169.046875 335.453125 C 174.746094 335.453125 179.71875 336.636719 183.976562 339.003906 C 188.230469 341.375 191.535156 344.703125 193.886719 348.992188 C 196.238281 353.28125 197.410156 358.316406 197.410156 364.082031 L 197.410156 386.09375 C 197.410156 391.828125 196.234375 396.847656 193.886719 401.15625 C 191.535156 405.464844 188.234375 408.804688 183.976562 411.171875 C 179.71875 413.539062 174.746094 414.722656 169.046875 414.722656 Z M 169.046875 400.085938 C 173.035156 400.085938 176.230469 398.84375 178.632812 396.347656 C 181.039062 393.855469 182.242188 390.5625 182.242188 386.464844 L 182.242188 363.707031 C 182.242188 359.578125 181.039062 356.273438 178.632812 353.796875 C 176.230469 351.324219 173.03125 350.085938 169.046875 350.085938 C 165.0625 350.085938 161.863281 351.324219 159.457031 353.796875 C 157.054688 356.273438 155.851562 359.574219 155.851562 363.707031 L 155.851562 386.464844 C 155.851562 390.558594 157.054688 393.855469 159.457031 396.347656 C 161.863281 398.84375 165.058594 400.085938 169.046875 400.085938 Z M 169.046875 400.085938 " fill-opacity="1" fill-rule="nonzero"/><path fill="#00339f" d="M 211.835938 413.921875 L 211.835938 336.195312 L 226.472656 336.195312 L 226.472656 413.921875 Z M 217.65625 382.667969 L 217.65625 368.570312 L 244.6875 368.570312 C 246.96875 368.570312 248.789062 367.734375 250.164062 366.058594 C 251.535156 364.382812 252.238281 362.175781 252.273438 359.433594 C 252.273438 356.691406 251.585938 354.484375 250.21875 352.808594 C 248.84375 351.136719 247.003906 350.296875 244.6875 350.296875 L 217.65625 350.296875 L 217.65625 336.195312 L 245.863281 336.195312 C 250.171875 336.195312 253.9375 337.15625 257.160156 339.082031 C 260.382812 341.003906 262.886719 343.710938 264.664062 347.203125 C 266.445312 350.691406 267.335938 354.769531 267.335938 359.433594 C 267.335938 364.097656 266.4375 368.175781 264.636719 371.664062 C 262.835938 375.15625 260.339844 377.859375 257.132812 379.785156 C 253.929688 381.707031 250.171875 382.667969 245.863281 382.667969 Z M 252.859375 413.921875 L 234.003906 380.265625 L 249.65625 377.808594 L 270.59375 413.921875 Z M 252.859375 413.921875 " fill-opacity="1" fill-rule="nonzero"/><path fill="#00339f" d="M 282.078125 336.25 L 297.25 336.25 L 297.25 413.921875 L 282.078125 413.921875 Z M 282.078125 336.25 " fill-opacity="1" fill-rule="nonzero"/><path fill="#00339f" d="M 341.589844 370.492188 L 368.515625 370.492188 L 368.515625 385.664062 C 368.515625 391.503906 367.339844 396.605469 364.988281 400.96875 C 362.636719 405.332031 359.355469 408.714844 355.132812 411.117188 C 350.914062 413.519531 345.953125 414.722656 340.257812 414.722656 C 334.5625 414.722656 329.511719 413.59375 325.222656 411.332031 C 320.929688 409.070312 317.601562 405.882812 315.234375 401.769531 C 312.863281 397.65625 311.679688 392.859375 311.679688 387.375 L 311.679688 364.457031 C 311.679688 358.617188 312.855469 353.523438 315.207031 349.179688 C 317.558594 344.835938 320.839844 341.460938 325.0625 339.058594 C 329.28125 336.65625 334.238281 335.453125 339.9375 335.453125 C 344.636719 335.453125 348.917969 336.414062 352.785156 338.335938 C 356.648438 340.261719 359.898438 342.949219 362.53125 346.402344 C 365.167969 349.859375 366.945312 353.902344 367.875 358.527344 L 352.0625 358.527344 C 351.28125 356.003906 349.722656 354.050781 347.390625 352.679688 C 345.058594 351.308594 342.574219 350.625 339.9375 350.625 C 335.984375 350.625 332.816406 351.886719 330.429688 354.417969 C 328.039062 356.945312 326.851562 360.292969 326.851562 364.460938 L 326.851562 387.375 C 326.851562 391.046875 328.078125 393.992188 330.535156 396.214844 C 332.992188 398.441406 336.234375 399.554688 340.257812 399.554688 C 344.28125 399.554688 347.378906 398.351562 349.765625 395.949219 C 352.152344 393.546875 353.347656 390.1875 353.347656 385.878906 L 353.347656 384.597656 L 341.59375 384.597656 L 341.59375 370.496094 Z M 341.589844 370.492188 " fill-opacity="1" fill-rule="nonzero"/><path fill="#00339f" d="M 381.863281 336.25 L 397.035156 336.25 L 397.035156 413.921875 L 381.863281 413.921875 Z M 381.863281 336.25 " fill-opacity="1" fill-rule="nonzero"/><path fill="#00339f" d="M 413.0625 413.871094 L 413.0625 336.253906 L 430.957031 336.253906 L 459.855469 395.761719 L 458.574219 397.152344 L 458.574219 336.253906 L 472.570312 336.253906 L 472.570312 413.871094 L 454.566406 413.871094 L 425.773438 355.269531 L 427.054688 353.878906 L 427.054688 413.871094 L 413.058594 413.871094 Z M 413.0625 413.871094 " fill-opacity="1" fill-rule="nonzero"/><path fill="#00339f" d="M 481.117188 413.921875 L 510.816406 336.25 L 520.113281 336.25 L 549.8125 413.921875 L 534.054688 413.921875 L 515.464844 360.878906 L 496.871094 413.921875 L 481.113281 413.921875 Z M 495.378906 401.472656 L 495.378906 387.375 L 536.246094 387.375 L 536.246094 401.472656 Z M 495.378906 401.472656 " fill-opacity="1" fill-rule="nonzero"/><path fill="#00339f" d="M 559.429688 413.921875 L 559.429688 336.25 L 574.066406 336.25 L 574.066406 413.921875 Z M 565.945312 413.921875 L 565.945312 399.820312 L 611.457031 399.820312 L 611.457031 413.921875 Z M 565.945312 413.921875 " fill-opacity="1" fill-rule="nonzero"/><g clip-path="url(#47cd051fd3)"><path fill="#00339f" d="M 375 691.125 C 290.5625 691.125 211.171875 658.242188 151.464844 598.535156 C 91.757812 538.828125 58.875 459.4375 58.875 375 C 58.875 290.5625 91.757812 211.171875 151.464844 151.464844 C 211.171875 91.757812 290.5625 58.875 375 58.875 C 459.4375 58.875 538.824219 91.757812 598.535156 151.464844 C 658.242188 211.171875 691.125 290.5625 691.125 375 C 691.125 459.4375 658.242188 538.824219 598.535156 598.535156 C 538.828125 658.242188 459.4375 691.125 375 691.125 Z M 375 68.972656 C 206.253906 68.972656 68.972656 206.253906 68.972656 375 C 68.972656 543.746094 206.253906 681.027344 375 681.027344 C 543.746094 681.027344 681.027344 543.746094 681.027344 375 C 681.027344 206.253906 543.746094 68.972656 375 68.972656 Z M 375 68.972656 " fill-opacity="1" fill-rule="nonzero"/></g><path fill="#00339f" d="M 183.085938 313.609375 C 209.820312 233.980469 285.148438 176.453125 373.667969 176.453125 C 462.183594 176.453125 537.515625 233.980469 564.25 313.609375 L 574.601562 313.609375 C 547.5 228.464844 467.675781 166.609375 373.667969 166.609375 C 279.660156 166.609375 199.832031 228.464844 172.730469 313.609375 Z M 183.085938 313.609375 " fill-opacity="1" fill-rule="nonzero"/><path fill="#00339f" d="M 564.25 441.242188 C 537.515625 520.871094 462.183594 578.398438 373.667969 578.398438 C 285.148438 578.398438 209.820312 520.871094 183.085938 441.242188 L 172.730469 441.242188 C 199.835938 526.390625 279.660156 588.246094 373.667969 588.246094 C 467.675781 588.246094 547.5 526.390625 574.601562 441.242188 Z M 564.25 441.242188 " fill-opacity="1" fill-rule="nonzero"/><path fill="#00339f" d="M 241.359375 186.777344 C 238.316406 188.859375 235.226562 190.046875 232.089844 190.335938 C 228.953125 190.625 225.96875 190.050781 223.140625 188.609375 C 220.3125 187.167969 217.851562 184.914062 215.757812 181.855469 L 207.71875 170.105469 C 205.613281 167.023438 204.402344 163.910156 204.089844 160.761719 C 203.777344 157.609375 204.324219 154.628906 205.734375 151.808594 C 207.140625 148.992188 209.363281 146.542969 212.40625 144.460938 C 215.449219 142.378906 218.539062 141.195312 221.671875 140.902344 C 224.808594 140.613281 227.792969 141.183594 230.613281 142.613281 C 233.433594 144.046875 235.898438 146.300781 238.007812 149.382812 L 246.042969 161.132812 C 248.140625 164.191406 249.34375 167.304688 249.664062 170.464844 C 249.984375 173.625 249.4375 176.609375 248.035156 179.429688 C 246.625 182.25 244.402344 184.699219 241.363281 186.78125 Z M 236.011719 178.964844 C 238.140625 177.507812 239.394531 175.671875 239.765625 173.464844 C 240.140625 171.253906 239.578125 169.058594 238.082031 166.871094 L 229.769531 154.71875 C 228.261719 152.515625 226.414062 151.1875 224.222656 150.746094 C 222.035156 150.300781 219.878906 150.808594 217.75 152.265625 C 215.621094 153.722656 214.367188 155.550781 213.984375 157.75 C 213.605469 159.949219 214.171875 162.152344 215.679688 164.355469 L 223.992188 176.503906 C 225.488281 178.6875 227.332031 180.007812 229.527344 180.460938 C 231.722656 180.914062 233.882812 180.414062 236.011719 178.957031 Z M 236.011719 178.964844 " fill-opacity="1" fill-rule="nonzero"/><path fill="#00339f" d="M 266.113281 170.6875 L 246.617188 124.347656 L 255.34375 120.671875 L 274.839844 167.015625 Z M 261.746094 150.59375 L 258.210938 142.1875 L 274.324219 135.40625 C 275.683594 134.832031 276.5625 133.875 276.960938 132.535156 C 277.359375 131.191406 277.222656 129.699219 276.554688 128.058594 C 275.867188 126.421875 274.902344 125.277344 273.667969 124.625 C 272.433594 123.96875 271.121094 123.933594 269.742188 124.515625 L 253.628906 131.296875 L 250.089844 122.886719 L 266.90625 115.808594 C 269.476562 114.726562 271.964844 114.355469 274.367188 114.695312 C 276.769531 115.03125 278.941406 116.019531 280.878906 117.652344 C 282.816406 119.285156 284.371094 121.492188 285.539062 124.277344 C 286.710938 127.058594 287.199219 129.714844 287 132.246094 C 286.804688 134.777344 285.992188 137.019531 284.5625 138.96875 C 283.132812 140.917969 281.132812 142.4375 278.5625 143.515625 L 261.746094 150.589844 Z M 290.574219 160.398438 L 270.886719 145.0625 L 279.605469 139.671875 L 301.148438 155.949219 Z M 290.574219 160.398438 " fill-opacity="1" fill-rule="nonzero"/><path fill="#00339f" d="M 308.070312 102.804688 L 320.414062 151.503906 L 310.898438 153.914062 L 298.558594 105.210938 Z M 308.070312 102.804688 " fill-opacity="1" fill-rule="nonzero"/><path fill="#00339f" d="M 348.332031 118.605469 L 365.664062 116.878906 L 366.636719 126.644531 C 367.011719 130.402344 366.582031 133.761719 365.347656 136.71875 C 364.117188 139.675781 362.21875 142.066406 359.65625 143.886719 C 357.09375 145.703125 353.980469 146.796875 350.3125 147.164062 C 346.621094 147.53125 343.324219 147.128906 340.417969 145.945312 C 337.511719 144.765625 335.164062 142.925781 333.375 140.429688 C 331.585938 137.933594 330.515625 134.921875 330.164062 131.390625 L 328.691406 116.640625 C 328.316406 112.882812 328.746094 109.53125 329.980469 106.582031 C 331.210938 103.636719 333.113281 101.25 335.671875 99.433594 C 338.234375 97.613281 341.347656 96.523438 345.015625 96.15625 C 348.039062 95.855469 350.859375 96.199219 353.46875 97.1875 C 356.082031 98.175781 358.34375 99.699219 360.261719 101.75 C 362.179688 103.804688 363.585938 106.292969 364.480469 109.214844 L 354.300781 110.230469 C 353.636719 108.652344 352.507812 107.496094 350.917969 106.765625 C 349.328125 106.03125 347.6875 105.75 345.988281 105.921875 C 343.445312 106.175781 341.484375 107.195312 340.113281 108.972656 C 338.738281 110.753906 338.1875 112.984375 338.453125 115.664062 L 339.925781 130.414062 C 340.160156 132.777344 341.140625 134.59375 342.867188 135.871094 C 344.589844 137.144531 346.746094 137.652344 349.339844 137.394531 C 351.882812 137.140625 353.847656 136.164062 355.226562 134.464844 C 356.609375 132.765625 357.160156 130.527344 356.886719 127.753906 L 356.804688 126.925781 L 349.238281 127.679688 L 348.335938 118.601562 Z M 348.332031 118.605469 " fill-opacity="1" fill-rule="nonzero"/><path fill="#00339f" d="M 391.769531 95.789062 L 389.425781 145.980469 L 379.625 145.519531 L 381.96875 95.335938 L 391.769531 95.792969 Z M 391.769531 95.789062 " fill-opacity="1" fill-rule="nonzero"/><path fill="#00339f" d="M 402.214844 146.414062 L 412.382812 97.246094 L 423.71875 99.589844 L 434.234375 141.070312 L 433.238281 141.78125 L 441.210938 103.207031 L 450.078125 105.039062 L 439.914062 154.207031 L 428.511719 151.847656 L 417.945312 110.957031 L 418.941406 110.246094 L 411.082031 148.246094 L 402.21875 146.414062 Z M 402.214844 146.414062 " fill-opacity="1" fill-rule="nonzero"/><path fill="#00339f" d="M 447.027344 156.179688 L 484.792969 117.875 L 490.296875 120.289062 L 487.726562 174.015625 L 478.394531 169.925781 L 481.152344 133.671875 L 456.367188 160.269531 Z M 458.707031 152.511719 L 462.367188 144.15625 L 486.578125 154.765625 L 482.917969 163.121094 Z M 458.707031 152.511719 " fill-opacity="1" fill-rule="nonzero"/><path fill="#00339f" d="M 494.558594 178.671875 L 523.167969 137.367188 L 530.949219 142.757812 L 502.34375 184.0625 Z M 498.023438 181.070312 L 503.21875 173.570312 L 527.421875 190.335938 L 522.226562 197.835938 Z M 498.023438 181.070312 " fill-opacity="1" fill-rule="nonzero"/><path fill="#00339f" d="M 496.304688 579.003906 C 499.441406 577.066406 502.582031 576.027344 505.730469 575.882812 C 508.878906 575.742188 511.832031 576.457031 514.589844 578.03125 C 517.347656 579.605469 519.699219 581.96875 521.648438 585.125 L 529.125 597.238281 C 531.085938 600.414062 532.144531 603.582031 532.3125 606.742188 C 532.476562 609.902344 531.789062 612.859375 530.253906 615.609375 C 528.714844 618.355469 526.378906 620.699219 523.242188 622.636719 C 520.105469 624.570312 516.964844 625.613281 513.816406 625.753906 C 510.667969 625.894531 507.722656 625.1875 504.96875 623.621094 C 502.214844 622.058594 499.859375 619.691406 497.902344 616.511719 L 490.421875 604.398438 C 488.476562 601.242188 487.417969 598.078125 487.246094 594.910156 C 487.078125 591.738281 487.757812 588.78125 489.296875 586.03125 C 490.832031 583.28125 493.171875 580.9375 496.304688 579.003906 Z M 501.277344 587.058594 C 499.082031 588.410156 497.746094 590.183594 497.269531 592.375 C 496.792969 594.5625 497.253906 596.785156 498.644531 599.039062 L 506.375 611.5625 C 507.777344 613.835938 509.558594 615.25 511.726562 615.792969 C 513.890625 616.339844 516.070312 615.9375 518.265625 614.578125 C 520.460938 613.222656 521.796875 611.457031 522.28125 609.277344 C 522.761719 607.097656 522.300781 604.875 520.898438 602.601562 L 513.167969 590.078125 C 511.777344 587.820312 509.996094 586.417969 507.828125 585.859375 C 505.65625 585.304688 503.472656 585.703125 501.277344 587.0625 Z M 501.277344 587.058594 " fill-opacity="1" fill-rule="nonzero"/><path fill="#00339f" d="M 445.902344 603.054688 L 464.851562 619.289062 L 455.894531 624.265625 L 435.132812 607.003906 Z M 474.242188 614.1875 L 477.382812 622.75 L 460.96875 628.769531 C 459.585938 629.277344 458.664062 630.195312 458.207031 631.515625 C 457.746094 632.835938 457.808594 634.332031 458.398438 636.007812 C 459.011719 637.671875 459.917969 638.859375 461.125 639.570312 C 462.328125 640.28125 463.636719 640.378906 465.039062 639.863281 L 481.453125 633.84375 L 484.597656 642.40625 L 467.46875 648.691406 C 464.851562 649.648438 462.347656 649.90625 459.964844 649.457031 C 457.578125 649.007812 455.457031 647.917969 453.59375 646.199219 C 451.734375 644.476562 450.289062 642.195312 449.246094 639.363281 C 448.207031 636.527344 447.84375 633.855469 448.164062 631.332031 C 448.476562 628.8125 449.390625 626.613281 450.910156 624.730469 C 452.429688 622.847656 454.496094 621.425781 457.113281 620.46875 L 474.242188 614.183594 Z M 470.816406 593.914062 L 488.132812 641.113281 L 479.242188 644.375 L 461.929688 597.171875 Z M 470.816406 593.914062 " fill-opacity="1" fill-rule="nonzero"/><path fill="#00339f" d="M 425.75 659.773438 L 415.679688 610.546875 L 425.296875 608.582031 L 435.363281 657.804688 Z M 425.75 659.773438 " fill-opacity="1" fill-rule="nonzero"/><path fill="#00339f" d="M 386.269531 642.121094 L 368.878906 643.042969 L 368.359375 633.246094 C 368.160156 629.472656 368.742188 626.136719 370.109375 623.238281 C 371.476562 620.339844 373.484375 618.039062 376.128906 616.34375 C 378.773438 614.644531 381.933594 613.699219 385.613281 613.503906 C 389.316406 613.308594 392.59375 613.863281 395.441406 615.179688 C 398.289062 616.492188 400.550781 618.4375 402.222656 621.011719 C 403.894531 623.589844 404.820312 626.648438 405.011719 630.191406 L 405.796875 644.996094 C 405.996094 648.765625 405.414062 652.097656 404.042969 654.984375 C 402.675781 657.871094 400.667969 660.164062 398.027344 661.859375 C 395.382812 663.558594 392.222656 664.503906 388.539062 664.699219 C 385.503906 664.859375 382.707031 664.386719 380.144531 663.277344 C 377.582031 662.167969 375.390625 660.542969 373.570312 658.402344 C 371.75 656.261719 370.460938 653.710938 369.707031 650.753906 L 379.921875 650.210938 C 380.515625 651.816406 381.585938 653.023438 383.140625 653.828125 C 384.691406 654.632812 386.320312 654.992188 388.023438 654.902344 C 390.578125 654.765625 392.582031 653.839844 394.035156 652.125 C 395.488281 650.410156 396.148438 648.207031 396.003906 645.515625 L 395.214844 630.710938 C 395.089844 628.34375 394.191406 626.484375 392.53125 625.128906 C 390.867188 623.773438 388.734375 623.167969 386.136719 623.304688 C 383.582031 623.441406 381.578125 624.328125 380.121094 625.960938 C 378.660156 627.59375 378.003906 629.804688 378.152344 632.589844 L 378.199219 633.417969 L 385.789062 633.011719 L 386.273438 642.121094 Z M 386.269531 642.121094 " fill-opacity="1" fill-rule="nonzero"/><path fill="#00339f" d="M 341.824219 662.898438 L 346.496094 612.875 L 356.265625 613.789062 L 351.59375 663.8125 Z M 341.824219 662.898438 " fill-opacity="1" fill-rule="nonzero"/><path fill="#00339f" d="M 333.738281 611.839844 L 321.285156 660.480469 L 310.070312 657.609375 L 301.511719 615.683594 L 302.535156 615.019531 L 292.765625 653.175781 L 283.996094 650.929688 L 296.449219 602.292969 L 307.730469 605.179688 L 316.367188 646.523438 L 315.339844 647.1875 L 324.96875 609.59375 Z M 333.738281 611.839844 " fill-opacity="1" fill-rule="nonzero"/><path fill="#00339f" d="M 289.433594 599.988281 L 249.914062 636.476562 L 244.527344 633.808594 L 249.613281 580.261719 L 258.746094 584.789062 L 254.289062 620.871094 L 280.296875 595.464844 L 289.429688 599.988281 Z M 277.59375 603.105469 L 273.542969 611.277344 L 249.859375 599.542969 L 253.90625 591.371094 Z M 277.59375 603.105469 " fill-opacity="1" fill-rule="nonzero"/><path fill="#00339f" d="M 242.984375 575.277344 L 212.503906 615.21875 L 204.976562 609.476562 L 235.457031 569.539062 L 242.984375 575.28125 Z M 239.632812 572.722656 L 234.097656 579.972656 L 210.695312 562.113281 L 216.230469 554.859375 Z M 239.632812 572.722656 " fill-opacity="1" fill-rule="nonzero"/><path fill="#00339f" d="M 116.761719 305.652344 L 636.25 305.652344 L 636.25 315.605469 L 116.761719 315.605469 Z M 116.761719 305.652344 " fill-opacity="1" fill-rule="nonzero"/><path fill="#00339f" d="M 113.445312 438.316406 L 632.933594 438.316406 L 632.933594 448.265625 L 113.445312 448.265625 Z M 113.445312 438.316406 " fill-opacity="1" fill-rule="nonzero"/></svg>