<svg xmlns="http://www.w3.org/2000/svg" xmlns:xlink="http://www.w3.org/1999/xlink" width="1000" zoomAndPan="magnify" viewBox="0 0 750 749.999995" height="1000" preserveAspectRatio="xMidYMid meet" version="1.0"><defs><clipPath id="39769b6890"><path d="M 384 54.769531 L 718.878906 54.769531 L 718.878906 694 L 384 694 Z M 384 54.769531 " clip-rule="nonzero"/></clipPath><clipPath id="dd47dfdfe5"><path d="M 31.128906 54.769531 L 366 54.769531 L 366 694 L 31.128906 694 Z M 31.128906 54.769531 " clip-rule="nonzero"/></clipPath></defs><path fill="#00339f" d="M 372.316406 132.367188 C 372.613281 131.820312 373.183594 131.480469 373.804688 131.480469 C 374.425781 131.480469 374.996094 131.820312 375.292969 132.367188 L 391.433594 162.183594 L 424.78125 168.320312 C 425.390625 168.433594 425.890625 168.871094 426.082031 169.464844 C 426.277344 170.054688 426.128906 170.703125 425.699219 171.152344 L 402.332031 195.71875 L 406.796875 229.332031 C 406.878906 229.945312 406.617188 230.558594 406.113281 230.921875 C 405.613281 231.285156 404.949219 231.347656 404.390625 231.078125 L 373.804688 216.445312 L 343.21875 231.078125 C 342.65625 231.347656 341.996094 231.285156 341.492188 230.921875 C 340.992188 230.558594 340.730469 229.945312 340.8125 229.332031 L 345.277344 195.71875 L 321.90625 171.152344 C 321.480469 170.703125 321.332031 170.054688 321.523438 169.464844 C 321.714844 168.871094 322.214844 168.433594 322.828125 168.320312 L 356.171875 162.183594 Z M 372.316406 132.367188 " fill-opacity="1" fill-rule="evenodd"/><path fill="#00339f" d="M 260.097656 187.078125 C 260.296875 186.707031 260.683594 186.476562 261.105469 186.476562 C 261.523438 186.476562 261.910156 186.707031 262.109375 187.078125 L 273.027344 207.242188 L 295.578125 211.394531 C 295.992188 211.46875 296.332031 211.765625 296.460938 212.164062 C 296.589844 212.566406 296.492188 213.003906 296.199219 213.308594 L 280.398438 229.921875 L 283.417969 252.652344 C 283.472656 253.066406 283.296875 253.480469 282.957031 253.726562 C 282.617188 253.976562 282.167969 254.015625 281.789062 253.835938 L 261.105469 243.9375 L 240.421875 253.835938 C 240.042969 254.015625 239.59375 253.976562 239.253906 253.726562 C 238.914062 253.480469 238.738281 253.066406 238.792969 252.652344 L 241.8125 229.921875 L 226.007812 213.308594 C 225.71875 213.003906 225.621094 212.566406 225.75 212.164062 C 225.878906 211.765625 226.21875 211.46875 226.628906 211.394531 L 249.183594 207.242188 Z M 260.097656 187.078125 " fill-opacity="1" fill-rule="evenodd"/><path fill="#00339f" d="M 485.496094 187.078125 C 485.695312 186.707031 486.082031 186.476562 486.503906 186.476562 C 486.921875 186.476562 487.308594 186.707031 487.507812 187.078125 L 498.425781 207.242188 L 520.976562 211.394531 C 521.390625 211.46875 521.730469 211.765625 521.859375 212.164062 C 521.988281 212.566406 521.890625 213.003906 521.597656 213.308594 L 505.796875 229.921875 L 508.816406 252.652344 C 508.871094 253.066406 508.695312 253.480469 508.355469 253.726562 C 508.015625 253.976562 507.566406 254.015625 507.1875 253.835938 L 486.503906 243.9375 L 465.820312 253.835938 C 465.441406 254.015625 464.992188 253.976562 464.652344 253.726562 C 464.3125 253.480469 464.136719 253.066406 464.191406 252.652344 L 467.210938 229.921875 L 451.40625 213.308594 C 451.117188 213.003906 451.019531 212.566406 451.148438 212.164062 C 451.277344 211.765625 451.617188 211.46875 452.027344 211.394531 L 474.582031 207.242188 Z M 485.496094 187.078125 " fill-opacity="1" fill-rule="evenodd"/><path fill="#00339f" d="M 479.210938 391.386719 C 473.886719 391.386719 469.292969 390.640625 465.429688 389.144531 C 461.5625 387.648438 458.371094 385.570312 455.855469 382.90625 C 453.339844 380.246094 451.480469 377.074219 450.277344 373.390625 C 449.074219 369.707031 448.472656 365.640625 448.472656 361.191406 L 448.472656 314.039062 L 465.539062 314.039062 L 465.539062 359.769531 C 465.539062 362.832031 465.882812 365.441406 466.578125 367.589844 C 467.269531 369.742188 468.21875 371.492188 469.421875 372.84375 C 470.625 374.191406 472.082031 375.160156 473.796875 375.742188 C 475.511719 376.324219 477.390625 376.617188 479.429688 376.617188 C 483.589844 376.617188 486.960938 375.339844 489.550781 372.789062 C 492.140625 370.234375 493.433594 365.894531 493.433594 359.769531 L 493.433594 314.039062 L 510.5 314.039062 L 510.5 361.191406 C 510.5 365.640625 509.882812 369.726562 508.640625 373.445312 C 507.402344 377.164062 505.503906 380.355469 502.953125 383.015625 C 500.398438 385.679688 497.152344 387.738281 493.214844 389.199219 C 489.277344 390.65625 484.609375 391.386719 479.210938 391.386719 Z M 168.183594 313.164062 C 179.488281 313.164062 188.167969 315.152344 194.222656 319.128906 C 200.277344 323.101562 203.300781 329.609375 203.300781 338.65625 C 203.300781 347.773438 200.238281 354.355469 194.113281 358.402344 C 187.988281 362.449219 179.234375 364.472656 167.855469 364.472656 L 162.496094 364.472656 L 162.496094 389.855469 L 145.429688 389.855469 L 145.429688 315.132812 C 149.148438 314.40625 153.085938 313.894531 157.246094 313.601562 C 161.402344 313.308594 165.046875 313.164062 168.183594 313.164062 Z M 422.652344 314.039062 L 439.71875 314.039062 L 439.71875 389.855469 L 422.652344 389.855469 Z M 273.539062 389.855469 L 273.539062 314.039062 L 324.738281 314.039062 L 324.738281 328.371094 L 290.605469 328.371094 L 290.605469 343.25 L 320.910156 343.25 L 320.910156 357.253906 L 290.605469 357.253906 L 290.605469 375.523438 L 327.253906 375.523438 L 327.253906 389.855469 Z M 230.433594 313.164062 C 241.8125 313.164062 250.527344 315.1875 256.582031 319.238281 C 262.632812 323.285156 265.660156 329.574219 265.660156 338.109375 C 265.660156 343.433594 264.441406 347.753906 261.996094 351.070312 C 259.554688 354.390625 256.035156 356.996094 251.4375 358.894531 C 252.972656 360.789062 254.574219 362.960938 256.253906 365.402344 C 257.929688 367.847656 259.589844 370.398438 261.230469 373.0625 C 262.871094 375.722656 264.457031 378.496094 265.988281 381.375 C 267.519531 384.257812 268.945312 387.082031 270.257812 389.855469 L 251.179688 389.855469 C 249.785156 387.375 248.378906 384.859375 246.949219 382.304688 C 245.523438 379.753906 244.058594 377.273438 242.558594 374.867188 C 241.054688 372.460938 239.574219 370.179688 238.109375 368.027344 C 236.644531 365.878906 235.179688 363.925781 233.714844 362.175781 L 225.292969 362.175781 L 225.292969 389.855469 L 208.226562 389.855469 L 208.226562 315.132812 C 211.945312 314.40625 215.792969 313.894531 219.769531 313.601562 C 223.742188 313.308594 227.296875 313.164062 230.433594 313.164062 Z M 352.308594 314.039062 C 353.625 316.445312 355.140625 319.417969 356.859375 322.957031 C 358.578125 326.492188 360.371094 330.324219 362.234375 334.441406 C 364.097656 338.5625 365.945312 342.777344 367.773438 347.078125 C 369.601562 351.382812 371.320312 355.429688 372.929688 359.222656 C 374.539062 355.429688 376.257812 351.382812 378.085938 347.078125 C 379.914062 342.777344 381.757812 338.5625 383.625 334.441406 C 385.488281 330.324219 387.28125 326.492188 389 322.957031 C 390.71875 319.417969 392.234375 316.445312 393.550781 314.039062 L 409.085938 314.039062 C 409.816406 319.074219 410.492188 324.707031 411.109375 330.941406 C 411.730469 337.179688 412.277344 343.667969 412.75 350.414062 C 413.226562 357.164062 413.664062 363.925781 414.0625 370.710938 C 414.464844 377.492188 414.8125 383.875 415.101562 389.855469 L 398.472656 389.855469 C 398.253906 382.488281 397.964844 374.464844 397.597656 365.785156 C 397.234375 357.109375 396.6875 348.355469 395.957031 339.53125 C 394.640625 342.59375 393.175781 345.984375 391.570312 349.703125 C 389.960938 353.425781 388.367188 357.144531 386.796875 360.863281 C 385.222656 364.582031 383.703125 368.140625 382.242188 371.53125 C 380.777344 374.921875 379.535156 377.820312 378.507812 380.226562 L 366.582031 380.226562 C 365.558594 377.820312 364.316406 374.921875 362.851562 371.53125 C 361.390625 368.140625 359.871094 364.582031 358.296875 360.863281 C 356.722656 357.144531 355.132812 353.425781 353.523438 349.703125 C 351.914062 345.984375 350.453125 342.59375 349.132812 339.53125 C 348.40625 348.355469 347.859375 357.109375 347.492188 365.785156 C 347.128906 374.464844 346.835938 382.488281 346.617188 389.855469 L 329.988281 389.855469 C 330.28125 383.875 330.628906 377.492188 331.027344 370.710938 C 331.429688 363.925781 331.867188 357.164062 332.339844 350.414062 C 332.816406 343.667969 333.363281 337.179688 333.980469 330.941406 C 334.601562 324.707031 335.277344 319.074219 336.007812 314.039062 Z M 539.382812 314.039062 C 540.699219 316.445312 542.214844 319.417969 543.933594 322.957031 C 545.652344 326.492188 547.445312 330.324219 549.308594 334.441406 C 551.175781 338.5625 553.023438 342.777344 554.851562 347.078125 C 556.675781 351.382812 558.394531 355.429688 560.003906 359.222656 C 561.613281 355.429688 563.332031 351.382812 565.160156 347.078125 C 566.988281 342.777344 568.835938 338.5625 570.699219 334.441406 C 572.566406 330.324219 574.355469 326.492188 576.074219 322.957031 C 577.792969 319.417969 579.3125 316.445312 580.628906 314.039062 L 596.164062 314.039062 C 596.890625 319.074219 597.566406 324.707031 598.1875 330.941406 C 598.804688 337.179688 599.351562 343.667969 599.828125 350.414062 C 600.300781 357.164062 600.738281 363.925781 601.140625 370.710938 C 601.542969 377.492188 601.886719 383.875 602.179688 389.855469 L 585.550781 389.855469 C 585.332031 382.488281 585.039062 374.464844 584.675781 365.785156 C 584.308594 357.109375 583.761719 348.355469 583.035156 339.53125 C 581.714844 342.59375 580.253906 345.984375 578.644531 349.703125 C 577.035156 353.425781 575.445312 357.144531 573.871094 360.863281 C 572.296875 364.582031 570.78125 368.140625 569.316406 371.53125 C 567.851562 374.921875 566.609375 377.820312 565.585938 380.226562 L 553.660156 380.226562 C 552.636719 377.820312 551.390625 374.921875 549.929688 371.53125 C 548.464844 368.140625 546.945312 364.582031 545.375 360.863281 C 543.800781 357.144531 542.210938 353.425781 540.601562 349.703125 C 538.992188 345.984375 537.527344 342.59375 536.210938 339.53125 C 535.480469 348.355469 534.933594 357.109375 534.570312 365.785156 C 534.203125 374.464844 533.914062 382.488281 533.695312 389.855469 L 517.066406 389.855469 C 517.355469 383.875 517.703125 377.492188 518.105469 370.710938 C 518.503906 363.925781 518.941406 357.164062 519.417969 350.414062 C 519.890625 343.667969 520.4375 337.179688 521.058594 330.941406 C 521.679688 324.707031 522.351562 319.074219 523.082031 314.039062 Z M 169.277344 327.714844 C 168.039062 327.714844 166.816406 327.75 165.613281 327.824219 C 164.410156 327.898438 163.371094 327.96875 162.496094 328.042969 L 162.496094 349.921875 L 167.855469 349.921875 C 173.765625 349.921875 178.214844 349.121094 181.203125 347.515625 C 184.195312 345.910156 185.6875 342.921875 185.6875 338.546875 C 185.6875 336.429688 185.304688 334.679688 184.539062 333.292969 C 183.773438 331.910156 182.679688 330.796875 181.257812 329.957031 C 179.835938 329.117188 178.105469 328.535156 176.0625 328.207031 C 174.019531 327.878906 171.757812 327.714844 169.277344 327.714844 Z M 231.417969 327.714844 C 230.179688 327.714844 229.066406 327.75 228.082031 327.824219 C 227.097656 327.898438 226.167969 327.96875 225.292969 328.042969 L 225.292969 348.609375 L 230.105469 348.609375 C 236.523438 348.609375 241.117188 347.808594 243.890625 346.203125 C 246.660156 344.597656 248.046875 341.863281 248.046875 338 C 248.046875 334.277344 246.644531 331.636719 243.835938 330.066406 C 241.027344 328.5 236.886719 327.714844 231.417969 327.714844 Z M 231.417969 327.714844 " fill-opacity="1" fill-rule="nonzero"/><path fill="#00339f" d="M 264.761719 467.210938 C 264.761719 471.453125 264.238281 475.277344 263.191406 478.675781 C 262.144531 482.078125 260.675781 485.058594 258.789062 487.617188 C 256.898438 490.171875 254.644531 492.296875 252.027344 493.980469 C 249.414062 495.667969 246.535156 496.886719 243.394531 497.644531 C 243.6875 498.804688 244.324219 499.75 245.3125 500.476562 C 246.304688 501.203125 247.550781 501.800781 249.0625 502.265625 C 250.574219 502.730469 252.335938 503.078125 254.339844 503.3125 C 256.34375 503.542969 258.511719 503.75 260.835938 503.921875 L 258.046875 513.863281 C 253.511719 513.6875 249.632812 513.238281 246.40625 512.511719 C 243.179688 511.785156 240.445312 510.78125 238.207031 509.503906 C 235.96875 508.222656 234.195312 506.65625 232.886719 504.792969 C 231.578125 502.933594 230.578125 500.78125 229.878906 498.339844 C 226.273438 497.875 222.933594 496.875 219.851562 495.332031 C 216.769531 493.792969 214.09375 491.714844 211.828125 489.097656 C 209.5625 486.480469 207.789062 483.34375 206.507812 479.679688 C 205.230469 476.015625 204.589844 471.859375 204.589844 467.210938 C 204.589844 462.035156 205.402344 457.488281 207.03125 453.5625 C 208.660156 449.636719 210.855469 446.339844 213.617188 443.664062 C 216.378906 440.992188 219.574219 438.984375 223.207031 437.648438 C 226.839844 436.308594 230.664062 435.640625 234.675781 435.640625 C 238.804688 435.640625 242.699219 436.308594 246.359375 437.648438 C 250.023438 438.984375 253.222656 440.992188 255.953125 443.664062 C 258.6875 446.339844 260.835938 449.636719 262.40625 453.5625 C 263.976562 457.488281 264.761719 462.035156 264.761719 467.210938 Z M 293.625 498.691406 C 289.382812 498.691406 285.71875 498.09375 282.636719 496.902344 C 279.554688 495.710938 277.011719 494.054688 275.007812 491.933594 C 273 489.808594 271.519531 487.28125 270.558594 484.34375 C 269.601562 481.410156 269.121094 478.167969 269.121094 474.621094 L 269.121094 437.039062 L 282.726562 437.039062 L 282.726562 473.488281 C 282.726562 475.929688 283 478.007812 283.554688 479.722656 C 284.105469 481.4375 284.859375 482.832031 285.820312 483.910156 C 286.78125 484.984375 287.941406 485.753906 289.308594 486.21875 C 290.675781 486.683594 292.171875 486.917969 293.800781 486.917969 C 297.113281 486.917969 299.800781 485.898438 301.867188 483.867188 C 303.929688 481.832031 304.960938 478.371094 304.960938 473.488281 L 304.960938 437.039062 L 318.566406 437.039062 L 318.566406 474.621094 C 318.566406 478.167969 318.070312 481.425781 317.082031 484.390625 C 316.09375 487.355469 314.582031 489.898438 312.546875 492.019531 C 310.515625 494.140625 307.925781 495.785156 304.789062 496.945312 C 301.648438 498.109375 297.925781 498.691406 293.625 498.691406 Z M 423.558594 437.039062 L 437.164062 437.039062 L 437.164062 497.46875 L 423.558594 497.46875 Z M 420.941406 485.785156 L 420.941406 497.46875 L 380.566406 497.46875 L 380.566406 437.039062 L 394.171875 437.039062 L 394.171875 485.785156 Z M 504.660156 437.039062 C 506.515625 441.210938 508.519531 445.359375 510.667969 449.472656 C 512.816406 453.589844 515.109375 457.707031 517.546875 461.824219 C 519.992188 457.707031 522.320312 453.589844 524.53125 449.472656 C 526.746094 445.359375 528.78125 441.210938 530.644531 437.039062 L 545.644531 437.039062 C 542.332031 443.546875 538.902344 449.855469 535.355469 455.960938 C 531.808594 462.066406 528.058594 468.199219 524.105469 474.359375 L 524.105469 497.46875 L 510.5 497.46875 L 510.5 474.535156 C 506.546875 468.371094 502.785156 462.210938 499.207031 456.046875 C 495.976562 450.476562 492.851562 444.765625 489.835938 438.910156 L 489.835938 448.636719 L 471.609375 448.636719 L 471.609375 497.46875 L 458.003906 497.46875 L 458.003906 448.636719 L 439.777344 448.636719 L 439.777344 437.039062 Z M 364.339844 497.46875 C 363.667969 495.371094 362.945312 493.210938 362.171875 491 C 361.398438 488.785156 360.625 486.582031 359.859375 484.390625 L 336.257812 484.390625 C 335.492188 486.59375 334.730469 488.800781 333.960938 491.019531 C 333.195312 493.234375 332.480469 495.382812 331.820312 497.46875 L 317.695312 497.46875 C 319.96875 490.957031 322.125 484.941406 324.167969 479.417969 C 326.207031 473.894531 328.203125 468.691406 330.15625 463.808594 C 332.109375 458.925781 334.035156 454.289062 335.929688 449.898438 C 337.824219 445.511719 339.792969 441.222656 341.835938 437.039062 L 354.730469 437.039062 C 356.714844 441.222656 358.671875 445.511719 360.601562 449.898438 C 362.527344 454.289062 364.46875 458.925781 366.425781 463.808594 C 368.382812 468.691406 370.382812 473.894531 372.425781 479.417969 C 374.472656 484.941406 376.632812 490.957031 378.910156 497.46875 Z M 218.628906 467.210938 C 218.628906 470.175781 218.992188 472.847656 219.71875 475.234375 C 220.445312 477.617188 221.492188 479.664062 222.859375 481.378906 C 224.226562 483.09375 225.898438 484.417969 227.875 485.347656 C 229.851562 486.277344 232.117188 486.742188 234.675781 486.742188 C 237.175781 486.742188 239.429688 486.277344 241.433594 485.347656 C 243.4375 484.417969 245.125 483.09375 246.492188 481.378906 C 247.859375 479.664062 248.902344 477.617188 249.632812 475.234375 C 250.359375 472.847656 250.722656 470.175781 250.722656 467.210938 C 250.722656 464.246094 250.359375 461.554688 249.632812 459.144531 C 248.902344 456.730469 247.859375 454.667969 246.492188 452.953125 C 245.125 451.238281 243.4375 449.914062 241.433594 448.984375 C 239.429688 448.054688 237.175781 447.589844 234.675781 447.589844 C 232.117188 447.589844 229.851562 448.066406 227.875 449.027344 C 225.898438 449.988281 224.226562 451.324219 222.859375 453.039062 C 221.492188 454.753906 220.445312 456.816406 219.71875 459.230469 C 218.992188 461.644531 218.628906 464.300781 218.628906 467.210938 Z M 347.996094 450.726562 C 347.695312 451.605469 347.25 452.800781 346.664062 454.308594 C 346.082031 455.820312 345.414062 457.566406 344.667969 459.546875 C 343.921875 461.527344 343.085938 463.707031 342.164062 466.085938 C 341.242188 468.464844 340.304688 470.964844 339.351562 473.574219 L 356.632812 473.574219 C 355.707031 470.953125 354.8125 468.449219 353.945312 466.0625 C 353.078125 463.675781 352.253906 461.492188 351.476562 459.511719 C 350.695312 457.53125 350.011719 455.785156 349.421875 454.277344 C 348.832031 452.769531 348.359375 451.585938 347.996094 450.726562 Z M 347.996094 450.726562 " fill-opacity="1" fill-rule="nonzero"/><g clip-path="url(#39769b6890)"><path fill="#00339f" d="M 535.128906 89.628906 C 532.097656 87.363281 529.414062 84.039062 527.5 79.851562 C 524.632812 73.578125 524.085938 66.667969 525.546875 60.867188 C 527.484375 64.179688 530.695312 68.96875 532.5625 70.089844 C 532.796875 67.632812 531.167969 61.835938 529.886719 58.109375 C 534.796875 59.851562 539.386719 64.1875 542.257812 70.464844 C 545.550781 77.671875 545.78125 85.714844 543.425781 91.953125 C 550.101562 94.023438 556.519531 96.519531 562.6875 99.40625 C 560.960938 96.894531 559.550781 93.917969 558.609375 90.570312 C 556.625 83.523438 557.117188 76.320312 559.5 70.683594 C 560.980469 74.492188 563.542969 80.085938 565.289062 81.632812 C 565.902344 79.164062 565.113281 72.867188 564.371094 68.773438 C 569.140625 71.605469 573.1875 77.027344 575.175781 84.074219 C 577.300781 91.621094 576.585938 99.347656 573.746094 105.136719 C 579.773438 108.578125 585.539062 112.40625 591.054688 116.582031 C 590.011719 114.019531 589.261719 111.191406 588.882812 108.167969 C 587.917969 100.519531 589.523438 93.234375 592.828125 87.960938 C 593.765625 92.179688 595.542969 98.460938 597.097656 100.417969 C 598.101562 98.015625 598.253906 91.390625 598.113281 87.035156 C 602.574219 90.949219 605.902344 97.371094 606.863281 105.019531 C 607.875 113.046875 606.058594 120.667969 602.417969 125.992188 C 608.007812 131.042969 613.304688 136.46875 618.316406 142.222656 C 617.554688 139.238281 617.175781 136.007812 617.25 132.644531 C 617.429688 124.59375 620.183594 117.464844 624.378906 112.753906 C 624.699219 117.28125 625.5625 124.101562 626.855469 126.4375 C 628.253906 124.1875 629.421875 117.425781 629.941406 112.925781 C 633.917969 117.890625 636.355469 125.183594 636.175781 133.230469 C 635.980469 141.933594 632.777344 149.5625 628 154.21875 C 633.214844 161.179688 638.070312 168.519531 642.5625 176.15625 C 641.90625 172.261719 641.882812 168.046875 642.617188 163.773438 C 644.027344 155.554688 647.941406 148.824219 652.960938 144.882812 C 652.597656 149.59375 652.445312 156.773438 653.417969 159.445312 C 655.191406 157.433594 657.421875 150.746094 658.640625 146.238281 C 661.964844 152.175781 663.347656 160.171875 661.9375 168.390625 C 660.335938 177.71875 655.511719 185.128906 649.503906 188.71875 C 654.136719 197.648438 658.328125 206.917969 662.09375 216.417969 C 661.632812 211.511719 662.183594 206.222656 663.890625 201.082031 C 666.589844 192.953125 671.628906 186.882812 677.378906 183.902344 C 676.289062 188.65625 675.035156 195.992188 675.625 198.9375 C 677.753906 197.25 681.058594 190.863281 682.996094 186.503906 C 685.503906 193.296875 685.703125 201.792969 683.003906 209.921875 C 679.847656 219.421875 673.5 226.109375 666.558594 228.335938 C 670.101562 238.371094 673.195312 248.613281 675.859375 258.957031 C 676.164062 253.902344 677.527344 248.695312 680.019531 243.871094 C 684.03125 236.105469 690.125 230.945312 696.476562 229.113281 C 694.632812 233.757812 692.230469 241.015625 692.386719 244.160156 C 694.828125 242.882812 699.191406 237.03125 701.84375 232.96875 C 703.375 240.46875 702.289062 249.226562 698.277344 256.992188 C 693.6875 265.882812 686.363281 271.355469 679.050781 272.335938 C 681.234375 282.242188 683.027344 292.191406 684.453125 302.089844 C 685.679688 298.253906 687.546875 294.535156 690.042969 291.179688 C 695.339844 284.066406 702.378906 280.070312 709.171875 279.535156 C 706.574219 283.910156 703.003906 290.84375 702.683594 294.105469 C 705.382812 293.308594 710.75 288.238281 714.089844 284.632812 C 714.519531 292.652344 712.066406 301.402344 706.769531 308.519531 C 701.214844 315.976562 693.746094 320.011719 686.652344 320.214844 C 687.558594 329.355469 688.148438 338.402344 688.429688 347.277344 C 689.792969 345.328125 691.355469 343.5 693.109375 341.835938 C 699.628906 335.664062 707.457031 333.054688 714.507812 333.953125 C 711.175781 337.886719 706.457031 344.242188 705.632812 347.515625 C 708.519531 347.277344 714.796875 343.210938 718.773438 340.222656 C 717.992188 348.539062 714.140625 356.996094 707.625 363.167969 C 701.730469 368.753906 694.761719 371.417969 688.265625 371.210938 C 687.804688 379.636719 686.902344 388.117188 685.574219 396.605469 C 686.515625 395.835938 687.503906 395.113281 688.535156 394.445312 C 696.160156 389.496094 704.589844 388.484375 711.683594 390.898438 C 707.667969 394.230469 701.855469 399.742188 700.511719 402.929688 C 703.511719 403.292969 710.570312 400.457031 715.101562 398.238281 C 713.03125 406.601562 707.796875 414.457031 700.167969 419.40625 C 693.5625 423.695312 686.351562 425.027344 679.925781 423.734375 C 677.710938 432.269531 675.089844 440.777344 672.085938 449.226562 C 673.28125 448.554688 674.527344 447.953125 675.820312 447.433594 C 684.398438 443.976562 693.195312 444.730469 700.105469 448.710938 C 695.476562 451.273438 688.675781 455.695312 686.808594 458.679688 C 689.832031 459.691406 697.503906 458.28125 702.492188 456.964844 C 699.09375 465.105469 692.523438 472.050781 683.949219 475.507812 C 676.132812 478.65625 668.132812 478.3125 661.546875 475.214844 C 657.578125 483.914062 653.207031 492.496094 648.46875 500.910156 C 650.449219 500.105469 652.535156 499.488281 654.699219 499.085938 C 664.023438 497.363281 672.933594 500 679.414062 505.554688 C 674.277344 507.199219 666.625 510.292969 664.257812 512.953125 C 667.203125 514.632812 675.289062 514.816406 680.605469 514.523438 C 675.878906 522.152344 668.082031 527.882812 658.757812 529.609375 C 649.671875 531.289062 640.980469 528.828125 634.546875 523.566406 C 629.382812 531.296875 623.902344 538.832031 618.128906 546.140625 C 617.457031 546.992188 616.78125 547.835938 616.101562 548.683594 C 618.980469 547.90625 622.023438 547.519531 625.160156 547.585938 C 634.988281 547.796875 643.726562 552.394531 649.523438 559.464844 C 644.003906 560.0625 635.683594 561.609375 632.851562 563.839844 C 635.617188 566.1875 643.882812 568.089844 649.378906 568.917969 C 643.367188 575.738281 634.496094 579.960938 624.667969 579.753906 C 614.613281 579.539062 605.695312 574.726562 599.902344 567.375 C 592.371094 575.457031 584.453125 583.160156 576.1875 590.425781 C 579.816406 589.996094 583.621094 590.179688 587.46875 591.0625 C 597.515625 593.363281 605.777344 599.933594 610.648438 608.417969 C 604.894531 607.855469 596.125 607.679688 592.878906 609.363281 C 595.355469 612.359375 603.542969 616.066406 609.058594 618.085938 C 601.851562 623.804688 592.109375 626.25 582.058594 623.949219 C 571.457031 621.523438 562.84375 614.34375 558.105469 605.175781 C 548.808594 612.199219 539.152344 618.671875 529.183594 624.507812 C 533.457031 624.683594 537.855469 625.703125 542.179688 627.65625 C 552.132812 632.148438 559.605469 640.640625 563.308594 650.375 C 557.492188 648.582031 548.523438 646.539062 544.9375 647.574219 C 547.023438 651.171875 554.855469 656.710938 560.203125 659.953125 C 551.941406 664.292969 541.570312 664.734375 531.617188 660.242188 C 520.792969 655.359375 512.910156 645.746094 509.609375 634.953125 C 498.113281 640.496094 486.277344 645.203125 474.15625 648.960938 C 479.542969 649.777344 485.015625 651.953125 490.144531 655.574219 C 499.671875 662.296875 506.039062 672.59375 508.355469 683.367188 C 502.664062 680.289062 493.777344 676.289062 489.9375 676.59375 C 491.527344 680.726562 498.71875 688.070312 503.707031 692.53125 C 494.570312 695.226562 483.871094 693.480469 474.34375 686.757812 C 463.351562 679 456.5625 666.484375 455.359375 653.96875 C 452.46875 654.613281 449.574219 655.199219 446.664062 655.734375 C 438.671875 657.199219 432.007812 658.421875 421.511719 658.742188 C 412.839844 659.007812 401.488281 658.632812 384.40625 657.175781 L 386.023438 639.949219 C 402.183594 641.609375 412.925781 642.179688 421.144531 642.074219 C 430.617188 641.949219 436.644531 640.917969 443.875 639.722656 C 445.878906 639.390625 447.882812 639.03125 449.878906 638.644531 C 447.96875 630.078125 448.207031 620.324219 451.042969 610.785156 C 454.714844 598.425781 461.992188 589 470.472656 584.171875 C 469.058594 591.367188 467.515625 602.441406 468.535156 606.816406 C 471.648438 604.152344 476.308594 594.371094 479.015625 587.707031 C 483.078125 597.730469 483.769531 610.453125 480.097656 622.8125 C 479.152344 625.984375 477.972656 628.960938 476.597656 631.714844 C 485.425781 628.847656 494.09375 625.449219 502.570312 621.570312 C 498.929688 613.460938 497.433594 603.382812 498.894531 592.945312 C 500.632812 580.535156 506.191406 570.199219 513.535156 563.96875 C 513.207031 571.050781 513.304688 581.828125 514.886719 585.765625 C 517.457031 582.636719 520.488281 572.472656 522.109375 565.640625 C 527.363281 574.328125 529.804688 586.222656 528.066406 598.632812 C 527.515625 602.574219 526.578125 606.304688 525.320312 609.761719 C 533.679688 604.898438 541.808594 599.574219 549.675781 593.835938 C 544.785156 586.796875 541.738281 577.246094 541.648438 566.703125 C 541.550781 554.625 545.351562 543.761719 551.421875 536.433594 C 552.109375 543.195312 553.714844 553.367188 555.765625 556.785156 C 557.753906 553.320312 559.195312 543.113281 559.769531 536.335938 C 565.957031 543.523438 569.941406 554.296875 570.042969 566.375 C 570.078125 570.679688 569.617188 574.832031 568.734375 578.722656 C 576.261719 572.246094 583.5 565.394531 590.421875 558.214844 C 584.5 552.515625 580.019531 543.832031 578.398438 533.515625 C 576.605469 522.113281 578.675781 511.089844 583.386719 502.972656 C 584.988281 509.234375 587.9375 518.539062 590.355469 521.371094 C 591.75 517.707031 591.675781 507.769531 591.265625 501.246094 C 598.132812 506.832031 603.414062 516.242188 605.207031 527.644531 C 605.949219 532.359375 606.03125 537.011719 605.535156 541.414062 C 606.441406 540.339844 607.335938 539.257812 608.226562 538.171875 C 613.925781 531.214844 619.347656 524.027344 624.464844 516.648438 C 617.578125 512.558594 611.652344 504.921875 608.492188 494.929688 C 605.191406 484.496094 605.601562 473.667969 608.914062 465.066406 C 611.308594 470.675781 615.410156 478.902344 618.09375 481.105469 C 618.898438 477.363281 617.429688 467.980469 616.125 461.890625 C 623.40625 465.832031 629.722656 473.699219 633.023438 484.132812 C 634.703125 489.445312 635.421875 494.863281 635.285156 500.035156 C 641.15625 490.410156 646.519531 480.53125 651.324219 470.476562 C 643.636719 468.351562 636.257812 462.054688 631.53125 452.546875 C 626.945312 443.324219 625.808594 433 627.734375 424.214844 C 630.785156 429.054688 635.820312 436.03125 638.667969 437.589844 C 638.90625 433.894531 636.195312 425.308594 634.105469 419.804688 C 641.546875 422.105469 648.628906 428.308594 653.214844 437.53125 C 656.136719 443.410156 657.660156 449.730469 657.882812 455.816406 C 662.652344 444.378906 666.695312 432.765625 669.945312 421.082031 C 661.976562 421.050781 653.515625 416.492188 647.363281 407.949219 C 641.726562 400.121094 639.203125 390.582031 639.789062 381.898438 C 643.355469 385.875 649.097656 391.488281 652.011719 392.40625 C 651.714844 388.863281 647.945312 381.269531 645.195312 376.472656 C 652.554688 377.195312 660.128906 381.675781 665.761719 389.503906 C 669.894531 395.238281 672.355469 401.898438 673.140625 408.464844 C 676.011719 395.882812 677.945312 383.269531 678.855469 370.75 C 671.410156 372.101562 662.957031 369.417969 656.066406 362.667969 C 649.636719 356.367188 645.90625 347.839844 645.242188 339.507812 C 649.175781 342.574219 655.394531 346.757812 658.28125 347.054688 C 657.5 343.765625 652.871094 337.320312 649.59375 333.320312 C 656.65625 332.5625 664.445312 335.320312 670.878906 341.621094 C 674.734375 345.398438 677.621094 349.980469 679.457031 354.839844 C 679.507812 344.183594 679.109375 333.222656 678.238281 322.109375 C 671.886719 323.800781 664.554688 322.597656 657.9375 318.136719 C 650.96875 313.4375 646.238281 306.097656 644.4375 298.351562 C 648.589844 300.476562 655.0625 303.21875 657.832031 302.9375 C 656.632812 299.976562 651.347656 294.785156 647.6875 291.644531 C 654.257812 289.546875 662.015625 290.628906 668.984375 295.328125 C 671.738281 297.1875 674.144531 299.457031 676.15625 302.003906 C 675.042969 293.355469 673.644531 284.667969 671.941406 276.003906 C 666.414062 278.304688 659.835938 278.367188 653.441406 275.648438 C 646.191406 272.566406 640.6875 266.554688 637.894531 259.578125 C 642.121094 260.777344 648.625 262.105469 651.207031 261.292969 C 649.65625 258.726562 643.925781 254.855469 640.023438 252.601562 C 645.945312 249.328125 653.433594 248.832031 660.683594 251.914062 C 663.164062 252.96875 665.4375 254.363281 667.46875 256.023438 C 665.511719 248.273438 663.304688 240.585938 660.839844 233.007812 C 655.925781 236.300781 649.679688 237.667969 643.21875 236.34375 C 635.925781 234.847656 629.875 230.238281 626.253906 224.1875 C 630.417969 224.492188 636.757812 224.476562 639.085938 223.203125 C 637.257812 221.078125 631.296875 218.539062 627.285156 217.171875 C 632.425781 212.914062 639.441406 210.984375 646.730469 212.476562 C 649.570312 213.058594 652.21875 214.113281 654.613281 215.539062 C 651.707031 208.082031 648.535156 200.777344 645.085938 193.679688 C 640.839844 198.273438 634.765625 201.15625 628.019531 201.167969 C 620.914062 201.179688 614.542969 198.003906 610.265625 192.988281 C 614.25 192.464844 620.246094 191.207031 622.265625 189.546875 C 620.238281 187.898438 614.242188 186.660156 610.257812 186.152344 C 614.519531 181.121094 620.882812 177.921875 627.988281 177.90625 C 631.585938 177.898438 634.992188 178.710938 638.035156 180.160156 C 633.917969 172.800781 629.46875 165.714844 624.683594 158.964844 C 621.40625 164.871094 615.675781 169.417969 608.703125 170.871094 C 601.984375 172.277344 595.511719 170.519531 590.757812 166.613281 C 594.453125 165.335938 599.945312 162.972656 601.625 161.007812 C 599.476562 159.84375 593.628906 159.847656 589.789062 160.148438 C 593.113281 154.554688 598.683594 150.28125 605.402344 148.878906 C 609.808594 147.957031 614.109375 148.394531 617.886719 149.90625 C 612.34375 142.929688 606.394531 136.382812 600.03125 130.355469 C 597.976562 137.101562 592.988281 143.074219 586.171875 146 C 580.011719 148.640625 573.644531 148.246094 568.601562 145.480469 C 571.914062 143.550781 576.777344 140.242188 578.089844 138.054688 C 575.894531 137.375 570.367188 138.523438 566.773438 139.554688 C 569.132812 133.617188 573.800781 128.484375 579.957031 125.839844 C 584.730469 123.792969 589.632812 123.570312 593.945312 124.859375 C 587.175781 119.042969 579.964844 113.785156 572.300781 109.179688 C 571.351562 116.03125 567.457031 122.742188 561.363281 126.882812 C 555.910156 130.589844 549.832031 131.460938 544.671875 129.832031 C 547.535156 127.359375 551.671875 123.273438 552.605469 120.949219 C 550.429688 120.734375 545.363281 122.90625 542.113281 124.585938 C 543.507812 118.503906 547.199219 112.738281 552.652344 109.03125 C 556.8125 106.207031 561.335938 105.027344 565.539062 105.351562 C 558.417969 101.558594 550.929688 98.308594 543.058594 95.664062 C 542.882812 102.066406 540.164062 108.777344 535.210938 113.65625 C 530.574219 118.230469 524.945312 120.246094 519.839844 119.714844 C 522.199219 116.816406 525.535156 112.144531 526.09375 109.761719 C 524.007812 109.984375 519.519531 113.027344 516.679688 115.253906 C 517.144531 109.230469 519.828125 103.050781 524.464844 98.480469 C 527.347656 95.632812 530.617188 93.78125 533.90625 92.910156 C 527.390625 91.175781 520.632812 89.839844 513.625 88.941406 C 514.015625 94.710938 512.347656 101.054688 508.617188 106.265625 C 504.875 111.5 499.835938 114.507812 494.929688 115.003906 C 496.753906 111.800781 499.253906 106.730469 499.445312 104.367188 C 497.503906 104.984375 493.683594 108.742188 491.3125 111.402344 C 490.90625 105.613281 492.574219 99.246094 496.316406 94.015625 C 498.175781 91.417969 500.355469 89.367188 502.683594 87.898438 C 501.429688 87.820312 500.164062 87.757812 498.894531 87.707031 C 495.347656 91.582031 489.917969 93.695312 484.039062 92.925781 C 478.644531 92.21875 473.992188 89.234375 471.039062 85.105469 C 474.09375 85.117188 478.714844 84.792969 480.347656 83.773438 C 478.90625 82.351562 474.425781 80.835938 471.429688 80.058594 C 474.960938 76.777344 479.976562 75.054688 485.367188 75.761719 C 491.308594 76.539062 496.347656 80.082031 499.210938 84.875 C 502.570312 84.953125 505.882812 85.128906 509.136719 85.390625 C 510.464844 85.175781 511.792969 85.144531 513.085938 85.300781 C 513.125 85.457031 513.15625 85.613281 513.191406 85.769531 C 520.777344 86.570312 528.089844 87.871094 535.128906 89.628906 Z M 492.054688 58.230469 C 491.488281 64 492.976562 70.429688 496.574219 75.800781 C 500.925781 82.3125 507.277344 85.636719 513.089844 85.164062 C 514.828125 78.601562 513.5625 70.546875 509.207031 64.035156 C 505.613281 58.660156 500.660156 55.457031 495.769531 54.769531 C 497.503906 58.042969 499.859375 63.210938 499.988281 65.578125 C 498.0625 64.882812 494.351562 60.980469 492.054688 58.230469 Z M 492.054688 58.230469 " fill-opacity="1" fill-rule="evenodd"/></g><g clip-path="url(#dd47dfdfe5)"><path fill="#00339f" d="M 206.566406 91.953125 C 204.210938 85.714844 204.441406 77.671875 207.738281 70.464844 C 210.605469 64.1875 215.199219 59.851562 220.105469 58.109375 C 218.828125 61.835938 217.199219 67.632812 217.429688 70.089844 C 219.296875 68.96875 222.507812 64.179688 224.445312 60.867188 C 225.90625 66.667969 225.359375 73.578125 222.492188 79.851562 C 220.578125 84.039062 217.894531 87.363281 214.863281 89.628906 C 221.90625 87.871094 229.214844 86.574219 236.800781 85.769531 C 236.835938 85.613281 236.871094 85.457031 236.90625 85.300781 C 238.199219 85.144531 239.527344 85.175781 240.855469 85.390625 C 244.113281 85.128906 247.421875 84.953125 250.78125 84.875 C 253.644531 80.082031 258.683594 76.539062 264.625 75.761719 C 270.019531 75.058594 275.035156 76.777344 278.5625 80.058594 C 275.566406 80.835938 271.085938 82.351562 269.644531 83.773438 C 271.277344 84.792969 275.898438 85.121094 278.953125 85.105469 C 276 89.234375 271.347656 92.222656 265.953125 92.925781 C 260.074219 93.695312 254.644531 91.582031 251.097656 87.707031 C 249.828125 87.757812 248.566406 87.820312 247.3125 87.898438 C 249.636719 89.367188 251.816406 91.417969 253.675781 94.015625 C 257.417969 99.246094 259.085938 105.613281 258.679688 111.40625 C 256.308594 108.742188 252.488281 104.984375 250.546875 104.367188 C 250.738281 106.730469 253.238281 111.800781 255.0625 115.007812 C 250.15625 114.507812 245.117188 111.5 241.375 106.269531 C 237.644531 101.054688 235.976562 94.714844 236.367188 88.941406 C 229.359375 89.84375 222.601562 91.175781 216.085938 92.914062 C 219.375 93.78125 222.644531 95.636719 225.527344 98.480469 C 230.164062 103.050781 232.847656 109.230469 233.3125 115.253906 C 230.472656 113.027344 225.984375 109.984375 223.898438 109.761719 C 224.457031 112.144531 227.792969 116.816406 230.152344 119.714844 C 225.046875 120.246094 219.417969 118.230469 214.78125 113.660156 C 209.828125 108.777344 207.109375 102.066406 206.933594 95.664062 C 199.0625 98.308594 191.574219 101.558594 184.453125 105.351562 C 188.65625 105.027344 193.179688 106.207031 197.339844 109.03125 C 202.792969 112.738281 206.484375 118.503906 207.878906 124.585938 C 204.628906 122.90625 199.5625 120.734375 197.386719 120.949219 C 198.320312 123.277344 202.457031 127.359375 205.320312 129.832031 C 200.164062 131.460938 194.082031 130.589844 188.628906 126.882812 C 182.535156 122.746094 178.644531 116.03125 177.691406 109.183594 C 170.027344 113.789062 162.816406 119.042969 156.046875 124.859375 C 160.359375 123.570312 165.261719 123.792969 170.035156 125.839844 C 176.191406 128.484375 180.859375 133.617188 183.21875 139.554688 C 179.628906 138.523438 174.097656 137.375 171.902344 138.054688 C 173.214844 140.242188 178.078125 143.554688 181.390625 145.480469 C 176.347656 148.246094 169.980469 148.640625 163.820312 146 C 157.003906 143.074219 152.019531 137.101562 149.960938 130.355469 C 143.59375 136.382812 137.648438 142.929688 132.105469 149.910156 C 135.882812 148.394531 140.183594 147.957031 144.589844 148.878906 C 151.308594 150.28125 156.878906 154.554688 160.203125 160.148438 C 156.363281 159.847656 150.515625 159.84375 148.367188 161.007812 C 150.046875 162.972656 155.539062 165.335938 159.234375 166.613281 C 154.484375 170.519531 148.007812 172.277344 141.289062 170.875 C 134.316406 169.417969 128.585938 164.871094 125.308594 158.96875 C 120.523438 165.714844 116.074219 172.804688 111.957031 180.160156 C 115 178.710938 118.40625 177.902344 122.003906 177.90625 C 129.109375 177.921875 135.472656 181.121094 139.734375 186.152344 C 135.75 186.660156 129.753906 187.898438 127.726562 189.550781 C 129.75 191.207031 135.742188 192.464844 139.726562 192.988281 C 135.449219 198.003906 129.078125 201.183594 121.972656 201.167969 C 115.226562 201.15625 109.15625 198.273438 104.90625 193.679688 C 101.457031 200.78125 98.28125 208.089844 95.382812 215.539062 C 97.773438 214.113281 100.421875 213.058594 103.261719 212.476562 C 110.550781 210.984375 117.566406 212.917969 122.707031 217.171875 C 118.699219 218.539062 112.734375 221.082031 110.90625 223.203125 C 113.234375 224.476562 119.574219 224.496094 123.742188 224.1875 C 120.117188 230.238281 114.066406 234.847656 106.777344 236.34375 C 100.3125 237.667969 94.066406 236.300781 89.152344 233.011719 C 86.6875 240.585938 84.480469 248.273438 82.523438 256.023438 C 84.554688 254.363281 86.832031 252.96875 89.308594 251.914062 C 96.558594 248.835938 104.046875 249.328125 109.96875 252.601562 C 106.066406 254.855469 100.335938 258.730469 98.785156 261.292969 C 101.367188 262.105469 107.875 260.777344 112.097656 259.578125 C 109.304688 266.554688 103.800781 272.570312 96.550781 275.648438 C 90.15625 278.367188 83.578125 278.304688 78.050781 276.003906 C 76.347656 284.671875 74.949219 293.359375 73.835938 302.003906 C 75.847656 299.460938 78.253906 297.1875 81.007812 295.328125 C 87.976562 290.628906 95.734375 289.546875 102.304688 291.648438 C 98.644531 294.789062 93.359375 299.976562 92.160156 302.9375 C 94.929688 303.222656 101.402344 300.480469 105.554688 298.351562 C 103.753906 306.097656 99.023438 313.4375 92.058594 318.136719 C 85.4375 322.601562 78.105469 323.800781 71.753906 322.109375 C 70.882812 333.230469 70.484375 344.1875 70.535156 354.839844 C 72.371094 349.980469 75.257812 345.398438 79.117188 341.621094 C 85.546875 335.320312 93.335938 332.5625 100.398438 333.324219 C 97.121094 337.320312 92.492188 343.765625 91.714844 347.058594 C 94.597656 346.761719 100.820312 342.574219 104.753906 339.507812 C 104.085938 347.839844 100.355469 356.367188 93.925781 362.667969 C 87.035156 369.417969 78.582031 372.101562 71.140625 370.75 C 72.050781 383.269531 73.980469 395.890625 76.851562 408.464844 C 77.640625 401.898438 80.097656 395.242188 84.230469 389.503906 C 89.867188 381.679688 97.4375 377.195312 104.796875 376.476562 C 102.046875 381.273438 98.277344 388.863281 97.980469 392.40625 C 100.894531 391.488281 106.636719 385.875 110.203125 381.898438 C 110.792969 390.582031 108.265625 400.125 102.628906 407.949219 C 96.476562 416.492188 88.015625 421.050781 80.046875 421.082031 C 83.296875 432.765625 87.339844 444.378906 92.109375 455.816406 C 92.332031 449.730469 93.855469 443.410156 96.777344 437.53125 C 101.363281 428.308594 108.449219 422.105469 115.886719 419.804688 C 113.796875 425.308594 111.089844 433.894531 111.324219 437.589844 C 114.171875 436.03125 119.207031 429.054688 122.261719 424.21875 C 124.183594 433 123.050781 443.324219 118.460938 452.546875 C 113.734375 462.054688 106.355469 468.355469 98.667969 470.476562 C 103.472656 480.53125 108.835938 490.410156 114.707031 500.035156 C 114.570312 494.863281 115.289062 489.449219 116.96875 484.132812 C 120.269531 473.699219 126.585938 465.832031 133.867188 461.894531 C 132.5625 467.980469 131.09375 477.367188 131.898438 481.105469 C 134.582031 478.902344 138.683594 470.675781 141.078125 465.066406 C 144.390625 473.667969 144.800781 484.496094 141.5 494.933594 C 138.34375 504.921875 132.414062 512.558594 125.527344 516.648438 C 130.648438 524.027344 136.066406 531.214844 141.765625 538.171875 C 142.65625 539.257812 143.550781 540.339844 144.457031 541.414062 C 143.964844 537.011719 144.042969 532.363281 144.785156 527.648438 C 146.578125 516.242188 151.859375 506.832031 158.726562 501.246094 C 158.316406 507.769531 158.242188 517.707031 159.636719 521.371094 C 162.054688 518.542969 165.007812 509.234375 166.605469 502.972656 C 171.316406 511.089844 173.386719 522.113281 171.59375 533.515625 C 169.972656 543.832031 165.496094 552.515625 159.574219 558.214844 C 166.492188 565.394531 173.730469 572.246094 181.257812 578.722656 C 180.375 574.832031 179.914062 570.679688 179.949219 566.375 C 180.050781 554.296875 184.035156 543.523438 190.226562 536.335938 C 190.800781 543.113281 192.238281 553.324219 194.226562 556.785156 C 196.277344 553.371094 197.882812 543.195312 198.570312 536.433594 C 204.640625 543.761719 208.445312 554.625 208.34375 566.703125 C 208.253906 577.246094 205.207031 586.796875 200.316406 593.835938 C 208.1875 599.578125 216.320312 604.902344 224.671875 609.765625 C 223.414062 606.308594 222.476562 602.574219 221.925781 598.632812 C 220.1875 586.226562 222.628906 574.328125 227.882812 565.644531 C 229.503906 572.472656 232.539062 582.636719 235.105469 585.769531 C 236.6875 581.828125 236.785156 571.054688 236.457031 563.96875 C 243.800781 570.199219 249.359375 580.535156 251.097656 592.945312 C 252.558594 603.382812 251.0625 613.460938 247.421875 621.570312 C 255.898438 625.449219 264.566406 628.847656 273.394531 631.714844 C 272.019531 628.960938 270.839844 625.984375 269.894531 622.8125 C 266.222656 610.453125 266.914062 597.730469 270.976562 587.707031 C 273.683594 594.371094 278.34375 604.152344 281.457031 606.816406 C 282.476562 602.441406 280.933594 591.367188 279.519531 584.171875 C 288 589.003906 295.277344 598.425781 298.953125 610.785156 C 301.789062 620.324219 302.023438 630.082031 300.113281 638.644531 C 302.113281 639.03125 304.113281 639.394531 306.121094 639.726562 C 313.351562 640.921875 319.375 641.949219 328.847656 642.074219 C 337.066406 642.183594 347.808594 641.609375 363.96875 639.949219 L 365.585938 657.179688 C 348.503906 658.632812 337.152344 659.007812 328.484375 658.742188 C 317.984375 658.421875 311.320312 657.199219 303.328125 655.734375 C 300.417969 655.203125 297.523438 654.613281 294.632812 653.96875 C 293.429688 666.484375 286.644531 679 275.648438 686.757812 C 266.121094 693.480469 255.421875 695.226562 246.285156 692.53125 C 251.273438 688.070312 258.464844 680.726562 260.054688 676.59375 C 256.21875 676.292969 247.332031 680.289062 241.640625 683.367188 C 243.953125 672.59375 250.320312 662.296875 259.847656 655.574219 C 264.976562 651.957031 270.449219 649.777344 275.835938 648.960938 C 263.714844 645.203125 251.878906 640.5 240.386719 634.953125 C 237.085938 645.75 229.199219 655.359375 218.375 660.242188 C 208.421875 664.734375 198.054688 664.292969 189.789062 659.957031 C 195.136719 656.714844 202.96875 651.175781 205.054688 647.578125 C 201.46875 646.539062 192.5 648.582031 186.683594 650.375 C 190.386719 640.640625 197.859375 632.148438 207.8125 627.65625 C 212.136719 625.703125 216.535156 624.683594 220.808594 624.507812 C 210.839844 618.671875 201.183594 612.199219 191.886719 605.175781 C 187.148438 614.34375 178.535156 621.523438 167.933594 623.953125 C 157.886719 626.253906 148.140625 623.804688 140.933594 618.085938 C 146.449219 616.066406 154.636719 612.359375 157.113281 609.363281 C 153.867188 607.679688 145.097656 607.859375 139.34375 608.417969 C 144.214844 599.933594 152.476562 593.363281 162.523438 591.0625 C 166.371094 590.179688 170.175781 589.996094 173.808594 590.425781 C 165.542969 583.164062 157.625 575.460938 150.089844 567.375 C 144.296875 574.726562 135.382812 579.539062 125.324219 579.753906 C 115.496094 579.960938 106.625 575.738281 100.613281 568.921875 C 106.113281 568.089844 114.378906 566.1875 117.140625 563.839844 C 114.308594 561.609375 105.988281 560.0625 100.46875 559.464844 C 106.269531 552.394531 115.003906 547.796875 124.832031 547.585938 C 127.96875 547.519531 131.011719 547.90625 133.890625 548.683594 C 133.210938 547.839844 132.535156 546.992188 131.863281 546.140625 C 126.089844 538.835938 120.609375 531.296875 115.445312 523.566406 C 109.011719 528.828125 100.320312 531.289062 91.238281 529.609375 C 81.914062 527.882812 74.113281 522.152344 69.386719 514.527344 C 74.703125 514.816406 82.789062 514.632812 85.734375 512.953125 C 83.367188 510.292969 75.71875 507.199219 70.578125 505.554688 C 77.058594 500 85.96875 497.363281 95.292969 499.089844 C 97.457031 499.488281 99.542969 500.105469 101.523438 500.910156 C 96.785156 492.496094 92.417969 483.917969 88.445312 475.214844 C 81.859375 478.3125 73.859375 478.660156 66.046875 475.507812 C 57.46875 472.050781 50.898438 465.105469 47.5 456.964844 C 52.488281 458.28125 60.160156 459.691406 63.183594 458.679688 C 61.316406 455.699219 54.515625 451.273438 49.890625 448.714844 C 56.796875 444.730469 65.597656 443.976562 74.171875 447.433594 C 75.464844 447.957031 76.710938 448.554688 77.90625 449.226562 C 74.902344 440.78125 72.28125 432.273438 70.066406 423.734375 C 63.640625 425.027344 56.433594 423.695312 49.824219 419.40625 C 42.199219 414.457031 36.960938 406.601562 34.890625 398.238281 C 39.421875 400.457031 46.484375 403.296875 49.480469 402.929688 C 48.136719 399.746094 42.328125 394.230469 38.308594 390.902344 C 45.402344 388.484375 53.832031 389.496094 61.457031 394.445312 C 62.488281 395.113281 63.476562 395.835938 64.417969 396.605469 C 63.089844 388.113281 62.1875 379.636719 61.726562 371.214844 C 55.230469 371.417969 48.261719 368.753906 42.367188 363.167969 C 35.851562 356.996094 32 348.539062 31.21875 340.222656 C 35.195312 343.210938 41.472656 347.277344 44.363281 347.515625 C 43.539062 344.242188 38.816406 337.886719 35.484375 333.953125 C 42.535156 333.058594 50.363281 335.664062 56.882812 341.835938 C 58.636719 343.5 60.199219 345.328125 61.5625 347.277344 C 61.84375 338.402344 62.433594 329.355469 63.339844 320.214844 C 56.246094 320.011719 48.777344 315.980469 43.222656 308.519531 C 37.925781 301.402344 35.472656 292.652344 35.902344 284.632812 C 39.242188 288.238281 44.609375 293.3125 47.308594 294.105469 C 46.988281 290.84375 43.417969 283.910156 40.820312 279.539062 C 47.613281 280.070312 54.652344 284.066406 59.949219 291.179688 C 62.449219 294.535156 64.3125 298.257812 65.542969 302.089844 C 66.964844 292.191406 68.757812 282.246094 70.941406 272.335938 C 63.628906 271.359375 56.304688 265.882812 51.714844 256.996094 C 47.703125 249.226562 46.617188 240.472656 48.148438 232.96875 C 50.800781 237.03125 55.164062 242.882812 57.605469 244.160156 C 57.761719 241.015625 55.359375 233.757812 53.515625 229.113281 C 59.867188 230.945312 65.964844 236.105469 69.972656 243.871094 C 72.464844 248.695312 73.828125 253.902344 74.136719 258.957031 C 76.796875 248.613281 79.890625 238.371094 83.433594 228.339844 C 76.492188 226.109375 70.144531 219.421875 66.988281 209.921875 C 64.289062 201.792969 64.492188 193.296875 66.996094 186.503906 C 68.933594 190.863281 72.238281 197.25 74.367188 198.9375 C 74.957031 195.992188 73.703125 188.660156 72.613281 183.90625 C 78.363281 186.882812 83.402344 192.953125 86.105469 201.085938 C 87.8125 206.222656 88.359375 211.511719 87.898438 216.421875 C 91.664062 206.917969 95.859375 197.648438 100.488281 188.722656 C 94.480469 185.128906 89.65625 177.71875 88.054688 168.390625 C 86.644531 160.171875 88.027344 152.175781 91.351562 146.242188 C 92.574219 150.746094 94.800781 157.433594 96.578125 159.445312 C 97.546875 156.777344 97.394531 149.59375 97.03125 144.882812 C 102.050781 148.824219 105.964844 155.554688 107.375 163.773438 C 108.109375 168.046875 108.089844 172.261719 107.429688 176.160156 C 111.929688 168.515625 116.78125 161.179688 121.992188 154.21875 C 117.214844 149.5625 114.011719 141.933594 113.816406 133.234375 C 113.640625 125.183594 116.074219 117.890625 120.050781 112.925781 C 120.570312 117.425781 121.738281 124.1875 123.136719 126.4375 C 124.429688 124.105469 125.292969 117.28125 125.613281 112.753906 C 129.808594 117.464844 132.5625 124.597656 132.742188 132.644531 C 132.816406 136.007812 132.4375 139.238281 131.675781 142.222656 C 136.6875 136.46875 141.984375 131.042969 147.574219 125.996094 C 143.933594 120.667969 142.121094 113.046875 143.128906 105.019531 C 144.089844 97.371094 147.417969 90.949219 151.878906 87.035156 C 151.738281 91.390625 151.890625 98.015625 152.898438 100.417969 C 154.449219 98.464844 156.226562 92.179688 157.164062 87.960938 C 160.46875 93.238281 162.074219 100.519531 161.109375 108.167969 C 160.730469 111.191406 159.980469 114.019531 158.9375 116.582031 C 164.449219 112.40625 170.21875 108.578125 176.246094 105.136719 C 173.410156 99.347656 172.691406 91.621094 174.820312 84.074219 C 176.804688 77.027344 180.855469 71.605469 185.625 68.773438 C 184.878906 72.871094 184.09375 79.164062 184.703125 81.632812 C 186.449219 80.085938 189.011719 74.492188 190.492188 70.683594 C 192.875 76.320312 193.371094 83.527344 191.382812 90.570312 C 190.441406 93.917969 189.035156 96.894531 187.304688 99.40625 C 193.472656 96.519531 199.890625 94.023438 206.566406 91.953125 Z M 257.9375 58.230469 C 258.503906 64 257.015625 70.429688 253.421875 75.804688 C 249.066406 82.3125 242.71875 85.636719 236.90625 85.164062 C 235.167969 78.601562 236.429688 70.546875 240.785156 64.035156 C 244.378906 58.660156 249.335938 55.457031 254.222656 54.769531 C 252.488281 58.042969 250.132812 63.210938 250.007812 65.578125 C 251.929688 64.882812 255.640625 60.980469 257.9375 58.230469 Z M 257.9375 58.230469 " fill-opacity="1" fill-rule="evenodd"/></g></svg>