<svg xmlns="http://www.w3.org/2000/svg" xmlns:xlink="http://www.w3.org/1999/xlink" width="1000" zoomAndPan="magnify" viewBox="0 0 750 749.999995" height="1000" preserveAspectRatio="xMidYMid meet" version="1.0"><defs><clipPath id="a062b79e38"><path d="M 42.128906 42.128906 L 708 42.128906 L 708 708 L 42.128906 708 Z M 42.128906 42.128906 " clip-rule="nonzero"/></clipPath></defs><path fill="#00339f" d="M 582.703125 374.996094 C 582.703125 364.722656 581.941406 354.628906 580.492188 344.753906 C 580.46875 344.636719 580.457031 344.515625 580.441406 344.398438 C 580.25 343.113281 580.042969 341.832031 579.828125 340.554688 C 579.746094 340.070312 579.667969 339.589844 579.585938 339.105469 C 579.417969 338.144531 579.238281 337.191406 579.054688 336.238281 C 578.902344 335.429688 578.75 334.613281 578.582031 333.804688 C 578.453125 333.15625 578.3125 332.507812 578.175781 331.851562 C 577.941406 330.738281 577.699219 329.617188 577.449219 328.511719 C 577.367188 328.152344 577.277344 327.789062 577.195312 327.429688 C 576.871094 326.03125 576.523438 324.636719 576.171875 323.25 C 576.152344 323.160156 576.125 323.070312 576.101562 322.980469 C 569.824219 298.617188 559.128906 275.625 544.425781 254.976562 C 544.335938 254.84375 544.238281 254.71875 544.148438 254.589844 C 543.347656 253.464844 542.535156 252.351562 541.703125 251.238281 C 541.378906 250.804688 541.046875 250.367188 540.722656 249.941406 C 540.117188 249.136719 539.507812 248.34375 538.894531 247.550781 C 538.304688 246.796875 537.71875 246.058594 537.117188 245.316406 C 536.738281 244.839844 536.355469 244.371094 535.976562 243.902344 C 535.113281 242.84375 534.242188 241.800781 533.359375 240.757812 C 533.21875 240.59375 533.082031 240.433594 532.945312 240.265625 C 529.605469 236.363281 526.140625 232.585938 522.527344 228.9375 C 522.332031 228.675781 522.125 228.410156 521.882812 228.175781 C 521.648438 227.941406 521.394531 227.734375 521.128906 227.542969 C 514.996094 221.460938 508.488281 215.769531 501.640625 210.484375 C 501.371094 210.277344 501.101562 210.070312 500.839844 209.867188 C 499.894531 209.144531 498.9375 208.425781 497.980469 207.71875 C 497.417969 207.304688 496.867188 206.90625 496.300781 206.496094 C 495.621094 206.007812 494.945312 205.523438 494.261719 205.039062 C 493.425781 204.445312 492.574219 203.863281 491.734375 203.285156 C 491.320312 203 490.902344 202.71875 490.484375 202.441406 C 489.378906 201.695312 488.265625 200.964844 487.144531 200.246094 C 486.972656 200.132812 486.800781 200.023438 486.628906 199.914062 C 471.109375 189.964844 454.410156 182.179688 436.910156 176.71875 C 436.789062 176.679688 436.65625 176.636719 436.53125 176.601562 C 435.15625 176.175781 433.78125 175.765625 432.402344 175.375 C 432.054688 175.277344 431.710938 175.171875 431.363281 175.074219 C 430.210938 174.75 429.058594 174.441406 427.902344 174.136719 C 427.324219 173.984375 426.742188 173.832031 426.15625 173.679688 C 425.25 173.453125 424.339844 173.230469 423.425781 173.011719 C 422.589844 172.808594 421.761719 172.609375 420.917969 172.421875 C 420.277344 172.277344 419.625 172.140625 418.976562 172 C 417.878906 171.765625 416.78125 171.53125 415.675781 171.3125 C 415.308594 171.234375 414.941406 171.171875 414.574219 171.105469 C 413.195312 170.835938 411.8125 170.578125 410.421875 170.335938 C 410.367188 170.328125 410.304688 170.316406 410.25 170.308594 C 398.789062 168.339844 387.011719 167.304688 374.988281 167.304688 C 260.460938 167.304688 167.28125 260.484375 167.28125 375.015625 C 167.28125 381.539062 167.601562 387.992188 168.195312 394.359375 C 168.214844 394.574219 168.230469 394.789062 168.25 394.996094 C 168.375 396.261719 168.503906 397.519531 168.652344 398.777344 C 168.707031 399.257812 168.761719 399.734375 168.816406 400.21875 C 168.941406 401.261719 169.078125 402.300781 169.222656 403.335938 C 169.320312 404.054688 169.425781 404.773438 169.527344 405.492188 C 169.652344 406.3125 169.777344 407.136719 169.910156 407.957031 C 170.058594 408.917969 170.21875 409.871094 170.386719 410.824219 C 170.488281 411.417969 170.59375 412.011719 170.703125 412.605469 C 170.921875 413.824219 171.160156 415.03125 171.402344 416.242188 C 171.46875 416.585938 171.539062 416.925781 171.609375 417.269531 C 171.917969 418.777344 172.25 420.277344 172.589844 421.773438 C 172.601562 421.832031 172.609375 421.878906 172.625 421.933594 C 178.683594 448.1875 189.8125 472.957031 205.542969 495.035156 C 205.773438 495.359375 206.011719 495.683594 206.25 496.011719 C 206.90625 496.921875 207.5625 497.828125 208.230469 498.730469 C 208.957031 499.707031 209.695312 500.667969 210.433594 501.625 C 210.621094 501.867188 210.800781 502.101562 210.988281 502.34375 C 220.660156 514.78125 231.722656 526.089844 243.921875 536.046875 C 244.011719 536.117188 244.09375 536.183594 244.183594 536.253906 C 245.3125 537.164062 246.445312 538.070312 247.582031 538.960938 C 248 539.285156 248.414062 539.597656 248.828125 539.914062 C 249.648438 540.542969 250.472656 541.171875 251.300781 541.792969 C 252.101562 542.386719 252.910156 542.976562 253.71875 543.554688 C 254.175781 543.886719 254.628906 544.21875 255.085938 544.542969 C 256.335938 545.433594 257.601562 546.304688 258.871094 547.167969 C 258.898438 547.191406 258.921875 547.203125 258.949219 547.226562 C 275.757812 558.609375 294.03125 567.398438 313.265625 573.375 C 313.300781 573.386719 313.335938 573.394531 313.367188 573.410156 C 314.855469 573.871094 316.347656 574.3125 317.847656 574.742188 C 318.273438 574.867188 318.703125 574.984375 319.136719 575.101562 C 320.230469 575.40625 321.328125 575.710938 322.425781 575.992188 C 323.171875 576.1875 323.925781 576.371094 324.679688 576.566406 C 325.453125 576.757812 326.226562 576.953125 327 577.132812 C 328.023438 577.375 329.046875 577.601562 330.074219 577.832031 C 330.570312 577.941406 331.0625 578.050781 331.558594 578.15625 C 332.824219 578.425781 334.09375 578.679688 335.367188 578.929688 C 335.609375 578.976562 335.84375 579.019531 336.085938 579.066406 C 348.6875 581.464844 361.6875 582.734375 374.980469 582.734375 C 489.507812 582.734375 582.6875 489.558594 582.6875 375.023438 Z M 274.039062 485.039062 C 275.246094 483.828125 275.910156 482.234375 275.910156 480.519531 C 275.910156 478.808594 275.246094 477.203125 274.039062 476.003906 C 272.835938 474.792969 271.234375 474.128906 269.519531 474.128906 C 267.804688 474.128906 266.214844 474.792969 265 476.003906 L 232.867188 508.128906 C 200.195312 473.265625 180.152344 426.429688 180.152344 374.996094 C 180.152344 267.558594 267.558594 180.148438 374.988281 180.148438 C 426.425781 180.148438 473.265625 200.195312 508.128906 232.875 L 425.472656 315.53125 C 422.976562 318.027344 422.976562 322.074219 425.472656 324.570312 C 426.679688 325.777344 428.28125 326.441406 429.988281 326.441406 C 431.695312 326.441406 433.296875 325.777344 434.507812 324.570312 L 517.15625 241.917969 C 549.800781 276.773438 569.824219 323.585938 569.824219 375.003906 C 569.824219 482.441406 482.421875 569.851562 374.988281 569.851562 C 323.574219 569.851562 276.757812 549.824219 241.90625 517.171875 Z M 274.039062 485.039062 " fill-opacity="1" fill-rule="nonzero"/><g clip-path="url(#a062b79e38)"><path fill="#00339f" d="M 374.996094 42.117188 C 191.457031 42.117188 42.136719 191.441406 42.136719 374.996094 C 42.136719 558.546875 191.457031 707.875 374.996094 707.875 C 558.535156 707.875 707.855469 558.546875 707.855469 374.996094 C 707.855469 191.441406 558.535156 42.117188 374.996094 42.117188 Z M 374.996094 695.011719 C 198.550781 695.011719 55 551.453125 55 374.996094 C 55 198.539062 198.550781 54.980469 374.996094 54.980469 C 551.4375 54.980469 694.988281 198.539062 694.988281 374.996094 C 694.988281 551.453125 551.4375 695.011719 374.996094 695.011719 Z M 374.996094 695.011719 " fill-opacity="1" fill-rule="nonzero"/></g><path fill="#00339f" d="M 467.433594 474.03125 C 474.308594 462.136719 474.308594 447.9375 467.433594 436.046875 L 449.5 404.988281 C 449.464844 404.917969 449.425781 404.847656 449.382812 404.78125 L 449.328125 404.675781 C 449.328125 404.675781 421.414062 356.335938 421.414062 356.335938 C 418.210938 350.78125 416.511719 344.457031 416.511719 338.074219 L 416.800781 296.019531 C 424.9375 293.320312 430.5 285.71875 430.5 277.007812 C 430.5 265.953125 421.503906 256.964844 410.445312 256.964844 L 340.210938 256.964844 C 329.148438 256.964844 320.152344 265.953125 320.152344 277.007812 C 320.152344 285.699219 325.6875 293.285156 333.785156 296 L 333.480469 338.027344 C 333.480469 344.445312 331.789062 350.773438 328.574219 356.335938 L 314.902344 380.039062 L 282.554688 436.054688 C 275.695312 447.9375 275.695312 462.136719 282.554688 474.039062 C 289.429688 485.929688 301.726562 493.023438 315.457031 493.023438 L 434.535156 493.023438 C 448.261719 493.023438 460.5625 485.929688 467.429688 474.039062 Z M 340.210938 269.746094 L 410.445312 269.746094 C 414.457031 269.746094 417.71875 273.007812 417.71875 277.007812 C 417.71875 281.007812 414.464844 284.269531 410.429688 284.285156 L 340.230469 284.285156 C 340.230469 284.285156 340.203125 284.285156 340.1875 284.285156 C 336.1875 284.277344 332.929688 281.007812 332.929688 277.007812 C 332.929688 273.007812 336.1875 269.746094 340.203125 269.746094 Z M 346.261719 338.074219 L 346.550781 297.066406 L 404.003906 297.066406 L 403.722656 338.027344 C 403.722656 346.691406 406.007812 355.230469 410.335938 362.71875 L 435.414062 406.167969 C 428.9375 410.285156 421.824219 412.453125 414.707031 412.453125 C 400.710938 412.453125 388.957031 404.847656 376.515625 396.800781 C 363.921875 388.648438 349.730469 379.472656 331.269531 377.214844 L 339.644531 362.710938 C 343.96875 355.222656 346.253906 346.691406 346.253906 338.0625 Z M 346.261719 338.074219 " fill-opacity="1" fill-rule="nonzero"/><path fill="#00339f" d="M 403.128906 402.5 C 410.726562 402.5 416.902344 396.316406 416.902344 388.722656 C 416.902344 381.128906 410.722656 374.945312 403.128906 374.945312 C 395.535156 374.945312 389.351562 381.128906 389.351562 388.722656 C 389.351562 396.316406 395.535156 402.5 403.128906 402.5 Z M 403.128906 402.5 " fill-opacity="1" fill-rule="nonzero"/><path fill="#00339f" d="M 359.714844 379.085938 C 365.695312 379.085938 370.566406 374.214844 370.566406 368.230469 C 370.566406 362.25 365.695312 357.378906 359.714844 357.378906 C 353.730469 357.378906 348.859375 362.25 348.859375 368.230469 C 348.859375 374.214844 353.730469 379.085938 359.714844 379.085938 Z M 359.714844 379.085938 " fill-opacity="1" fill-rule="nonzero"/><path fill="#00339f" d="M 384.59375 353.714844 C 388.957031 353.714844 392.515625 350.160156 392.515625 345.792969 C 392.515625 341.425781 388.957031 337.867188 384.59375 337.867188 C 380.226562 337.867188 376.667969 341.425781 376.667969 345.792969 C 376.667969 350.160156 380.226562 353.714844 384.59375 353.714844 Z M 384.59375 353.714844 " fill-opacity="1" fill-rule="nonzero"/><path fill="#00339f" d="M 159.558594 265.878906 L 120.800781 240.460938 C 117.007812 237.972656 116.019531 234.367188 118.328125 230.851562 C 119.769531 228.648438 121.140625 227.464844 123.992188 227.167969 L 166.847656 223.023438 L 166.9375 222.886719 L 142.730469 207.007812 C 138.9375 204.519531 137.988281 200.847656 140.296875 197.328125 C 142.644531 193.742188 146.347656 193.210938 150.140625 195.699219 L 188.902344 221.117188 C 192.695312 223.601562 193.679688 227.210938 191.375 230.726562 C 189.921875 232.929688 188.542969 233.996094 185.707031 234.410156 L 142.851562 238.554688 L 142.761719 238.691406 L 166.972656 254.570312 C 170.765625 257.054688 171.703125 260.730469 169.402344 264.246094 C 167.054688 267.832031 163.351562 268.367188 159.558594 265.878906 Z M 159.558594 265.878906 " fill-opacity="1" fill-rule="nonzero"/><path fill="#00339f" d="M 185.910156 189.253906 C 174.8125 175.316406 177.285156 156.589844 191.734375 145.078125 C 206.179688 133.566406 224.992188 135.34375 236.09375 149.277344 C 247.191406 163.214844 244.714844 181.945312 230.269531 193.453125 C 215.824219 204.964844 197.011719 203.1875 185.910156 189.253906 Z M 225.578125 157.652344 C 218.898438 149.265625 207.835938 147.960938 199.386719 154.6875 C 190.9375 161.417969 189.742188 172.492188 196.425781 180.878906 C 203.105469 189.265625 214.164062 190.574219 222.617188 183.84375 C 231.066406 177.113281 232.261719 166.039062 225.578125 157.652344 Z M 225.578125 157.652344 " fill-opacity="1" fill-rule="nonzero"/><path fill="#00339f" d="M 354.925781 131.566406 C 355.617188 132.429688 356.078125 133.429688 356.320312 134.554688 C 357.054688 138.023438 354.828125 141.445312 351.359375 142.183594 C 348.777344 142.730469 346.296875 141.742188 344.699219 139.800781 L 338.214844 131.480469 L 309.894531 137.484375 L 307.261719 147.738281 C 306.675781 150.136719 304.800781 152.050781 302.140625 152.617188 C 298.675781 153.347656 295.253906 151.125 294.515625 147.65625 C 294.273438 146.527344 294.375 145.410156 294.578125 144.351562 L 307.703125 93.351562 C 308.5625 90.222656 310.945312 88.363281 314.09375 87.699219 C 317.320312 87.015625 320.257812 87.742188 322.226562 90.277344 L 354.917969 131.566406 Z M 317.285156 103.128906 L 311.738281 125.886719 L 331.824219 121.628906 L 317.4375 103.101562 L 317.28125 103.136719 Z M 317.285156 103.128906 " fill-opacity="1" fill-rule="nonzero"/><path fill="#00339f" d="M 381.027344 141.417969 C 374.710938 140.78125 371.753906 137.167969 372.398438 130.847656 L 376.507812 90.152344 C 377.144531 83.839844 380.757812 80.886719 387.078125 81.523438 L 399.714844 82.800781 C 421.050781 84.957031 432.628906 97.484375 430.734375 116.191406 C 428.84375 134.902344 414.992188 144.855469 393.664062 142.703125 L 381.027344 141.421875 Z M 386.179688 129.753906 L 394.304688 130.578125 C 407.679688 131.929688 416.308594 126.085938 417.441406 114.84375 C 418.578125 103.605469 411.292969 96.15625 397.917969 94.804688 L 389.792969 93.980469 Z M 386.179688 129.753906 " fill-opacity="1" fill-rule="nonzero"/><path fill="#00339f" d="M 451.855469 154.316406 C 446.03125 151.792969 444.3125 147.453125 446.832031 141.628906 L 463.074219 104.09375 C 465.597656 98.269531 469.9375 96.550781 475.761719 99.074219 L 487.414062 104.117188 C 507.089844 112.628906 514.339844 128.074219 506.871094 145.328125 C 499.402344 162.585938 483.1875 167.878906 463.511719 159.359375 Z M 460.304688 144.761719 L 467.792969 148 C 480.132812 153.339844 490.125 150.382812 494.605469 140.015625 C 499.089844 129.644531 494.40625 120.335938 482.066406 115.003906 L 474.578125 111.765625 L 460.296875 144.761719 Z M 460.304688 144.761719 " fill-opacity="1" fill-rule="nonzero"/><path fill="#00339f" d="M 515.4375 188.464844 C 510.613281 184.332031 510.25 179.683594 514.378906 174.863281 L 540.980469 143.785156 C 545.109375 138.964844 549.761719 138.597656 554.582031 142.730469 L 580.207031 164.664062 C 583.34375 167.34375 583.648438 170.535156 581.230469 173.355469 C 578.761719 176.238281 575.613281 176.367188 572.484375 173.679688 L 549.863281 154.320312 L 542.140625 163.34375 L 564.636719 182.601562 C 567.640625 185.175781 567.9375 188.25 565.582031 191.007812 C 563.21875 193.765625 560.191406 193.882812 557.179688 191.3125 L 534.683594 172.058594 L 526.160156 182.019531 L 548.777344 201.378906 C 551.910156 204.058594 552.273438 207.1875 549.800781 210.070312 C 547.390625 212.886719 544.183594 213.082031 541.054688 210.394531 L 515.429688 188.457031 Z M 515.4375 188.464844 " fill-opacity="1" fill-rule="nonzero"/><path fill="#00339f" d="M 562.429688 235.519531 C 559.023438 230.160156 560.039062 225.605469 565.394531 222.199219 L 599.917969 200.257812 C 605.277344 196.851562 609.832031 197.867188 613.238281 203.230469 L 620.050781 213.945312 C 631.554688 232.039062 628.871094 248.890625 613.003906 258.976562 C 597.132812 269.0625 580.738281 264.335938 569.234375 246.238281 L 562.425781 235.519531 Z M 574.785156 232.363281 L 579.164062 239.25 C 586.375 250.597656 596.304688 253.765625 605.839844 247.703125 C 615.371094 241.640625 616.71875 231.308594 609.507812 219.960938 L 605.128906 213.074219 Z M 574.785156 232.363281 " fill-opacity="1" fill-rule="nonzero"/><path fill="#00339f" d="M 89.863281 336.570312 L 133.4375 338.578125 C 139.695312 338.871094 142.847656 342.234375 142.554688 348.492188 L 141.878906 363.238281 C 140.96875 383.085938 132.574219 393.1875 117.746094 392.503906 C 102.835938 391.820312 95.410156 380.992188 96.328125 361.136719 L 96.8125 350.675781 L 89.234375 350.324219 C 84.621094 350.109375 81.9375 347.429688 82.140625 343.144531 C 82.339844 338.78125 85.261719 336.355469 89.871094 336.570312 Z M 108.503906 351.207031 L 108.011719 361.835938 C 107.496094 373.039062 110.941406 378.808594 118.277344 379.148438 C 125.691406 379.484375 129.65625 374.0625 130.175781 362.855469 L 130.667969 352.230469 L 108.511719 351.207031 Z M 108.503906 351.207031 " fill-opacity="1" fill-rule="nonzero"/><path fill="#00339f" d="M 107.398438 468.78125 C 106.71875 470.820312 105.402344 472 103.480469 472.484375 C 99.796875 473.40625 96.039062 471.628906 95.058594 467.703125 C 94.636719 466.027344 94.996094 464.402344 95.578125 462.640625 L 106.257812 429.871094 L 106.214844 429.714844 L 93.972656 432.773438 C 89.496094 433.894531 86.152344 432.097656 85.109375 427.929688 C 84.054688 423.6875 86.152344 420.53125 90.628906 419.414062 L 132.953125 408.828125 C 139.03125 407.308594 143.011719 409.628906 144.53125 415.710938 L 148.710938 432.429688 C 153.132812 450.109375 148.671875 461.175781 135.792969 464.394531 C 125.3125 467.015625 117.386719 462.535156 112.386719 451.371094 L 107.382812 468.777344 Z M 134.300781 422.695312 L 116.296875 427.199219 L 119.355469 439.441406 C 121.761719 449.042969 125.921875 453.097656 132 451.578125 C 137.921875 450.101562 139.757812 444.539062 137.359375 434.9375 Z M 134.300781 422.695312 " fill-opacity="1" fill-rule="nonzero"/><path fill="#00339f" d="M 114.796875 511.914062 C 111.5625 506.449219 112.722656 501.929688 118.1875 498.699219 L 153.390625 477.875 C 158.855469 474.640625 163.371094 475.800781 166.605469 481.265625 L 183.773438 510.296875 C 185.875 513.847656 185.136719 516.964844 181.9375 518.855469 C 178.667969 520.792969 175.648438 519.894531 173.550781 516.34375 L 158.390625 490.71875 L 148.171875 496.761719 L 163.242188 522.242188 C 165.257812 525.648438 164.546875 528.652344 161.425781 530.503906 C 158.300781 532.351562 155.394531 531.488281 153.375 528.082031 L 138.308594 502.601562 L 127.027344 509.273438 L 142.183594 534.898438 C 144.285156 538.449219 143.613281 541.523438 140.34375 543.460938 C 137.152344 545.34375 134.058594 544.496094 131.957031 540.945312 L 114.789062 511.914062 Z M 114.796875 511.914062 " fill-opacity="1" fill-rule="nonzero"/><path fill="#00339f" d="M 159.910156 572.042969 C 158.722656 569.097656 158.53125 566.300781 160.628906 564.089844 C 162.957031 561.636719 166.5625 561.421875 169.203125 563.917969 C 170.28125 564.9375 171.132812 566.195312 171.988281 567.804688 C 175.242188 573.84375 177.011719 576.65625 181.4375 580.855469 C 187.242188 586.363281 191.53125 587.46875 194.425781 584.421875 C 197.148438 581.546875 195.707031 577.796875 188.699219 568.648438 C 177.722656 555.058594 176.265625 546.402344 183.644531 538.625 C 191.46875 530.359375 202.664062 532.109375 214.871094 543.679688 C 220.4375 548.957031 225.398438 555.589844 227.75 560.664062 C 229.234375 563.769531 229.066406 566.457031 227.140625 568.496094 C 224.757812 571.011719 221.144531 571.226562 218.574219 568.785156 C 217.433594 567.710938 216.703125 566.445312 215.601562 564.488281 C 213.386719 560 210.234375 555.648438 206.222656 551.847656 C 200.472656 546.402344 196.355469 545.109375 193.578125 548.039062 C 190.964844 550.789062 192.285156 554.3125 199.296875 563.460938 C 210.402344 577.285156 211.804688 585.996094 204.3125 593.894531 C 196.3125 602.328125 185.011719 600.59375 172.796875 589.015625 C 167.109375 583.628906 162.101562 577.285156 159.917969 572.035156 Z M 159.910156 572.042969 " fill-opacity="1" fill-rule="nonzero"/><path fill="#00339f" d="M 227.175781 629.167969 C 221.539062 626.246094 220.121094 621.804688 223.042969 616.160156 L 241.855469 579.835938 C 244.777344 574.195312 249.222656 572.78125 254.867188 575.703125 L 284.820312 591.21875 C 288.484375 593.121094 289.511719 596.152344 287.808594 599.457031 C 286.058594 602.828125 283.027344 603.664062 279.363281 601.769531 L 252.925781 588.078125 L 247.460938 598.625 L 273.753906 612.242188 C 277.269531 614.066406 278.257812 616.988281 276.59375 620.214844 C 274.929688 623.441406 272 624.242188 268.484375 622.425781 L 242.1875 608.808594 L 236.15625 620.457031 L 262.597656 634.152344 C 266.257812 636.050781 267.320312 639.015625 265.582031 642.378906 C 263.875 645.675781 260.800781 646.59375 257.136719 644.695312 L 227.183594 629.175781 Z M 227.175781 629.167969 " fill-opacity="1" fill-rule="nonzero"/><path fill="#00339f" d="M 346.863281 657.089844 C 348.425781 658.566406 348.941406 660.257812 348.570312 662.199219 C 347.851562 665.925781 344.652344 668.585938 340.6875 667.824219 C 338.988281 667.5 337.667969 666.492188 336.3125 665.21875 L 311.101562 641.730469 L 310.945312 641.703125 L 308.5625 654.089844 C 307.691406 658.621094 304.648438 660.894531 300.4375 660.085938 C 296.144531 659.265625 294.164062 656.023438 295.035156 651.492188 L 303.269531 608.652344 C 304.449219 602.496094 308.230469 599.863281 314.386719 601.050781 L 331.3125 604.304688 C 349.203125 607.746094 357.359375 616.449219 354.847656 629.488281 C 352.8125 640.097656 345.414062 645.390625 333.183594 645.226562 L 346.855469 657.089844 Z M 316.402344 613.273438 L 312.898438 631.492188 L 325.285156 633.875 C 335 635.738281 340.4375 633.679688 341.621094 627.527344 C 342.773438 621.535156 338.503906 617.523438 328.789062 615.65625 Z M 316.402344 613.273438 " fill-opacity="1" fill-rule="nonzero"/><path fill="#00339f" d="M 381.503906 612.265625 L 402.808594 650.144531 L 402.976562 650.132812 L 416.289062 608.761719 C 417.132812 606.441406 419.28125 604.726562 421.90625 604.464844 C 425.519531 604.097656 428.59375 606.6875 428.953125 610.21875 C 429.070312 611.367188 428.933594 612.457031 428.621094 613.488281 L 411.613281 662.609375 C 410.589844 665.613281 407.929688 667.210938 404.648438 667.535156 C 401.449219 667.859375 398.527344 666.824219 396.839844 664.09375 L 370.449219 619.351562 C 369.9375 618.40625 369.503906 617.375 369.386719 616.230469 C 369.027344 612.699219 371.609375 609.542969 375.140625 609.183594 C 377.847656 608.90625 380.292969 610.15625 381.503906 612.269531 Z M 381.503906 612.265625 " fill-opacity="1" fill-rule="nonzero"/><path fill="#00339f" d="M 506.386719 629.15625 C 507.203125 629.902344 507.824219 630.8125 508.238281 631.886719 C 509.515625 635.195312 507.867188 638.925781 504.5625 640.203125 C 502.101562 641.15625 499.492188 640.574219 497.613281 638.910156 L 489.886719 631.734375 L 462.894531 642.171875 L 461.9375 652.714844 C 461.742188 655.179688 460.195312 657.363281 457.660156 658.34375 C 454.351562 659.625 450.617188 657.972656 449.339844 654.671875 C 448.925781 653.59375 448.84375 652.472656 448.871094 651.402344 L 453.699219 598.964844 C 454.046875 595.738281 456.105469 593.527344 459.101562 592.367188 C 462.175781 591.179688 465.191406 591.425781 467.539062 593.609375 L 506.394531 629.15625 Z M 464.691406 607.082031 L 462.847656 630.425781 L 482 623.019531 L 464.84375 607.019531 Z M 464.691406 607.082031 " fill-opacity="1" fill-rule="nonzero"/><path fill="#00339f" d="M 536.558594 611.855469 L 512.804688 578.851562 L 500.085938 588.007812 C 496.535156 590.5625 493.183594 590.128906 490.871094 586.914062 C 488.554688 583.703125 489.21875 580.378906 492.761719 577.832031 L 529.449219 551.433594 C 532.929688 548.925781 536.289062 549.359375 538.59375 552.570312 C 540.910156 555.785156 540.246094 559.109375 536.765625 561.609375 L 524.046875 570.761719 L 547.796875 603.765625 C 550.539062 607.578125 550.058594 611.28125 546.511719 613.839844 C 542.960938 616.394531 539.300781 615.675781 536.558594 611.863281 Z M 536.558594 611.855469 " fill-opacity="1" fill-rule="nonzero"/><path fill="#00339f" d="M 583.980469 571.019531 L 549.808594 540.433594 C 546.242188 537.242188 545.910156 533.40625 548.828125 530.144531 C 551.742188 526.890625 555.589844 526.796875 559.15625 529.980469 L 593.328125 560.566406 C 596.890625 563.757812 597.222656 567.589844 594.308594 570.851562 C 591.390625 574.105469 587.542969 574.210938 583.980469 571.019531 Z M 583.980469 571.019531 " fill-opacity="1" fill-rule="nonzero"/><path fill="#00339f" d="M 573.449219 505.328125 L 616.714844 509.480469 L 616.796875 509.335938 L 590.445312 474.773438 C 589.023438 472.753906 588.84375 470.011719 590.128906 467.703125 C 591.890625 464.535156 595.773438 463.484375 598.875 465.210938 C 599.882812 465.769531 600.699219 466.507812 601.363281 467.351562 L 631.960938 509.371094 C 633.839844 511.925781 633.632812 515.015625 632.03125 517.902344 C 630.46875 520.714844 627.953125 522.527344 624.746094 522.347656 L 572.945312 518.449219 C 571.882812 518.332031 570.785156 518.097656 569.773438 517.539062 C 566.671875 515.816406 565.554688 511.894531 567.28125 508.792969 C 568.601562 506.414062 571.023438 505.117188 573.449219 505.335938 Z M 573.449219 505.328125 " fill-opacity="1" fill-rule="nonzero"/><path fill="#00339f" d="M 658.171875 454.011719 C 656.769531 460.207031 652.824219 462.695312 646.628906 461.292969 L 606.730469 452.261719 C 600.53125 450.859375 598.046875 446.914062 599.449219 440.71875 L 606.894531 407.820312 C 607.808594 403.796875 610.488281 402.035156 614.109375 402.851562 C 617.8125 403.6875 619.394531 406.417969 618.480469 410.4375 L 611.910156 439.476562 L 623.496094 442.09375 L 630.035156 413.214844 C 630.902344 409.351562 633.488281 407.652344 637.03125 408.453125 C 640.570312 409.257812 642.089844 411.882812 641.21875 415.742188 L 634.683594 444.621094 L 647.472656 447.515625 L 654.042969 418.480469 C 654.953125 414.457031 657.550781 412.675781 661.253906 413.519531 C 664.875 414.339844 666.539062 417.082031 665.628906 421.105469 L 658.179688 454.003906 Z M 658.171875 454.011719 " fill-opacity="1" fill-rule="nonzero"/><path fill="#00339f" d="M 666.664062 379.3125 C 665.511719 382.269531 663.726562 384.433594 660.679688 384.605469 C 657.300781 384.792969 654.53125 382.472656 654.332031 378.851562 C 654.25 377.367188 654.496094 375.867188 654.972656 374.105469 C 656.75 367.480469 657.390625 364.226562 657.054688 358.132812 C 656.605469 350.144531 654.25 346.394531 650.046875 346.628906 C 646.097656 346.847656 644.570312 350.566406 643.394531 362.035156 C 642.054688 379.457031 637.175781 386.746094 626.476562 387.347656 C 615.109375 387.984375 608.167969 379.039062 607.226562 362.242188 C 606.800781 354.585938 607.738281 346.351562 609.507812 341.050781 C 610.5625 337.769531 612.527344 335.925781 615.324219 335.773438 C 618.785156 335.582031 621.554688 337.902344 621.757812 341.445312 C 621.847656 343.007812 621.507812 344.429688 620.96875 346.613281 C 619.503906 351.402344 618.804688 356.730469 619.117188 362.25 C 619.558594 370.152344 621.671875 373.917969 625.707031 373.691406 C 629.496094 373.476562 630.953125 370.007812 632.125 358.546875 C 633.527344 340.875 638.488281 333.578125 649.363281 332.960938 C 660.976562 332.3125 668.003906 341.335938 668.945312 358.132812 C 669.378906 365.953125 668.675781 374.007812 666.664062 379.320312 Z M 666.664062 379.3125 " fill-opacity="1" fill-rule="nonzero"/><path fill="#00339f" d="M 134.132812 295.585938 C 134.132812 296.296875 134.066406 297.003906 133.925781 297.703125 C 133.785156 298.402344 133.582031 299.082031 133.308594 299.738281 C 133.035156 300.398438 132.703125 301.023438 132.304688 301.617188 C 131.910156 302.207031 131.460938 302.757812 130.957031 303.261719 C 130.453125 303.765625 129.902344 304.214844 129.3125 304.609375 C 128.71875 305.007812 128.09375 305.339844 127.433594 305.613281 C 126.777344 305.886719 126.097656 306.09375 125.398438 306.230469 C 124.699219 306.371094 123.992188 306.441406 123.28125 306.441406 C 122.566406 306.441406 121.863281 306.371094 121.164062 306.230469 C 120.464844 306.09375 119.785156 305.886719 119.128906 305.613281 C 118.46875 305.339844 117.84375 305.007812 117.25 304.609375 C 116.660156 304.214844 116.109375 303.765625 115.605469 303.261719 C 115.101562 302.757812 114.652344 302.207031 114.257812 301.617188 C 113.859375 301.023438 113.527344 300.398438 113.253906 299.738281 C 112.980469 299.082031 112.773438 298.402344 112.636719 297.703125 C 112.496094 297.003906 112.425781 296.296875 112.425781 295.585938 C 112.425781 294.875 112.496094 294.167969 112.636719 293.46875 C 112.773438 292.769531 112.980469 292.089844 113.253906 291.433594 C 113.527344 290.773438 113.859375 290.148438 114.257812 289.554688 C 114.652344 288.964844 115.101562 288.414062 115.605469 287.910156 C 116.109375 287.40625 116.660156 286.957031 117.25 286.5625 C 117.84375 286.164062 118.46875 285.832031 119.128906 285.558594 C 119.785156 285.285156 120.464844 285.078125 121.164062 284.941406 C 121.863281 284.800781 122.566406 284.730469 123.28125 284.730469 C 123.992188 284.730469 124.699219 284.800781 125.398438 284.941406 C 126.097656 285.078125 126.777344 285.285156 127.433594 285.558594 C 128.09375 285.832031 128.71875 286.164062 129.3125 286.5625 C 129.902344 286.957031 130.453125 287.40625 130.957031 287.910156 C 131.460938 288.414062 131.910156 288.964844 132.304688 289.554688 C 132.703125 290.148438 133.035156 290.773438 133.308594 291.433594 C 133.582031 292.089844 133.785156 292.769531 133.925781 293.46875 C 134.066406 294.167969 134.132812 294.875 134.132812 295.585938 Z M 134.132812 295.585938 " fill-opacity="1" fill-rule="nonzero"/><path fill="#00339f" d="M 637.632812 295.585938 C 637.632812 296.296875 637.5625 297.003906 637.425781 297.703125 C 637.285156 298.402344 637.078125 299.082031 636.808594 299.738281 C 636.535156 300.398438 636.199219 301.023438 635.804688 301.617188 C 635.40625 302.207031 634.957031 302.757812 634.453125 303.261719 C 633.949219 303.765625 633.402344 304.214844 632.808594 304.609375 C 632.214844 305.007812 631.589844 305.339844 630.933594 305.613281 C 630.273438 305.886719 629.59375 306.09375 628.898438 306.230469 C 628.199219 306.371094 627.492188 306.441406 626.777344 306.441406 C 626.066406 306.441406 625.359375 306.371094 624.660156 306.230469 C 623.960938 306.09375 623.285156 305.886719 622.625 305.613281 C 621.96875 305.339844 621.339844 305.007812 620.75 304.609375 C 620.15625 304.214844 619.609375 303.765625 619.105469 303.261719 C 618.601562 302.757812 618.152344 302.207031 617.753906 301.617188 C 617.359375 301.023438 617.023438 300.398438 616.75 299.738281 C 616.480469 299.082031 616.273438 298.402344 616.132812 297.703125 C 615.996094 297.003906 615.925781 296.296875 615.925781 295.585938 C 615.925781 294.875 615.996094 294.167969 616.132812 293.46875 C 616.273438 292.769531 616.480469 292.089844 616.75 291.433594 C 617.023438 290.773438 617.359375 290.148438 617.753906 289.554688 C 618.152344 288.964844 618.601562 288.414062 619.105469 287.910156 C 619.609375 287.40625 620.15625 286.957031 620.75 286.5625 C 621.339844 286.164062 621.96875 285.832031 622.625 285.558594 C 623.285156 285.285156 623.960938 285.078125 624.660156 284.941406 C 625.359375 284.800781 626.066406 284.730469 626.777344 284.730469 C 627.492188 284.730469 628.199219 284.800781 628.898438 284.941406 C 629.59375 285.078125 630.273438 285.285156 630.933594 285.558594 C 631.589844 285.832031 632.214844 286.164062 632.808594 286.5625 C 633.402344 286.957031 633.949219 287.40625 634.453125 287.910156 C 634.957031 288.414062 635.40625 288.964844 635.804688 289.554688 C 636.199219 290.148438 636.535156 290.773438 636.808594 291.433594 C 637.078125 292.089844 637.285156 292.769531 637.425781 293.46875 C 637.5625 294.167969 637.632812 294.875 637.632812 295.585938 Z M 637.632812 295.585938 " fill-opacity="1" fill-rule="nonzero"/></svg>