<svg xmlns="http://www.w3.org/2000/svg" xmlns:xlink="http://www.w3.org/1999/xlink" width="1000" zoomAndPan="magnify" viewBox="0 0 750 749.999995" height="1000" preserveAspectRatio="xMidYMid meet" version="1.0"><defs><g/><clipPath id="1a17882aa8"><path d="M 0.652344 101 L 202 101 L 202 467.074219 L 0.652344 467.074219 Z M 0.652344 101 " clip-rule="nonzero"/></clipPath><clipPath id="34da1c5fa9"><path d="M 263 101 L 459.191406 101 L 459.191406 467.074219 L 263 467.074219 Z M 263 101 " clip-rule="nonzero"/></clipPath><clipPath id="91c9adfab8"><path d="M 101 8.535156 L 364 8.535156 L 364 303 L 101 303 Z M 101 8.535156 " clip-rule="nonzero"/></clipPath><clipPath id="e53b49b436"><rect x="0" width="425" y="0" height="230"/></clipPath><clipPath id="4ce23491be"><rect x="0" width="465" y="0" height="728"/></clipPath></defs><g transform="matrix(1, 0, 0, 1, 132, 22)"><g clip-path="url(#4ce23491be)"><g clip-path="url(#1a17882aa8)"><path fill="#00339f" d="M 77.945312 435.648438 L 77.945312 472.300781 L 93.40625 472.300781 L 93.40625 433.65625 C 93.40625 432.355469 93.074219 431.058594 92.441406 429.910156 L 22.933594 304.789062 C 18.464844 296.757812 16.109375 287.671875 16.109375 278.492188 L 16.109375 132.207031 C 16.109375 123.691406 23.054688 116.746094 31.570312 116.746094 C 40.085938 116.746094 47.027344 123.691406 47.027344 132.207031 L 47.027344 243.136719 C 37.457031 254.335938 37.457031 270.972656 47.542969 282.054688 L 110.886719 351.710938 L 122.300781 341.292969 L 58.984375 271.636719 C 53.941406 266.082031 54.125 257.566406 59.4375 252.253906 C 62.214844 249.507812 65.929688 248.117188 69.765625 248.148438 C 73.660156 248.269531 77.222656 249.898438 79.820312 252.796875 L 134.046875 313.03125 C 134.589844 313.636719 135.644531 314.390625 136.371094 314.8125 C 167.078125 332.355469 186.160156 365.238281 186.160156 400.625 L 186.160156 472.300781 L 201.617188 472.300781 L 201.617188 395.007812 L 201.4375 395.007812 C 199.535156 356.691406 178.398438 321.546875 144.703125 301.800781 L 91.324219 242.472656 C 85.859375 236.371094 78.339844 232.929688 70.15625 232.6875 C 67.5 232.628906 64.964844 233.019531 62.488281 233.59375 L 62.488281 132.207031 C 62.488281 115.144531 48.628906 101.289062 31.570312 101.289062 C 14.511719 101.289062 0.652344 115.144531 0.652344 132.207031 L 0.652344 278.492188 C 0.652344 290.296875 3.671875 301.980469 9.410156 312.277344 L 77.945312 435.648438 " fill-opacity="1" fill-rule="nonzero"/></g><g clip-path="url(#34da1c5fa9)"><path fill="#00339f" d="M 433.503906 101.289062 C 416.441406 101.289062 402.585938 115.144531 402.585938 132.207031 L 402.585938 233.59375 C 400.109375 233.019531 397.542969 232.628906 394.914062 232.6875 C 386.734375 232.929688 379.214844 236.371094 373.75 242.472656 L 320.367188 301.769531 C 286.882812 321.214844 265.539062 356.511719 263.636719 395.007812 L 263.453125 395.007812 L 263.453125 472.300781 L 278.914062 472.300781 L 278.914062 400.625 C 278.914062 365.238281 297.996094 332.355469 329.0625 314.601562 C 329.789062 314.179688 330.453125 313.667969 331.027344 313.03125 L 385.253906 252.796875 C 387.851562 249.898438 391.414062 248.269531 395.308594 248.148438 C 399.292969 248.148438 402.855469 249.507812 405.632812 252.253906 C 410.949219 257.566406 411.128906 266.082031 406.085938 271.636719 L 342.769531 341.292969 L 354.183594 351.710938 L 417.53125 282.054688 C 427.613281 270.972656 427.613281 254.335938 418.042969 243.136719 L 418.042969 132.207031 C 418.042969 123.691406 424.988281 116.746094 433.503906 116.746094 C 442.015625 116.746094 448.960938 123.691406 448.960938 132.207031 L 448.960938 277.675781 C 448.960938 287.339844 446.363281 296.820312 441.382812 305.304688 L 372.632812 429.910156 C 372 431.058594 371.667969 432.355469 371.667969 433.65625 L 371.667969 472.300781 L 387.125 472.300781 L 387.125 435.648438 L 454.820312 312.972656 C 461.097656 302.285156 464.417969 290.085938 464.417969 277.675781 L 464.417969 132.207031 C 464.417969 115.144531 450.5625 101.289062 433.503906 101.289062 " fill-opacity="1" fill-rule="nonzero"/></g><g clip-path="url(#91c9adfab8)"><path fill="#00339f" d="M 348.476562 218.496094 L 240.265625 281.117188 L 240.265625 159.921875 L 348.476562 99.054688 Z M 232.535156 146.515625 L 183.019531 118.679688 L 290.929688 57.992188 L 340.445312 85.828125 Z M 224.804688 281.117188 L 116.59375 218.496094 L 116.59375 99.054688 L 224.804688 159.921875 Z M 232.535156 25.140625 L 275.167969 49.113281 L 167.257812 109.800781 L 124.625 85.828125 Z M 363.9375 222.964844 L 363.9375 85.828125 C 363.9375 85.132812 363.847656 84.46875 363.664062 83.804688 C 363.605469 83.59375 363.484375 83.382812 363.394531 83.171875 C 363.242188 82.75 363.121094 82.328125 362.878906 81.964844 C 362.757812 81.722656 362.578125 81.570312 362.425781 81.359375 C 362.1875 81.027344 361.972656 80.664062 361.671875 80.363281 C 361.492188 80.214844 361.28125 80.09375 361.097656 79.910156 C 360.765625 79.667969 360.464844 79.367188 360.101562 79.15625 C 360.101562 79.15625 360.070312 79.15625 360.042969 79.125 C 360.011719 79.125 360.011719 79.097656 359.980469 79.097656 L 236.308594 9.53125 C 233.957031 8.203125 231.117188 8.203125 228.761719 9.53125 L 105.089844 79.097656 C 105.058594 79.097656 105.058594 79.125 105.03125 79.125 C 105.03125 79.15625 104.96875 79.15625 104.96875 79.15625 C 104.609375 79.367188 104.304688 79.667969 103.972656 79.910156 C 103.792969 80.09375 103.582031 80.214844 103.398438 80.363281 C 103.097656 80.664062 102.886719 81.027344 102.644531 81.359375 C 102.492188 81.570312 102.3125 81.722656 102.191406 81.964844 C 101.949219 82.328125 101.828125 82.75 101.679688 83.171875 C 101.589844 83.382812 101.46875 83.59375 101.40625 83.804688 C 101.226562 84.46875 101.136719 85.132812 101.136719 85.828125 L 101.136719 222.964844 C 101.136719 225.746094 102.613281 228.28125 105 229.667969 L 228.671875 301.195312 C 228.671875 301.195312 228.671875 301.226562 228.671875 301.226562 C 229.125 301.5 229.636719 301.648438 230.152344 301.832031 C 230.273438 301.859375 230.390625 301.953125 230.542969 302.011719 C 231.207031 302.164062 231.871094 302.253906 232.535156 302.253906 C 233.199219 302.253906 233.863281 302.164062 234.527344 302.011719 C 234.679688 301.953125 234.800781 301.859375 234.921875 301.832031 C 235.433594 301.648438 235.949219 301.5 236.402344 301.226562 C 236.402344 301.226562 236.402344 301.195312 236.402344 301.195312 L 360.070312 229.667969 C 362.457031 228.28125 363.9375 225.746094 363.9375 222.964844 " fill-opacity="1" fill-rule="nonzero"/></g><path fill="#00339f" d="M 333.019531 201.769531 L 317.558594 201.769531 L 317.558594 217.230469 L 333.019531 217.230469 L 333.019531 201.769531 " fill-opacity="1" fill-rule="nonzero"/><path fill="#00339f" d="M 302.101562 217.230469 L 286.640625 217.230469 L 286.640625 232.6875 L 302.101562 232.6875 L 302.101562 217.230469 " fill-opacity="1" fill-rule="nonzero"/><path fill="#00339f" d="M 271.183594 232.6875 L 255.722656 232.6875 L 255.722656 248.148438 L 271.183594 248.148438 L 271.183594 232.6875 " fill-opacity="1" fill-rule="nonzero"/><g transform="matrix(1, 0, 0, 1, 31, 498)"><g clip-path="url(#e53b49b436)"><g fill="#00339f" fill-opacity="1"><g transform="translate(5.546611, 95.215483)"><g><path d="M 58.84375 -46.921875 C 58.84375 -42.910156 57.921875 -39.242188 56.078125 -35.921875 C 54.242188 -32.609375 51.421875 -29.929688 47.609375 -27.890625 C 43.796875 -25.859375 39.066406 -24.84375 33.421875 -24.84375 L 22.96875 -24.84375 L 22.96875 0 L 6.109375 0 L 6.109375 -69.203125 L 33.421875 -69.203125 C 38.941406 -69.203125 43.609375 -68.25 47.421875 -66.34375 C 51.234375 -64.4375 54.085938 -61.804688 55.984375 -58.453125 C 57.890625 -55.097656 58.84375 -51.253906 58.84375 -46.921875 Z M 32.140625 -38.25 C 35.359375 -38.25 37.753906 -39.003906 39.328125 -40.515625 C 40.910156 -42.023438 41.703125 -44.160156 41.703125 -46.921875 C 41.703125 -49.679688 40.910156 -51.816406 39.328125 -53.328125 C 37.753906 -54.835938 35.359375 -55.59375 32.140625 -55.59375 L 22.96875 -55.59375 L 22.96875 -38.25 Z M 32.140625 -38.25 "/></g></g></g><g fill="#00339f" fill-opacity="1"><g transform="translate(67.015796, 95.215483)"><g><path d="M 41.40625 0 L 27.015625 -26.125 L 22.96875 -26.125 L 22.96875 0 L 6.109375 0 L 6.109375 -69.203125 L 34.40625 -69.203125 C 39.851562 -69.203125 44.5 -68.25 48.34375 -66.34375 C 52.195312 -64.4375 55.078125 -61.820312 56.984375 -58.5 C 58.890625 -55.1875 59.84375 -51.492188 59.84375 -47.421875 C 59.84375 -42.816406 58.539062 -38.707031 55.9375 -35.09375 C 53.34375 -31.476562 49.515625 -28.914062 44.453125 -27.40625 L 60.421875 0 Z M 22.96875 -38.046875 L 33.421875 -38.046875 C 36.503906 -38.046875 38.816406 -38.800781 40.359375 -40.3125 C 41.910156 -41.820312 42.6875 -43.957031 42.6875 -46.71875 C 42.6875 -49.351562 41.910156 -51.425781 40.359375 -52.9375 C 38.816406 -54.445312 36.503906 -55.203125 33.421875 -55.203125 L 22.96875 -55.203125 Z M 22.96875 -38.046875 "/></g></g></g><g fill="#00339f" fill-opacity="1"><g transform="translate(131.243259, 95.215483)"><g><path d="M 38.84375 0.6875 C 32.332031 0.6875 26.363281 -0.820312 20.9375 -3.84375 C 15.519531 -6.863281 11.21875 -11.082031 8.03125 -16.5 C 4.84375 -21.925781 3.25 -28.023438 3.25 -34.796875 C 3.25 -41.566406 4.84375 -47.644531 8.03125 -53.03125 C 11.21875 -58.425781 15.519531 -62.632812 20.9375 -65.65625 C 26.363281 -68.675781 32.332031 -70.1875 38.84375 -70.1875 C 45.34375 -70.1875 51.300781 -68.675781 56.71875 -65.65625 C 62.144531 -62.632812 66.421875 -58.425781 69.546875 -53.03125 C 72.671875 -47.644531 74.234375 -41.566406 74.234375 -34.796875 C 74.234375 -28.023438 72.65625 -21.925781 69.5 -16.5 C 66.34375 -11.082031 62.066406 -6.863281 56.671875 -3.84375 C 51.285156 -0.820312 45.34375 0.6875 38.84375 0.6875 Z M 38.84375 -14.6875 C 44.363281 -14.6875 48.78125 -16.523438 52.09375 -20.203125 C 55.414062 -23.890625 57.078125 -28.753906 57.078125 -34.796875 C 57.078125 -40.910156 55.414062 -45.789062 52.09375 -49.4375 C 48.78125 -53.082031 44.363281 -54.90625 38.84375 -54.90625 C 33.25 -54.90625 28.789062 -53.097656 25.46875 -49.484375 C 22.15625 -45.867188 20.5 -40.972656 20.5 -34.796875 C 20.5 -28.679688 22.15625 -23.800781 25.46875 -20.15625 C 28.789062 -16.507812 33.25 -14.6875 38.84375 -14.6875 Z M 38.84375 -14.6875 "/></g></g></g><g fill="#00339f" fill-opacity="1"><g transform="translate(208.67085, 95.215483)"><g><path d="M 32.03125 -69.203125 C 39.332031 -69.203125 45.707031 -67.753906 51.15625 -64.859375 C 56.613281 -61.972656 60.835938 -57.914062 63.828125 -52.6875 C 66.816406 -47.46875 68.3125 -41.4375 68.3125 -34.59375 C 68.3125 -27.832031 66.816406 -21.820312 63.828125 -16.5625 C 60.835938 -11.300781 56.597656 -7.222656 51.109375 -4.328125 C 45.617188 -1.441406 39.257812 0 32.03125 0 L 6.109375 0 L 6.109375 -69.203125 Z M 30.953125 -14.59375 C 37.328125 -14.59375 42.285156 -16.332031 45.828125 -19.8125 C 49.378906 -23.289062 51.15625 -28.21875 51.15625 -34.59375 C 51.15625 -40.96875 49.378906 -45.929688 45.828125 -49.484375 C 42.285156 -53.035156 37.328125 -54.8125 30.953125 -54.8125 L 22.96875 -54.8125 L 22.96875 -14.59375 Z M 30.953125 -14.59375 "/></g></g></g><g fill="#00339f" fill-opacity="1"><g transform="translate(280.286406, 95.215483)"><g><path d="M 22.671875 -69.203125 L 22.671875 -27.796875 C 22.671875 -23.660156 23.6875 -20.472656 25.71875 -18.234375 C 27.757812 -16.003906 30.753906 -14.890625 34.703125 -14.890625 C 38.640625 -14.890625 41.660156 -16.003906 43.765625 -18.234375 C 45.867188 -20.472656 46.921875 -23.660156 46.921875 -27.796875 L 46.921875 -69.203125 L 63.78125 -69.203125 L 63.78125 -27.890625 C 63.78125 -21.710938 62.460938 -16.488281 59.828125 -12.21875 C 57.203125 -7.945312 53.671875 -4.726562 49.234375 -2.5625 C 44.796875 -0.394531 39.851562 0.6875 34.40625 0.6875 C 28.945312 0.6875 24.066406 -0.378906 19.765625 -2.515625 C 15.460938 -4.648438 12.0625 -7.867188 9.5625 -12.171875 C 7.0625 -16.472656 5.8125 -21.710938 5.8125 -27.890625 L 5.8125 -69.203125 Z M 22.671875 -69.203125 "/></g></g></g><g fill="#00339f" fill-opacity="1"><g transform="translate(349.734742, 95.215483)"><g><path d="M 46.234375 0 L 22.96875 -30.5625 L 22.96875 0 L 6.109375 0 L 6.109375 -69.203125 L 22.96875 -69.203125 L 22.96875 -38.84375 L 46.03125 -69.203125 L 65.84375 -69.203125 L 39.03125 -35.296875 L 66.84375 0 Z M 46.234375 0 "/></g></g></g><g fill="#00339f" fill-opacity="1"><g transform="translate(59.899876, 202.870691)"><g><path d="M 51.15625 -69.203125 L 51.15625 -55.703125 L 22.96875 -55.703125 L 22.96875 -41.109375 L 44.0625 -41.109375 L 44.0625 -28 L 22.96875 -28 L 22.96875 0 L 6.109375 0 L 6.109375 -69.203125 Z M 51.15625 -69.203125 "/></g></g></g><g fill="#00339f" fill-opacity="1"><g transform="translate(113.783948, 202.870691)"><g><path d="M 41.40625 0 L 27.015625 -26.125 L 22.96875 -26.125 L 22.96875 0 L 6.109375 0 L 6.109375 -69.203125 L 34.40625 -69.203125 C 39.851562 -69.203125 44.5 -68.25 48.34375 -66.34375 C 52.195312 -64.4375 55.078125 -61.820312 56.984375 -58.5 C 58.890625 -55.1875 59.84375 -51.492188 59.84375 -47.421875 C 59.84375 -42.816406 58.539062 -38.707031 55.9375 -35.09375 C 53.34375 -31.476562 49.515625 -28.914062 44.453125 -27.40625 L 60.421875 0 Z M 22.96875 -38.046875 L 33.421875 -38.046875 C 36.503906 -38.046875 38.816406 -38.800781 40.359375 -40.3125 C 41.910156 -41.820312 42.6875 -43.957031 42.6875 -46.71875 C 42.6875 -49.351562 41.910156 -51.425781 40.359375 -52.9375 C 38.816406 -54.445312 36.503906 -55.203125 33.421875 -55.203125 L 22.96875 -55.203125 Z M 22.96875 -38.046875 "/></g></g></g><g fill="#00339f" fill-opacity="1"><g transform="translate(178.011411, 202.870691)"><g><path d="M 22.96875 -55.703125 L 22.96875 -41.703125 L 45.546875 -41.703125 L 45.546875 -28.6875 L 22.96875 -28.6875 L 22.96875 -13.5 L 48.5 -13.5 L 48.5 0 L 6.109375 0 L 6.109375 -69.203125 L 48.5 -69.203125 L 48.5 -55.703125 Z M 22.96875 -55.703125 "/></g></g></g><g fill="#00339f" fill-opacity="1"><g transform="translate(231.304423, 202.870691)"><g><path d="M 31.15625 0.6875 C 26.09375 0.6875 21.554688 -0.128906 17.546875 -1.765625 C 13.535156 -3.410156 10.332031 -5.84375 7.9375 -9.0625 C 5.539062 -12.289062 4.273438 -16.171875 4.140625 -20.703125 L 22.078125 -20.703125 C 22.335938 -18.140625 23.222656 -16.179688 24.734375 -14.828125 C 26.253906 -13.484375 28.226562 -12.8125 30.65625 -12.8125 C 33.15625 -12.8125 35.125 -13.382812 36.5625 -14.53125 C 38.007812 -15.6875 38.734375 -17.285156 38.734375 -19.328125 C 38.734375 -21.035156 38.160156 -22.445312 37.015625 -23.5625 C 35.867188 -24.675781 34.457031 -25.59375 32.78125 -26.3125 C 31.101562 -27.039062 28.71875 -27.863281 25.625 -28.78125 C 21.15625 -30.164062 17.507812 -31.546875 14.6875 -32.921875 C 11.863281 -34.304688 9.429688 -36.34375 7.390625 -39.03125 C 5.359375 -41.726562 4.34375 -45.242188 4.34375 -49.578125 C 4.34375 -56.023438 6.671875 -61.070312 11.328125 -64.71875 C 15.992188 -68.363281 22.078125 -70.1875 29.578125 -70.1875 C 37.203125 -70.1875 43.34375 -68.363281 48 -64.71875 C 52.664062 -61.070312 55.164062 -55.992188 55.5 -49.484375 L 37.265625 -49.484375 C 37.128906 -51.722656 36.304688 -53.484375 34.796875 -54.765625 C 33.285156 -56.046875 31.347656 -56.6875 28.984375 -56.6875 C 26.941406 -56.6875 25.296875 -56.140625 24.046875 -55.046875 C 22.804688 -53.960938 22.1875 -52.40625 22.1875 -50.375 C 22.1875 -48.132812 23.234375 -46.390625 25.328125 -45.140625 C 27.429688 -43.898438 30.71875 -42.554688 35.1875 -41.109375 C 39.65625 -39.597656 43.285156 -38.148438 46.078125 -36.765625 C 48.878906 -35.390625 51.296875 -33.382812 53.328125 -30.75 C 55.367188 -28.125 56.390625 -24.742188 56.390625 -20.609375 C 56.390625 -16.660156 55.382812 -13.078125 53.375 -9.859375 C 51.375 -6.640625 48.46875 -4.078125 44.65625 -2.171875 C 40.84375 -0.265625 36.34375 0.6875 31.15625 0.6875 Z M 31.15625 0.6875 "/></g></g></g><g fill="#00339f" fill-opacity="1"><g transform="translate(291.887069, 202.870691)"><g><path d="M 66.046875 -69.203125 L 66.046875 0 L 49.1875 0 L 49.1875 -28.484375 L 22.96875 -28.484375 L 22.96875 0 L 6.109375 0 L 6.109375 -69.203125 L 22.96875 -69.203125 L 22.96875 -42.09375 L 49.1875 -42.09375 L 49.1875 -69.203125 Z M 66.046875 -69.203125 "/></g></g></g></g></g></g></g></svg>