<svg xmlns="http://www.w3.org/2000/svg" xmlns:xlink="http://www.w3.org/1999/xlink" width="1000" zoomAndPan="magnify" viewBox="0 0 750 749.999995" height="1000" preserveAspectRatio="xMidYMid meet" version="1.0"><defs><clipPath id="35eb16f90c"><path d="M 47.769531 47.769531 L 702.519531 47.769531 L 702.519531 702.519531 L 47.769531 702.519531 Z M 47.769531 47.769531 " clip-rule="nonzero"/></clipPath></defs><g clip-path="url(#35eb16f90c)"><path fill="#00339f" d="M 374.867188 702.160156 C 287.476562 702.160156 205.339844 668.257812 143.441406 606.359375 C 81.542969 544.460938 47.769531 462.457031 47.769531 374.933594 C 47.769531 287.410156 81.9375 205.40625 143.703125 143.507812 C 205.46875 81.609375 287.605469 47.835938 375.128906 47.835938 C 462.652344 47.835938 544.65625 81.742188 606.554688 143.640625 C 668.453125 205.535156 702.226562 287.539062 702.226562 374.933594 C 702.226562 462.324219 668.320312 544.59375 606.425781 606.359375 C 544.527344 668.125 462.390625 702.160156 374.867188 702.160156 Z M 374.867188 57.296875 C 290.101562 57.296875 210.332031 90.285156 150.40625 150.339844 C 90.347656 210.53125 57.363281 290.300781 57.363281 375.066406 C 57.363281 459.828125 90.347656 539.597656 150.40625 599.65625 C 210.464844 659.714844 290.234375 692.699219 375 692.699219 C 459.761719 692.699219 539.53125 659.714844 599.589844 599.65625 C 659.648438 539.597656 692.632812 459.828125 692.632812 375.066406 C 692.632812 290.300781 659.648438 210.53125 599.589844 150.472656 C 539.664062 90.414062 459.894531 57.296875 374.867188 57.296875 Z M 255.015625 145.609375 L 261.980469 158.753906 L 277.355469 150.734375 L 283.925781 163.089844 L 268.8125 171.105469 L 282.347656 196.730469 L 267.632812 204.484375 L 233.855469 140.355469 L 265.132812 123.925781 L 271.96875 137.066406 Z M 351.082031 175.179688 L 336.886719 148.238281 L 332.15625 149.027344 L 336.886719 177.542969 L 321.25 180.042969 L 309.554688 108.417969 L 332.550781 104.609375 C 339.515625 103.558594 345.167969 104.34375 349.503906 107.367188 C 353.972656 110.257812 356.730469 115.382812 357.914062 122.480469 C 358.308594 125.109375 358.441406 127.476562 358.175781 129.707031 C 357.914062 131.941406 357.519531 133.914062 356.601562 135.359375 C 355.941406 137.066406 354.890625 138.382812 353.972656 139.566406 C 352.921875 140.617188 351.871094 141.535156 350.816406 142.195312 L 368.164062 172.15625 Z M 342.011719 126.160156 C 341.75 124.320312 341.222656 123.007812 340.4375 121.824219 C 339.777344 120.773438 338.859375 119.984375 338.070312 119.457031 C 337.152344 118.933594 336.097656 118.667969 335.179688 118.539062 C 334.257812 118.40625 333.207031 118.539062 332.289062 118.667969 L 327.292969 119.457031 L 330.183594 137.59375 L 334.917969 136.804688 C 337.152344 136.410156 339.121094 135.359375 340.566406 133.652344 C 342.277344 131.941406 342.671875 129.445312 342.011719 126.160156 Z M 390.898438 173.996094 L 402.464844 102.242188 L 437.160156 107.761719 L 434.925781 122.085938 L 415.871094 119.0625 L 413.636719 133.125 L 431.113281 135.886719 L 428.878906 149.289062 L 411.402344 146.53125 L 408.902344 161.90625 L 429.273438 165.191406 L 426.910156 179.777344 Z M 449.90625 187.796875 L 482.367188 122.875 L 513.773438 138.515625 L 507.335938 151.523438 L 490.121094 142.851562 L 483.679688 155.597656 L 499.714844 163.484375 L 493.667969 175.574219 L 477.636719 167.6875 L 470.671875 181.617188 L 489.070312 190.816406 L 482.496094 204.089844 Z M 211.777344 525.929688 C 212.042969 524.089844 212.042969 522.25 211.648438 520.542969 C 211.253906 518.703125 210.332031 517.257812 209.28125 515.8125 C 208.230469 514.367188 206.652344 513.445312 204.8125 513.050781 C 202.972656 512.65625 201.003906 513.316406 199.03125 515.023438 C 197.191406 516.46875 196.402344 518.175781 196.402344 520.148438 C 196.402344 522.121094 196.664062 524.75 197.324219 527.902344 C 197.71875 529.742188 198.109375 531.714844 198.375 533.683594 C 198.636719 535.65625 198.636719 538.023438 198.375 540.253906 C 198.109375 542.488281 197.453125 544.722656 196.140625 546.957031 C 195.089844 549.191406 193.25 551.292969 190.882812 553.398438 C 187.859375 555.894531 184.707031 557.601562 181.683594 558.523438 C 178.660156 559.441406 175.640625 559.835938 172.746094 559.3125 C 169.988281 558.917969 167.226562 557.996094 164.730469 556.550781 C 162.234375 555.105469 160 553.265625 158.160156 551.03125 C 155.402344 547.746094 153.429688 544.066406 152.507812 540.253906 C 151.589844 536.445312 151.0625 533.027344 151.457031 530.003906 L 166.308594 528.558594 C 166.046875 530.792969 166.175781 533.027344 166.703125 535.261719 C 167.226562 537.496094 168.28125 539.46875 169.460938 540.914062 C 170.777344 542.488281 172.222656 543.277344 174.191406 543.542969 C 176.03125 543.804688 178.003906 543.148438 179.582031 541.703125 C 181.421875 540.125 182.339844 538.414062 182.339844 536.183594 C 182.339844 534.078125 182.078125 531.1875 181.289062 527.769531 C 180.765625 525.667969 180.5 523.433594 180.238281 521.464844 C 179.976562 519.359375 180.105469 517.257812 180.5 515.15625 C 180.894531 513.050781 181.816406 511.082031 183 508.976562 C 184.3125 507.007812 185.890625 505.035156 188.253906 503.195312 C 191.277344 500.699219 194.5625 498.859375 197.585938 498.203125 C 200.609375 497.414062 203.628906 497.28125 206.390625 497.675781 C 209.148438 498.203125 211.777344 499.253906 214.011719 500.566406 C 216.378906 502.144531 218.347656 503.722656 220.1875 505.824219 C 222.6875 508.847656 224.527344 512.132812 225.445312 515.285156 C 226.367188 518.441406 226.761719 521.726562 226.367188 524.75 Z M 222.949219 606.882812 L 240.296875 582.046875 L 226.496094 572.320312 L 209.148438 597.160156 L 195.746094 587.828125 L 237.40625 528.429688 L 250.808594 537.757812 L 235.039062 560.363281 L 248.839844 570.085938 L 264.609375 547.484375 L 278.011719 556.8125 L 236.355469 616.214844 Z M 266.316406 630.144531 L 292.730469 562.597656 L 308.105469 568.640625 L 281.691406 636.191406 Z M 364.617188 603.46875 C 364.089844 607.542969 362.777344 610.828125 361.332031 613.453125 C 359.621094 616.214844 357.652344 618.316406 355.285156 619.894531 C 352.921875 621.472656 350.421875 622.523438 347.796875 623.046875 C 345.167969 623.574219 342.40625 623.574219 339.777344 623.179688 L 332.8125 622.128906 L 328.738281 648.28125 L 312.839844 645.914062 L 323.878906 574.160156 L 346.085938 577.445312 C 348.582031 577.839844 351.210938 578.5 353.578125 579.679688 C 356.074219 580.730469 358.308594 582.441406 360.148438 584.410156 C 361.988281 586.515625 363.300781 589.011719 364.355469 592.164062 C 365.011719 595.449219 365.140625 599.128906 364.617188 603.46875 Z M 349.371094 601.363281 C 349.898438 598.210938 349.503906 595.714844 348.058594 594.003906 C 346.613281 592.296875 345.035156 591.378906 342.800781 591.113281 L 337.675781 590.324219 L 334.785156 609.117188 L 339.910156 609.90625 C 342.144531 610.167969 344.246094 609.773438 345.957031 608.199219 C 347.796875 606.753906 348.847656 604.519531 349.371094 601.363281 Z M 425.332031 598.210938 C 425.726562 602.285156 425.59375 605.703125 424.675781 608.855469 C 423.886719 611.878906 422.441406 614.507812 420.601562 616.609375 C 418.761719 618.710938 416.527344 620.421875 414.160156 621.601562 C 411.664062 622.917969 409.167969 623.574219 406.539062 623.835938 L 399.574219 624.625 L 402.464844 650.910156 L 386.433594 652.75 L 378.152344 580.601562 L 400.625 578.105469 C 403.253906 577.839844 405.75 577.839844 408.511719 578.367188 C 411.136719 578.761719 413.636719 579.8125 416 581.257812 C 418.367188 582.835938 420.335938 584.9375 422.046875 587.699219 C 423.753906 590.324219 424.804688 593.875 425.332031 598.210938 Z M 409.957031 600.050781 C 409.5625 596.898438 408.511719 594.53125 406.800781 593.21875 C 405.09375 591.902344 402.992188 591.378906 400.757812 591.640625 L 395.632812 592.164062 L 397.734375 610.957031 L 402.859375 610.433594 C 405.09375 610.167969 406.933594 609.117188 408.246094 607.277344 C 409.824219 605.832031 410.480469 603.335938 409.957031 600.050781 Z M 458.1875 639.605469 L 434.398438 571.140625 L 450.039062 565.75 L 473.824219 634.21875 Z M 530.597656 604.519531 L 492.617188 576.394531 L 492.355469 576.527344 L 516.535156 613.457031 L 504.179688 621.339844 L 464.886719 560.363281 L 480 550.636719 L 518.242188 579.285156 L 518.507812 579.15625 L 494.0625 541.703125 L 505.890625 534.078125 L 545.183594 595.058594 Z M 595.253906 543.804688 C 593.941406 546.957031 591.96875 550.375 588.945312 553.660156 C 586.054688 557.078125 582.507812 559.707031 578.957031 561.152344 C 575.148438 562.726562 571.335938 563.253906 567.128906 562.992188 C 562.925781 562.726562 558.71875 561.546875 554.382812 559.574219 C 549.914062 557.601562 545.578125 554.710938 541.242188 550.902344 C 536.90625 547.089844 533.488281 543.410156 530.859375 539.203125 C 528.230469 535 526.390625 531.1875 525.472656 526.984375 C 524.550781 522.910156 524.550781 518.964844 525.339844 515.15625 C 526.128906 511.34375 527.96875 507.796875 530.726562 504.511719 C 533.882812 500.699219 537.296875 498.203125 540.714844 496.757812 C 544.132812 495.3125 547.417969 494.652344 550.570312 494.917969 L 553.855469 509.503906 C 549.652344 509.109375 546.234375 510.554688 543.476562 513.839844 C 541.898438 515.550781 541.109375 517.519531 540.976562 519.359375 C 540.847656 521.464844 541.109375 523.566406 541.898438 525.667969 C 542.6875 527.902344 544 530.003906 545.839844 532.238281 C 547.550781 534.472656 549.652344 536.574219 552.015625 538.546875 C 554.382812 540.519531 556.75 542.359375 559.113281 543.671875 C 561.480469 544.988281 563.84375 546.039062 566.078125 546.5625 C 568.3125 547.089844 570.414062 547.089844 572.519531 546.695312 C 574.488281 546.300781 576.328125 545.117188 577.644531 543.542969 C 579.351562 541.703125 580.140625 539.863281 580.273438 538.152344 L 570.023438 529.347656 L 565.027344 535.128906 L 554.121094 525.800781 L 568.574219 508.976562 L 598.011719 534.210938 C 597.355469 537.628906 596.699219 540.648438 595.253906 543.804688 Z M 617.855469 374.933594 C 617.855469 300.15625 584.214844 230.769531 525.472656 184.378906 L 522.972656 187.53125 C 580.796875 233.132812 613.914062 301.601562 613.914062 375.066406 C 613.914062 410.808594 606.292969 445.242188 590.917969 477.4375 L 594.597656 479.148438 C 609.972656 446.425781 617.855469 411.335938 617.855469 374.933594 Z M 158.6875 476.519531 C 143.703125 444.585938 136.214844 410.546875 136.214844 374.933594 C 136.214844 303.3125 168.015625 236.289062 223.082031 190.554688 L 220.582031 187.53125 C 164.46875 233.921875 132.140625 302.128906 132.140625 374.933594 C 132.140625 410.941406 139.761719 445.636719 155.136719 478.09375 Z M 505.757812 353.773438 L 473.824219 306.464844 C 468.960938 299.105469 460.683594 294.769531 451.878906 294.769531 L 414.421875 294.769531 L 414.421875 282.679688 C 414.421875 276.371094 409.429688 271.375 403.121094 271.375 L 238.585938 271.375 L 238.585938 421.847656 C 238.585938 426.449219 242.398438 430.257812 247 430.257812 L 270.390625 430.257812 C 272.097656 411.730469 287.476562 397.273438 306.398438 397.273438 C 325.324219 397.273438 340.832031 411.730469 342.40625 430.257812 L 418.101562 430.257812 C 419.8125 411.730469 435.1875 397.273438 454.113281 397.273438 C 473.035156 397.273438 488.542969 411.730469 490.121094 430.257812 L 499.714844 430.257812 C 506.019531 430.257812 511.015625 425.265625 511.015625 418.957031 L 511.015625 372.4375 C 511.410156 365.867188 509.4375 359.425781 505.757812 353.773438 Z M 486.046875 362.316406 L 435.714844 362.316406 C 433.609375 362.316406 431.902344 360.609375 431.902344 358.507812 L 431.902344 316.976562 C 431.902344 314.875 433.609375 313.167969 435.714844 313.167969 L 457.132812 313.167969 C 458.449219 313.167969 459.5 313.691406 460.289062 314.875 L 489.199219 356.402344 C 490.910156 358.898438 489.070312 362.316406 486.046875 362.316406 Z M 306.398438 402.136719 C 290.367188 402.136719 277.222656 414.359375 275.648438 429.996094 C 275.515625 431.046875 275.515625 432.097656 275.515625 433.152344 C 275.515625 434.203125 275.515625 435.386719 275.648438 436.304688 C 277.355469 451.945312 290.367188 464.164062 306.398438 464.164062 C 322.433594 464.164062 335.574219 451.945312 337.152344 436.304688 C 337.28125 435.253906 337.28125 434.203125 337.28125 433.152344 C 337.28125 432.097656 337.28125 430.917969 337.152344 429.996094 C 335.574219 414.359375 322.433594 402.136719 306.398438 402.136719 Z M 317.699219 436.4375 C 316.253906 441.429688 311.917969 445.109375 306.398438 445.109375 C 300.878906 445.109375 296.542969 441.429688 295.097656 436.4375 C 294.835938 435.515625 294.570312 434.332031 294.570312 433.28125 C 294.570312 432.230469 294.703125 431.046875 295.097656 430.128906 C 296.542969 425.265625 300.878906 421.453125 306.398438 421.453125 C 311.785156 421.453125 316.253906 425.132812 317.699219 430.128906 C 317.964844 431.046875 318.226562 432.230469 318.226562 433.28125 C 318.09375 434.332031 317.964844 435.386719 317.699219 436.4375 Z M 454.375 402.136719 C 438.339844 402.136719 425.199219 414.359375 423.621094 429.996094 C 423.492188 431.046875 423.492188 432.097656 423.492188 433.152344 C 423.492188 434.203125 423.492188 435.386719 423.621094 436.304688 C 425.332031 451.945312 438.339844 464.164062 454.375 464.164062 C 470.40625 464.164062 483.550781 451.945312 485.125 436.304688 C 485.257812 435.253906 485.257812 434.203125 485.257812 433.152344 C 485.257812 432.097656 485.257812 430.917969 485.125 429.996094 C 483.679688 414.359375 470.40625 402.136719 454.375 402.136719 Z M 465.675781 436.4375 C 464.230469 441.429688 459.894531 445.109375 454.375 445.109375 C 448.988281 445.109375 444.519531 441.429688 443.074219 436.4375 C 442.808594 435.515625 442.546875 434.332031 442.546875 433.28125 C 442.546875 432.230469 442.679688 431.046875 443.074219 430.128906 C 444.519531 425.265625 448.855469 421.453125 454.375 421.453125 C 459.761719 421.453125 464.230469 425.132812 465.675781 430.128906 C 465.9375 431.046875 466.203125 432.230469 466.203125 433.28125 C 466.203125 434.332031 465.9375 435.386719 465.675781 436.4375 Z M 465.675781 436.4375 " fill-opacity="1" fill-rule="nonzero"/></g></svg>