<svg xmlns="http://www.w3.org/2000/svg" xmlns:xlink="http://www.w3.org/1999/xlink" width="1000" zoomAndPan="magnify" viewBox="0 0 750 749.999995" height="1000" preserveAspectRatio="xMidYMid meet" version="1.0"><defs><g/><clipPath id="f90bc20ea9"><path d="M 309 0.839844 L 665.679688 0.839844 L 665.679688 261.71875 L 309 261.71875 Z M 309 0.839844 " clip-rule="nonzero"/></clipPath><clipPath id="340f60792b"><rect x="0" width="357" y="0" height="262"/></clipPath><clipPath id="ece4ac6f8c"><rect x="0" width="666" y="0" height="262"/></clipPath></defs><g transform="matrix(1, 0, 0, 1, 74, 243)"><g clip-path="url(#ece4ac6f8c)"><g fill="#033f86" fill-opacity="1"><g transform="translate(1.888238, 166.759622)"><g><path d="M 20.179688 -15.1875 L 35.6875 -15.1875 L 31.226562 2.972656 L 38.664062 4.992188 L 43.761719 -15.1875 L 52.363281 -15.1875 L 52.363281 -22.941406 L 45.671875 -22.941406 L 50.238281 -41.105469 L 56.929688 -41.105469 L 56.929688 -48.859375 L 52.152344 -48.859375 L 56.929688 -67.660156 L 49.390625 -69.675781 L 44.183594 -48.859375 L 28.679688 -48.859375 L 33.351562 -67.660156 L 25.917969 -69.675781 L 20.710938 -48.859375 L 7.753906 -48.859375 L 7.753906 -41.105469 L 18.695312 -41.105469 L 14.234375 -22.941406 L 3.929688 -22.941406 L 3.929688 -15.1875 L 12.214844 -15.1875 L 7.753906 3.082031 L 15.1875 5.097656 Z M 26.660156 -41.105469 L 42.167969 -41.105469 L 37.707031 -22.941406 L 22.199219 -22.941406 Z M 26.660156 -41.105469 "/></g></g></g><g fill="#033f86" fill-opacity="1"><g transform="translate(62.959531, 166.759622)"><g><path d="M 35.582031 -14.339844 C 35.582031 -21.878906 28.253906 -25.066406 20.179688 -27.402344 C 15.082031 -28.785156 11.046875 -30.378906 11.046875 -33.777344 C 11.046875 -38.023438 13.914062 -40.894531 19.542969 -40.894531 C 22.410156 -40.894531 25.171875 -40.253906 27.617188 -37.28125 L 33.457031 -42.484375 C 30.800781 -45.566406 26.449219 -48.648438 19.542969 -48.648438 C 10.726562 -48.648438 3.398438 -43.546875 3.398438 -33.457031 C 3.398438 -24.960938 11.472656 -21.878906 18.375 -19.863281 C 22.941406 -18.480469 27.933594 -16.996094 27.933594 -13.703125 C 27.933594 -8.710938 24.21875 -6.902344 18.585938 -6.902344 C 15.507812 -6.902344 10.515625 -8.921875 8.816406 -11.789062 L 3.292969 -6.371094 C 7.011719 -2.019531 13.171875 0.957031 18.585938 0.957031 C 27.933594 0.957031 35.582031 -3.71875 35.582031 -14.339844 Z M 35.582031 -14.339844 "/></g></g></g><g fill="#033f86" fill-opacity="1"><g transform="translate(101.620311, 166.759622)"><g><path d="M 46.734375 -30.378906 C 46.734375 -35.476562 44.609375 -40.894531 39.191406 -44.824219 C 34.625 -48.222656 30.484375 -48.648438 26.660156 -48.648438 C 22.09375 -48.539062 16.355469 -46.308594 13.0625 -41.953125 L 10.832031 -48.433594 L 3.71875 -46.097656 C 4.886719 -42.0625 7.433594 -35.476562 7.433594 -31.332031 L 7.433594 0 L 15.082031 0 L 15.082031 -25.171875 C 15.082031 -29.738281 15.933594 -32.925781 18.054688 -35.792969 C 20.074219 -38.449219 22.835938 -41 26.765625 -41 C 34.414062 -41 39.085938 -35.15625 39.085938 -30.164062 L 39.085938 0 L 46.734375 0 Z M 46.734375 -30.378906 "/></g></g></g><g fill="#033f86" fill-opacity="1"><g transform="translate(152.601584, 166.759622)"><g><path d="M 22.625 -48.648438 C 15.082031 -48.648438 10.089844 -46.734375 3.824219 -39.617188 L 9.347656 -34.308594 C 14.550781 -38.664062 14.871094 -40.894531 21.988281 -40.894531 C 27.617188 -40.894531 33.5625 -38.449219 33.5625 -28.679688 L 18.90625 -28.679688 C 14.976562 -28.679688 3.398438 -27.722656 3.398438 -14.765625 C 3.398438 -0.957031 14.976562 0 18.90625 0 L 41.210938 0 L 41.210938 -30.058594 C 41.210938 -35.050781 39.9375 -39.085938 37.492188 -41.953125 C 33.777344 -46.097656 28.679688 -48.648438 22.625 -48.648438 Z M 18.90625 -7.648438 C 16.464844 -7.648438 11.257812 -8.496094 11.257812 -14.339844 C 11.257812 -20.179688 16.464844 -21.03125 18.90625 -21.03125 L 33.5625 -21.03125 L 33.5625 -7.648438 Z M 18.90625 -7.648438 "/></g></g></g><g fill="#033f86" fill-opacity="1"><g transform="translate(198.059865, 166.759622)"><g><path d="M 47.476562 -37.601562 C 43.546875 -44.824219 36.324219 -49.070312 26.980469 -49.070312 C 12.640625 -49.070312 3.1875 -38.023438 3.1875 -24.109375 C 3.1875 -9.773438 12.640625 1.0625 27.085938 1.0625 C 36.433594 1.0625 43.546875 -3.292969 47.476562 -10.515625 L 41 -14.65625 C 38.449219 -9.664062 33.5625 -6.691406 27.085938 -6.691406 C 16.886719 -6.691406 11.046875 -13.914062 11.046875 -23.898438 C 11.046875 -33.988281 16.886719 -41.316406 27.085938 -41.316406 C 33.882812 -41.316406 38.449219 -38.132812 41 -33.140625 Z M 47.476562 -37.601562 "/></g></g></g><g fill="#033f86" fill-opacity="1"><g transform="translate(248.40386, 166.759622)"><g><path d="M 41.316406 -43.972656 L 35.792969 -49.390625 L 12.320312 -25.171875 L 12.320312 -67.445312 L 4.671875 -67.445312 L 4.671875 0 L 12.320312 0 L 12.320312 -13.914062 L 19.648438 -21.457031 L 39.617188 0.957031 L 45.246094 -4.25 L 24.960938 -26.980469 Z M 41.316406 -43.972656 "/></g></g></g><g clip-path="url(#f90bc20ea9)"><g transform="matrix(1, 0, 0, 1, 309, -0.000000000000113687)"><g clip-path="url(#340f60792b)"><g fill="#033f86" fill-opacity="1"><g transform="translate(1.971264, 185.769157)"><g><path d="M 85.429688 -30.65625 C 85.429688 -40.707031 79.902344 -49.414062 72.699219 -55.277344 C 78.058594 -61.140625 80.574219 -69.683594 80.574219 -76.386719 C 80.574219 -79.066406 80.40625 -86.9375 75.546875 -93.640625 C 70.691406 -100.675781 63.152344 -106.203125 49.25 -106.203125 L 7.707031 -106.203125 L 7.707031 0.167969 L 49.25 0.167969 C 63.988281 0.167969 74.542969 -4.019531 80.574219 -13.570312 C 83.921875 -18.761719 85.429688 -24.625 85.429688 -30.65625 Z M 27.304688 -19.429688 L 27.304688 -44.894531 L 38.863281 -44.894531 C 41.542969 -44.894531 52.933594 -44.894531 55.445312 -43.554688 C 59.464844 -41.710938 65.832031 -36.015625 65.832031 -30.65625 C 65.832031 -22.113281 59.96875 -19.429688 49.25 -19.429688 Z M 49.25 -86.769531 C 57.960938 -86.769531 60.972656 -81.578125 60.972656 -76.386719 C 60.972656 -71.191406 58.125 -67.507812 54.273438 -65.664062 C 51.761719 -64.492188 49.414062 -64.492188 46.234375 -64.492188 L 27.304688 -64.492188 L 27.304688 -86.769531 Z M 49.25 -86.769531 "/></g></g></g><g fill="#033f86" fill-opacity="1"><g transform="translate(94.102648, 185.769157)"><g><path d="M 27.304688 0 L 27.304688 -106.371094 L 7.707031 -106.371094 L 7.707031 0 Z M 27.304688 0 "/></g></g></g><g fill="#033f86" fill-opacity="1"><g transform="translate(129.615118, 185.769157)"><g><path d="M 72.53125 -61.140625 C 76.886719 -65.664062 77.390625 -71.863281 77.390625 -76.554688 C 77.390625 -81.242188 76.886719 -86.9375 72.363281 -93.640625 C 65.832031 -103.1875 55.277344 -106.371094 41.207031 -106.371094 L 7.707031 -106.371094 L 7.707031 0 L 27.304688 0 L 27.304688 -45.5625 L 32.496094 -45.5625 C 39.199219 -45.5625 48.914062 -32.664062 55.277344 -21.441406 C 60.972656 -11.390625 63.152344 -4.1875 65.160156 1.675781 L 83.753906 -5.191406 C 77.558594 -24.121094 69.351562 -38.527344 57.960938 -51.929688 C 61.980469 -54.441406 67.507812 -55.78125 72.53125 -61.140625 Z M 41.207031 -86.9375 C 51.929688 -86.9375 57.792969 -83.921875 57.792969 -76.554688 C 57.792969 -69.851562 45.730469 -64.996094 38.359375 -64.996094 L 27.304688 -64.996094 L 27.304688 -86.9375 Z M 41.207031 -86.9375 "/></g></g></g><g fill="#033f86" fill-opacity="1"><g transform="translate(215.548576, 185.769157)"><g><path d="M 46.566406 -18.089844 C 33.835938 -18.089844 26.632812 -24.289062 26.632812 -34.339844 L 26.632812 -106.371094 L 7.035156 -106.371094 L 7.035156 -34.339844 C 7.035156 -23.785156 10.722656 -12.226562 23.953125 -4.019531 C 32.164062 1.171875 39.199219 1.507812 46.566406 1.507812 C 53.9375 1.507812 61.308594 1.171875 69.351562 -4.019531 C 82.25 -12.226562 85.933594 -23.785156 85.933594 -34.339844 L 85.933594 -106.371094 L 66.335938 -106.371094 L 66.335938 -34.339844 C 66.335938 -24.289062 59.464844 -18.089844 46.566406 -18.089844 Z M 46.566406 -18.089844 "/></g></g></g><g fill="#033f86" fill-opacity="1"><g transform="translate(308.517515, 185.769157)"><g><path d="M 39.03125 -14.910156 C 39.03125 -22.78125 32.328125 -29.984375 23.617188 -29.984375 C 15.074219 -29.984375 8.542969 -22.78125 8.542969 -14.910156 C 8.542969 -6.867188 15.074219 0.167969 23.617188 0.167969 C 32.328125 0.167969 39.03125 -6.867188 39.03125 -14.910156 Z M 39.03125 -14.910156 "/></g></g></g></g></g></g></g></g></svg>